<svg width="45" height="45" viewBox="0 0 45 45" fill="none" xmlns="http://www.w3.org/2000/svg">
<path fill-rule="evenodd" clip-rule="evenodd" d="M22.5253 26.5662C19.7406 26.5662 17.485 24.3106 17.485 21.5259C17.485 18.7435 19.7406 16.4879 22.5253 16.4879C25.3076 16.4879 27.5632 18.7435 27.5632 21.5259C27.5632 24.3106 25.3076 26.5662 22.5253 26.5662ZM22.5253 13.7646C18.2384 13.7646 14.7617 17.239 14.7617 21.5259C14.7617 25.8151 18.2384 29.2894 22.5253 29.2894C26.8098 29.2894 30.2865 25.8151 30.2865 21.5259C30.2865 17.239 26.8098 13.7646 22.5253 13.7646Z" fill="black"/>
<path fill-rule="evenodd" clip-rule="evenodd" d="M22.4988 6C18.2899 6 17.7608 6.01653 16.1075 6.09448C14.4589 6.1677 13.3323 6.42987 12.345 6.81486C11.327 7.2093 10.4602 7.74072 9.60046 8.60282C8.73836 9.46255 8.2093 10.3294 7.8125 11.3474C7.42987 12.3346 7.1677 13.4613 7.09211 15.1099C7.01653 16.7632 7 17.2923 7 21.5012C7 25.7125 7.01653 26.2392 7.09211 27.8949C7.1677 29.5435 7.42987 30.6701 7.8125 31.6574C8.2093 32.6754 8.73836 33.5398 9.60046 34.4019C10.4602 35.264 11.327 35.7931 12.345 36.1899C13.3323 36.5725 14.4589 36.8347 16.1075 36.9102C17.7608 36.9858 18.2899 37.0047 22.4988 37.0047C26.7077 37.0047 27.2368 36.9858 28.8901 36.9102C30.5387 36.8347 31.6654 36.5725 32.6526 36.1899C33.6706 35.7931 34.5374 35.264 35.3972 34.4019C36.2593 33.5398 36.7907 32.6754 37.1851 31.6574C37.5678 30.6701 37.8299 29.5435 37.9055 27.8949C37.9811 26.2392 37.9976 25.7125 37.9976 21.5012C37.9976 17.2923 37.9811 16.7632 37.9055 15.1099C37.8299 13.4613 37.5678 12.3346 37.1851 11.3474C36.7907 10.3294 36.2593 9.46255 35.3972 8.60282C34.5374 7.74072 33.6706 7.2093 32.6526 6.81486C31.6654 6.42987 30.5387 6.1677 28.8901 6.09448C27.2368 6.01653 26.7077 6 22.4988 6ZM22.4988 8.79413C26.6369 8.79413 27.1282 8.8083 28.7602 8.88389C30.2742 8.95238 31.0938 9.2051 31.6394 9.41768C32.3645 9.69874 32.8818 10.0341 33.4226 10.575C33.9635 11.1182 34.3013 11.6355 34.5823 12.3582C34.7949 12.9062 35.0453 13.7258 35.1161 15.2374C35.1893 16.8718 35.2059 17.3631 35.2059 21.5012C35.2059 25.6416 35.1893 26.1305 35.1161 27.765C35.0453 29.2766 34.7949 30.0985 34.5823 30.6441C34.3013 31.3692 33.9635 31.8841 33.4226 32.4274C32.8818 32.9682 32.3645 33.306 31.6394 33.587C31.0938 33.7996 30.2742 34.05 28.7602 34.1208C27.1282 34.1964 26.6369 34.2106 22.4988 34.2106C18.3608 34.2106 17.8695 34.1964 16.2374 34.1208C14.7234 34.05 13.9038 33.7996 13.3582 33.587C12.6331 33.306 12.1159 32.9682 11.575 32.4274C11.0341 31.8841 10.6964 31.3692 10.4153 30.6441C10.2027 30.0985 9.95238 29.2766 9.88152 27.765C9.8083 26.1305 9.79177 25.6416 9.79177 21.5012C9.79177 17.3631 9.8083 16.8718 9.88152 15.2374C9.95238 13.7258 10.2027 12.9062 10.4153 12.3582C10.6964 11.6355 11.0341 11.1182 11.575 10.575C12.1159 10.0341 12.6331 9.69874 13.3582 9.41768C13.9038 9.2051 14.7234 8.95238 16.2374 8.88389C17.8695 8.8083 18.3608 8.79413 22.4988 8.79413Z" fill="black"/>
<path fill-rule="evenodd" clip-rule="evenodd" d="M31.8379 12.2114C31.8379 13.0687 31.1435 13.7631 30.2861 13.7631C29.4264 13.7631 28.7344 13.0687 28.7344 12.2114C28.7344 11.354 29.4264 10.6572 30.2861 10.6572C31.1435 10.6572 31.8379 11.354 31.8379 12.2114Z" fill="black"/>
</svg>
