<svg width="30" height="30" viewBox="0 0 30 30" fill="none" xmlns="http://www.w3.org/2000/svg">
<path d="M22.2917 2.5H7.70833C4.83229 2.5 2.5 4.83229 2.5 7.70833V22.2917C2.5 25.1677 4.83229 27.5 7.70833 27.5H22.2917C25.1687 27.5 27.5 25.1677 27.5 22.2917V7.70833C27.5 4.83229 25.1687 2.5 22.2917 2.5ZM10.8333 22.2917H7.70833V10.8333H10.8333V22.2917ZM9.27083 9.5125C8.26458 9.5125 7.44792 8.68958 7.44792 7.675C7.44792 6.66042 8.26458 5.8375 9.27083 5.8375C10.2771 5.8375 11.0938 6.66042 11.0938 7.675C11.0938 8.68958 10.2781 9.5125 9.27083 9.5125ZM23.3333 22.2917H20.2083V16.4542C20.2083 12.9458 16.0417 13.2115 16.0417 16.4542V22.2917H12.9167V10.8333H16.0417V12.6719C17.4958 9.97813 23.3333 9.77917 23.3333 15.251V22.2917Z" fill="#212121"/>
</svg>
