<svg width="45" height="45" viewBox="0 0 45 45" fill="none" xmlns="http://www.w3.org/2000/svg">
<path d="M10.9609 18.2632C10.9609 16.9651 11.1863 15.7422 11.637 14.5943C12.0877 13.4465 12.7097 12.4459 13.503 11.5925C14.2963 10.7392 15.2097 10 16.2434 9.375C17.277 8.75 18.3888 8.28125 19.5787 7.96875C20.7686 7.65625 21.9826 7.5 23.2205 7.5C25.1196 7.5 26.8864 7.89964 28.521 8.69892C30.1556 9.4982 31.4838 10.6611 32.5054 12.1875C33.527 13.7139 34.0378 15.4387 34.0378 17.3618C34.0378 18.5156 33.9237 19.6454 33.6953 20.7512C33.4669 21.857 33.1064 22.9207 32.6136 23.9423C32.1208 24.964 31.5198 25.8624 30.8107 26.6376C30.1016 27.4129 29.2302 28.0319 28.1965 28.4946C27.1629 28.9573 26.027 29.1887 24.7891 29.1887C23.9718 29.1887 23.1605 28.9964 22.3552 28.6118C21.5499 28.2272 20.973 27.6983 20.6244 27.0252C20.5042 27.494 20.3359 28.1701 20.1196 29.0535C19.9033 29.9369 19.762 30.5078 19.6959 30.7662C19.6298 31.0247 19.5066 31.4513 19.3263 32.0463C19.146 32.6412 18.9898 33.0679 18.8576 33.3263C18.7254 33.5848 18.5331 33.9603 18.2807 34.4531C18.0283 34.9459 17.7518 35.4117 17.4513 35.8504C17.1508 36.2891 16.7782 36.8089 16.3335 37.4099L16.0811 37.5L15.9189 37.3197C15.7386 35.4327 15.6484 34.3029 15.6484 33.9303C15.6484 32.8245 15.7776 31.5835 16.0361 30.2073C16.2945 28.8311 16.6941 27.1034 17.235 25.024C17.7758 22.9447 18.0883 21.7248 18.1725 21.3642C17.7879 20.5829 17.5956 19.5673 17.5956 18.3173C17.5956 17.3197 17.9081 16.3822 18.5331 15.5048C19.1581 14.6274 19.9513 14.1887 20.9129 14.1887C21.646 14.1887 22.217 14.4321 22.6256 14.9189C23.0343 15.4057 23.2386 16.0216 23.2386 16.7668C23.2386 17.5601 22.9742 18.7079 22.4453 20.2103C21.9165 21.7127 21.652 22.8365 21.652 23.5817C21.652 24.3389 21.9225 24.9669 22.4633 25.4657C23.0042 25.9646 23.6593 26.2139 24.4285 26.2139C25.0896 26.2139 25.7025 26.0637 26.2674 25.7632C26.8323 25.4627 27.3041 25.0541 27.6827 24.5373C28.0613 24.0204 28.3978 23.4495 28.6923 22.8245C28.9868 22.1995 29.2152 21.5355 29.3774 20.8323C29.5397 20.1292 29.6599 19.4621 29.738 18.8311C29.8161 18.2001 29.8552 17.6022 29.8552 17.0373C29.8552 14.9579 29.1971 13.3384 27.881 12.1785C26.5649 11.0186 24.8492 10.4387 22.7338 10.4387C20.3299 10.4387 18.3227 11.217 16.7121 12.7735C15.1016 14.3299 14.2963 16.3041 14.2963 18.6959C14.2963 19.2248 14.3714 19.7356 14.5216 20.2284C14.6719 20.7212 14.8341 21.1118 15.0084 21.4003C15.1827 21.6887 15.345 21.9622 15.4952 22.2206C15.6454 22.479 15.7206 22.6623 15.7206 22.7705C15.7206 23.107 15.6304 23.5457 15.4501 24.0866C15.2698 24.6274 15.0475 24.8979 14.7831 24.8979C14.759 24.8979 14.6569 24.8798 14.4766 24.8438C13.8636 24.6635 13.3197 24.3269 12.845 23.8342C12.3702 23.3414 12.0036 22.7735 11.7452 22.1304C11.4868 21.4874 11.2915 20.8384 11.1593 20.1833C11.027 19.5282 10.9609 18.8882 10.9609 18.2632Z" fill="black"/>
</svg>
