<svg width="45" height="45" viewBox="0 0 45 45" fill="none" xmlns="http://www.w3.org/2000/svg">
<path d="M36 20.3252V15.0002C33.5063 15.0002 31.6031 14.3346 30.375 13.0408C29.1145 11.5643 28.4084 9.69446 28.3781 7.75332V7.36895L23.3438 7.24707C23.3438 7.24707 23.3438 7.4627 23.3438 7.75332V28.8752C23.1711 29.8188 22.713 30.6868 22.0314 31.3619C21.3498 32.0369 20.4775 32.4866 19.5322 32.6502C18.5869 32.8138 17.6142 32.6834 16.7454 32.2767C15.8766 31.8699 15.1535 31.2064 14.6737 30.3757C14.1939 29.545 13.9805 28.587 14.0624 27.6312C14.1443 26.6754 14.5175 25.7677 15.1316 25.0307C15.7457 24.2937 16.5712 23.7629 17.4965 23.5098C18.4219 23.2568 19.4026 23.2938 20.3063 23.6158V18.4596C19.7794 18.3732 19.2464 18.3293 18.7125 18.3283C16.7916 18.3283 14.9137 18.8979 13.3165 19.9652C11.7193 21.0324 10.4744 22.5493 9.73932 24.324C9.00421 26.0987 8.81187 28.0516 9.18663 29.9356C9.56139 31.8197 10.4864 33.5503 11.8447 34.9086C13.203 36.2669 14.9336 37.1919 16.8177 37.5667C18.7017 37.9415 20.6546 37.7491 22.4293 37.014C24.204 36.2789 25.7209 35.034 26.7882 33.4368C27.8554 31.8396 28.425 29.9618 28.425 28.0408C28.424 27.6428 28.3989 27.2452 28.35 26.8502V18.2721C30.6392 19.7017 33.3026 20.4165 36 20.3252Z" fill="black"/>
</svg>
