<svg width="45" height="45" viewBox="0 0 45 45" fill="none" xmlns="http://www.w3.org/2000/svg">
<path fill-rule="evenodd" clip-rule="evenodd" d="M33.5327 12.359C34.372 12.4517 35.1393 12.8125 35.7452 13.3625C36.3474 13.9091 36.79 14.6435 36.9845 15.4879C37.4988 17.7261 37.4988 20.1524 37.4988 22.4433H37.5V22.5012H37.4987C37.4988 23.6542 37.4983 24.8419 37.4339 26.0126C37.3686 27.1998 37.2381 28.3802 36.9781 29.5118C36.7824 30.3564 36.3396 31.091 35.7379 31.6376C35.1326 32.1874 34.3665 32.5479 33.5285 32.6407C31.7034 32.8449 29.8628 32.9476 28.0161 32.9991C26.1813 33.0503 24.3387 33.0503 22.4993 33.0492C20.6606 33.0503 18.818 33.0503 16.9829 32.9991C15.136 32.9476 13.2948 32.8449 11.4695 32.6407C10.6313 32.5479 9.86506 32.1873 9.26008 31.6373C8.65864 31.0906 8.2165 30.3562 8.02202 29.5118C7.76089 28.3802 7.63047 27.1998 7.5654 26.0126C7.50002 24.8191 7.5 23.643 7.5 22.5012C7.5 21.3579 7.50167 20.1802 7.56864 18.9875C7.63534 17.7997 7.76736 16.6193 8.02835 15.4879C8.22168 14.6439 8.6636 13.9096 9.26509 13.3629C9.87043 12.8127 10.6374 12.4518 11.4759 12.359C13.301 12.1548 15.1421 12.0521 16.9891 12.0006C18.8242 11.9494 20.6668 11.9494 22.5051 11.9504C24.3438 11.9494 26.1865 11.9494 28.0214 12.0006C29.8681 12.0521 31.7087 12.1548 33.5327 12.359ZM18.3945 27.5803L18.8595 27.3395C20.4194 26.5315 21.9726 25.7264 23.5258 24.9212L28.7352 22.2197L28.1933 21.9367C26.4841 21.0441 24.7865 20.1582 23.0908 19.2734L23.017 19.2349C21.6321 18.5122 20.2484 17.7902 18.8608 17.0657L18.3945 16.8223L18.3945 27.5803Z" fill="black"/>
</svg>
