<svg width="67" height="42" viewBox="0 0 67 42" fill="none" xmlns="http://www.w3.org/2000/svg">
<rect x="0.5" y="0.5" width="66" height="41" rx="3.5" fill="white" stroke="white"/>
<path fill-rule="evenodd" clip-rule="evenodd" d="M3.5 42H63.5C65.432 41.9977 66.9977 40.432 67 38.5V3.5C66.9977 1.56797 65.432 0.00233627 63.5 0H3.5C1.56797 0.00233627 0.00233627 1.56797 0 3.5V38.5C0.00233627 40.432 1.56797 41.9977 3.5 42ZM1 3.5C1.00162 2.11996 2.11996 1.00162 3.5 1H63.5C64.8801 1.00145 65.9986 2.11989 66 3.5V38.5C65.9987 39.8802 64.8802 40.9987 63.5 41H3.5C2.11989 40.9986 1.00145 39.8801 1 38.5V3.5Z" fill="white"/>
<path fill-rule="evenodd" clip-rule="evenodd" d="M53.4578 15.2991L47.3638 15.2969L45.8053 17.2785L44.2924 15.2991L31.2147 15.3038L29.9874 18.3224L28.7789 15.3038L23.2127 15.2991V16.5861L22.6021 15.2991H18.0194L13.5898 26.5584H18.9364L19.547 24.7896L21.4968 24.7918L22.1074 26.5606L27.6423 26.5584V25.2715L28.1008 26.5584L31.5366 26.5434L31.9951 25.0955V26.5434L44.2455 26.5584L45.7731 24.7896L47.1475 26.5584H52.9993L49.0283 20.9288L53.4578 15.2991ZM19.3948 21.4118H21.8393L20.6171 18.195L19.3948 21.4118ZM33.2941 24.9495H34.9748H35.126V16.907H32.224L30.0858 22.3756L27.7944 16.907H24.8924V24.4664L21.9904 16.907H19.3938L16.1865 24.9495H18.1725L18.7832 23.1806H22.4489L23.0595 24.9495H26.5732V18.6769L29.1698 24.9495H30.6974L33.2941 18.6769V24.9495ZM50.0974 24.9495H47.806L45.82 22.2146L43.5286 24.9495H36.6545V16.907H43.6807L45.8189 19.4808L48.1103 16.907H50.2485L46.8891 20.9288L50.0974 24.9495ZM38.3353 19.9639V18.5159H42.7658L44.5987 20.7678L42.6127 23.1807H38.3353V21.5729H42.1542V19.9639H38.3353Z" fill="#006FCF"/>
</svg>
