<svg width="67" height="42" viewBox="0 0 67 42" fill="none" xmlns="http://www.w3.org/2000/svg">
<rect width="67" height="42" rx="4" fill="white"/>
<path d="M18.6947 13.464C19.2363 12.8007 19.6038 11.9101 19.5068 11C18.7141 11.0386 17.7466 11.5121 17.1865 12.1759C16.6836 12.7444 16.2385 13.6723 16.3545 14.5442C17.2445 14.6198 18.1336 14.1086 18.6947 13.464Z" fill="black"/>
<path d="M19.4958 14.714C18.2034 14.6387 17.1045 15.4323 16.4873 15.4323C15.8698 15.4323 14.9247 14.752 13.9025 14.7704C12.572 14.7895 11.3374 15.5261 10.6623 16.6977C9.27357 19.0413 10.2958 22.5178 11.6462 24.4266C12.302 25.371 13.0924 26.4108 14.1338 26.3734C15.1178 26.3356 15.5034 25.7496 16.6995 25.7496C17.8946 25.7496 18.242 26.3734 19.2836 26.3545C20.3638 26.3356 21.0391 25.4097 21.6949 24.4644C22.4472 23.3879 22.7552 22.3485 22.7745 22.2914C22.7552 22.2725 20.6917 21.4974 20.6726 19.1732C20.6531 17.2271 22.2926 16.3015 22.3698 16.244C21.4439 14.9032 19.9973 14.752 19.4958 14.714Z" fill="black"/>
<path d="M30.7479 12.0801C33.5569 12.0801 35.513 13.9761 35.513 16.7365C35.513 19.5067 33.5167 21.4125 30.6775 21.4125H27.5674V26.2556H25.3203V12.0801H30.7479V12.0801ZM27.5674 19.5656H30.1457C32.1021 19.5656 33.2156 18.5343 33.2156 16.7463C33.2156 14.9585 32.1021 13.9368 30.1558 13.9368H27.5674V19.5656Z" fill="black"/>
<path d="M36.1016 23.3183C36.1016 21.5106 37.5161 20.4006 40.0244 20.263L42.9136 20.0961V19.3005C42.9136 18.1511 42.1209 17.4634 40.7969 17.4634C39.5426 17.4634 38.76 18.0527 38.5696 18.9763H36.523C36.6434 17.1096 38.2685 15.7344 40.8771 15.7344C43.4353 15.7344 45.0705 17.0606 45.0705 19.1333V26.2555H42.9937V24.556H42.9438C42.3319 25.7054 40.9974 26.4323 39.613 26.4323C37.5463 26.4323 36.1016 25.1748 36.1016 23.3183ZM42.9136 22.3851V21.5697L40.3151 21.7268C39.0209 21.8153 38.2886 22.3752 38.2886 23.2594C38.2886 24.163 39.0511 24.7525 40.2149 24.7525C41.7297 24.7525 42.9136 23.7308 42.9136 22.3851Z" fill="black"/>
<path d="M47.0317 30.0581V28.3389C47.1919 28.3782 47.553 28.3782 47.7338 28.3782C48.7369 28.3782 49.2788 27.9657 49.6097 26.9047C49.6097 26.885 49.8005 26.276 49.8005 26.2662L45.9883 15.9219H48.3356L51.0045 24.331H51.0444L53.7133 15.9219H56.0006L52.0475 26.7965C51.145 29.3017 50.1016 30.1072 47.9145 30.1072C47.7338 30.1072 47.1919 30.0875 47.0317 30.0581Z" fill="black"/>
</svg>
