<svg width="67" height="42" viewBox="0 0 67 42" fill="none" xmlns="http://www.w3.org/2000/svg">
<rect x="0.5" y="0.5" width="66" height="41" rx="3.5" fill="white" stroke="white"/>
<path fill-rule="evenodd" clip-rule="evenodd" d="M54.5308 26.3072C54.7738 26.3072 55.0047 26.0719 55.2478 25.6719L55.4543 25.7543C55.2142 26.2997 54.6771 26.654 54.0812 26.6602C53.3764 26.6602 52.8417 26.2366 52.9997 25.1778C52.7153 26.0382 51.9246 26.63 51.0189 26.6602C50.4645 26.6869 49.9259 26.4712 49.5433 26.0691C49.1606 25.6671 48.9718 25.1184 49.026 24.566C48.983 22.718 50.3913 21.1584 52.2341 21.0131C52.7745 20.966 53.303 21.1909 53.6437 21.6131L54.1419 18.8954H53.3278L53.3642 18.6602H55.5393L54.3242 25.3778C54.1905 26.119 54.2391 26.3072 54.5307 26.3072H54.5308ZM33.0477 19.1307C30.5573 19.171 28.5551 21.193 28.5393 23.6837C28.5279 24.52 28.8721 25.3218 29.4863 25.8895C30.1005 26.4572 30.9268 26.7373 31.7596 26.6602C33.1904 26.7445 34.48 25.802 34.834 24.4131H34.6031C34.2523 25.6571 33.0868 26.4924 31.796 26.4249C30.6295 26.4249 29.9976 25.7896 29.9976 24.3896C29.9976 22.1425 31.1642 19.366 33.0842 19.366C34.8948 19.366 35.2472 20.7543 35.1135 21.8602H35.2836L35.7576 19.2484H35.5388C35.5084 19.467 35.333 19.6368 35.1135 19.6602C34.9252 19.6602 34.7551 19.5807 34.5467 19.4833C34.2173 19.3294 33.7921 19.1307 33.0477 19.1307ZM42.5338 25.7543L42.3272 25.6719C42.0842 26.0719 41.8533 26.3072 41.6102 26.3072C41.3186 26.3072 41.27 26.119 41.4036 25.3778L42.1935 21.1307H40.8204L40.7231 21.6249C40.3878 21.1945 39.8568 20.9641 39.3135 21.0131C37.4707 21.1584 36.0624 22.718 36.1054 24.566C36.0512 25.1184 36.24 25.6671 36.6227 26.0691C37.0053 26.4712 37.5439 26.6869 38.0983 26.6602C39.004 26.63 39.7948 26.0382 40.0791 25.1778C39.9211 26.2366 40.4558 26.6602 41.1606 26.6602C41.7565 26.654 42.2936 26.2997 42.5338 25.7543ZM38.4629 26.3425C39.3135 26.3425 40.0912 25.1072 40.4193 23.3307L40.6623 21.9778C40.4863 21.5454 40.0596 21.2684 39.593 21.2837C38.4628 21.2837 37.515 22.9307 37.515 24.8837C37.515 25.8837 37.8917 26.3425 38.4629 26.3425ZM48.6295 21.766C48.6295 21.3778 48.3743 21.0131 47.6816 21.0131C46.8203 21.0883 46.0784 21.6509 45.7738 22.4602L46.0046 21.1307H43.951L43.9145 21.366H44.595L43.6472 26.5425H45.0204L45.4335 24.2719C45.7494 22.5307 46.4908 21.566 47.0254 21.566C47.2569 21.566 47.3071 21.7415 47.3631 21.9369C47.4335 22.1827 47.513 22.4602 47.9733 22.4602C48.1553 22.4644 48.3306 22.3913 48.4557 22.259C48.5808 22.1267 48.6439 21.9475 48.6295 21.766ZM53.3399 23.3307C53.0239 25.0954 52.2341 26.3425 51.3834 26.3425H51.3834C50.8244 26.3425 50.4355 25.8837 50.4355 24.8837C50.4355 22.9307 51.3834 21.2837 52.5135 21.2837C52.9801 21.2684 53.4069 21.5454 53.5829 21.9778L53.3399 23.3307Z" fill="black"/>
<path fill-rule="evenodd" clip-rule="evenodd" d="M13.9893 15.9585H11.4375V7.56055H13.7183C14.0269 7.56074 14.3346 7.59265 14.6367 7.65577C14.9303 7.71384 15.2112 7.82415 15.4658 7.98145C15.7135 8.13733 15.9189 8.35182 16.064 8.60596C16.2256 8.9096 16.3044 9.25046 16.2925 9.59424C16.2981 9.86867 16.2493 10.1415 16.1489 10.397C16.0588 10.6165 15.9268 10.8163 15.7603 10.9854C15.5992 11.1466 15.4126 11.2801 15.208 11.3804C15.1193 11.4242 15.0283 11.4635 14.9355 11.498C15.0443 11.5271 15.1513 11.562 15.2564 11.6025C15.504 11.6977 15.7334 11.8348 15.9346 12.0078C16.1527 12.1968 16.3303 12.428 16.4566 12.6875C16.6018 12.9942 16.6732 13.3306 16.6651 13.6699C16.6796 14.0633 16.5914 14.4537 16.4092 14.8027C16.2508 15.0853 16.0263 15.3254 15.7549 15.5024C15.489 15.6723 15.1945 15.7927 14.8858 15.8579C14.5913 15.9229 14.2908 15.9567 13.9893 15.9585ZM11.8863 15.5269H13.8765C14.1955 15.5288 14.5137 15.4929 14.8242 15.4199C15.0892 15.3601 15.3401 15.2495 15.563 15.0942C15.7651 14.9486 15.9291 14.7563 16.041 14.5337C16.2855 13.9806 16.2738 13.3478 16.0088 12.8042C15.8788 12.566 15.6977 12.3596 15.4785 12.1997C15.2628 12.0454 15.0212 11.9309 14.7652 11.8618C14.5161 11.7928 14.259 11.757 14.0005 11.7554H11.8862L11.8863 15.5269ZM13.7066 11.3237H11.8863L11.8862 7.99219H13.6504C13.9338 7.99133 14.2165 8.01963 14.4941 8.07666C14.7402 8.12585 14.9758 8.21756 15.1904 8.34766C15.3876 8.47119 15.5507 8.64227 15.6645 8.84522C15.7916 9.08635 15.8534 9.35652 15.8437 9.62891C15.8512 9.89606 15.7876 10.1604 15.6597 10.395C15.5404 10.6042 15.3749 10.7832 15.1758 10.9185C14.966 11.0582 14.7341 11.1612 14.4898 11.2231C14.234 11.2896 13.9708 11.3234 13.7066 11.3237Z" fill="black"/>
<path fill-rule="evenodd" clip-rule="evenodd" d="M42.709 18.7603C42.6238 18.7592 42.5389 18.751 42.4551 18.7359C42.3719 18.7224 42.2902 18.7013 42.2109 18.6729L42.123 18.6392L42.248 18.2324L42.3447 18.2642C42.4017 18.2821 42.4598 18.2964 42.5186 18.3072C42.7128 18.3523 42.9166 18.3313 43.0977 18.2476C43.2002 18.1939 43.2916 18.1214 43.3672 18.0337C43.4459 17.941 43.5113 17.8378 43.5615 17.7271C43.6172 17.606 43.667 17.4849 43.7109 17.3638L44.1953 16.0098L42.1016 10.4316H42.5869L42.6113 10.4971L44.4248 15.4248L46.1973 10.4316H46.6816L44.0566 17.6524C43.9559 17.9591 43.7823 18.2369 43.5508 18.4619C43.3185 18.665 43.0174 18.7718 42.709 18.7603Z" fill="black"/>
<path fill-rule="evenodd" clip-rule="evenodd" d="M40.4727 16.0977C40.1091 16.1298 39.7525 15.9832 39.5167 15.7046C39.3202 15.4291 39.22 15.0965 39.2315 14.7584V10.8526H38.1016V10.4321H39.2207V8.86914H39.6797V10.4321H41.2041V10.8526H39.6797V14.7583C39.6537 15.0157 39.7362 15.2722 39.9072 15.4663C40.0792 15.6144 40.3018 15.69 40.5283 15.6773C40.7125 15.6796 40.8955 15.6468 41.0674 15.5806L41.1816 15.5347L41.251 15.9307L41.1777 15.9619C41.0693 16.007 40.9563 16.0402 40.8408 16.0611C40.7195 16.0849 40.5963 16.0972 40.4727 16.0977Z" fill="black"/>
<path fill-rule="evenodd" clip-rule="evenodd" d="M26.4282 16.0245C26.6408 16.0881 26.8615 16.1207 27.0835 16.1211C27.5238 16.1208 27.9546 15.9928 28.3236 15.7525C28.6123 15.5659 28.8442 15.3036 28.994 14.9942C28.998 15.0743 29.0038 15.1559 29.0116 15.2379C29.0232 15.3565 29.0326 15.4713 29.0399 15.5821C29.0459 15.6814 29.0578 15.7802 29.0756 15.878L29.0912 15.959H29.5277L29.5097 15.8433C29.4877 15.7022 29.4677 15.521 29.4481 15.2891C29.4296 15.0616 29.4203 14.8482 29.4203 14.6548V12.3159C29.4674 11.7449 29.2686 11.181 28.8739 10.7656C28.4633 10.4192 27.9362 10.2422 27.3998 10.2705C27.0812 10.2732 26.7657 10.3322 26.4677 10.4448C26.1536 10.5594 25.8643 10.7331 25.6156 10.9566L25.5502 11.0152L25.8012 11.3789L25.8857 11.3013C26.0891 11.1155 26.3221 10.965 26.5751 10.856C26.8358 10.7451 27.1165 10.6889 27.3998 10.691C27.8154 10.6722 28.223 10.8096 28.5424 11.0762C28.8558 11.4046 29.0122 11.8522 28.9716 12.3042V12.6328H28.1679C27.8638 12.6346 27.56 12.6542 27.2582 12.6914C26.9305 12.7287 26.6103 12.8152 26.3085 12.9483C26.0166 13.0757 25.7585 13.2695 25.5546 13.5142C25.3384 13.7933 25.2282 14.14 25.2436 14.4927C25.2379 14.7458 25.2942 14.9964 25.4077 15.2227C25.511 15.4222 25.658 15.5958 25.8379 15.7305C26.0158 15.8625 26.2156 15.962 26.4282 16.0245ZM27.3769 13.1045C27.6734 13.071 27.9716 13.0537 28.27 13.0528H28.9716V13.462C28.9709 13.7256 28.9414 13.9884 28.8838 14.2457C28.8282 14.5024 28.724 14.746 28.5766 14.9634C28.4258 15.1828 28.2265 15.3644 27.9941 15.4942C27.7138 15.6413 27.3999 15.7127 27.0835 15.7012C26.9221 15.6993 26.7617 15.677 26.6059 15.6348C26.4439 15.5929 26.2902 15.5234 26.1518 15.4292C26.0147 15.3342 25.9012 15.2089 25.8203 15.063C25.7293 14.887 25.6853 14.6906 25.6923 14.4927C25.6778 14.2245 25.7596 13.9599 25.9228 13.7466C26.0883 13.5542 26.2981 13.4049 26.5341 13.3115C26.8039 13.2033 27.0877 13.1336 27.3769 13.1045Z" fill="black"/>
<path fill-rule="evenodd" clip-rule="evenodd" d="M33.8857 16.1202C33.5561 16.1309 33.2289 16.059 32.9341 15.9112C32.6876 15.7799 32.4774 15.5896 32.3223 15.3574C32.1702 15.1248 32.062 14.8663 32.0029 14.5947C31.9414 14.3175 31.9103 14.0345 31.9102 13.7505V10.4316H32.3589V13.7275C32.3598 13.9565 32.3819 14.1848 32.4248 14.4097C32.4653 14.6333 32.5471 14.8474 32.666 15.041C32.7848 15.2313 32.9442 15.3929 33.1328 15.5142C33.3606 15.6475 33.6221 15.7121 33.8857 15.7002C34.1501 15.7014 34.4114 15.6434 34.6504 15.5302C34.891 15.4155 35.1031 15.2487 35.2715 15.042C35.4583 14.8077 35.6015 14.5417 35.6943 14.2568C35.8052 13.9139 35.859 13.5551 35.8535 13.1948V10.4316H36.3018V14.5146C36.3018 14.5986 36.3028 14.7021 36.3066 14.8247L36.3184 15.2012C36.3223 15.3272 36.3281 15.4478 36.335 15.5625C36.3428 15.6772 36.3506 15.7725 36.3574 15.8491L36.3672 15.958H35.9189L35.9102 15.8682C35.9023 15.7891 35.8965 15.6899 35.8936 15.5708L35.8721 14.8804C35.8184 14.9844 35.7577 15.0848 35.6904 15.1807C35.5523 15.3789 35.3824 15.5529 35.1875 15.6958C34.9998 15.8318 34.7923 15.9382 34.5723 16.0112C34.3507 16.0837 34.1189 16.1205 33.8857 16.1202Z" fill="black"/>
<path fill-rule="evenodd" clip-rule="evenodd" d="M20.0138 15.8981C20.3578 16.049 20.73 16.1249 21.1056 16.1207C21.5344 16.1294 21.9589 16.0343 22.343 15.8434C22.7104 15.6487 23.0292 15.3737 23.2756 15.0387L23.3308 14.9654L22.9997 14.6686L22.9343 14.7569C22.7271 15.0457 22.4567 15.2833 22.1438 15.4518C21.8222 15.6143 21.4659 15.6958 21.1057 15.6891C20.4463 15.7121 19.8167 15.414 19.4167 14.8893C19.2303 14.6437 19.0903 14.3662 19.0036 14.0704C18.9229 13.7999 18.8774 13.5201 18.8683 13.2379H23.4987V12.9176C23.4985 12.5907 23.4474 12.2659 23.3473 11.9547C23.2486 11.6442 23.0908 11.3557 22.8825 11.1051C22.6671 10.8501 22.3997 10.644 22.0983 10.5006C21.752 10.3407 21.3737 10.2618 20.9923 10.2701C20.294 10.2639 19.6268 10.5587 19.1613 11.0792C18.9243 11.3464 18.7395 11.6556 18.6163 11.9908C18.4818 12.3581 18.4146 12.7467 18.4181 13.1378C18.4147 13.5428 18.4797 13.9455 18.6105 14.3288C18.7288 14.6785 18.9161 15.001 19.1613 15.277C19.3993 15.541 19.6896 15.7525 20.0138 15.8981ZM23.0577 12.8175H18.8815C18.9241 12.3457 19.0941 11.8942 19.3732 11.5114C19.5489 11.2734 19.7714 11.0738 20.027 10.9249C20.3179 10.7618 20.6477 10.6808 20.9811 10.6906C21.2697 10.6867 21.5561 10.7408 21.8234 10.8497C22.0675 10.9525 22.2867 11.1064 22.4664 11.3009C22.652 11.5061 22.7968 11.7447 22.8932 12.004C22.9902 12.2649 23.0457 12.5394 23.0577 12.8175Z" fill="black"/>
<path fill-rule="evenodd" clip-rule="evenodd" d="M15.0103 28.4611H13.4102V34.1252H13.9863V31.4934H14.9941C15.2599 31.496 15.5248 31.4638 15.7822 31.3977C16.0009 31.342 16.2072 31.2456 16.3901 31.1135C16.5567 30.9895 16.6911 30.8274 16.7822 30.6408C16.8799 30.432 16.9278 30.2033 16.9224 29.9728C16.9278 29.7428 16.8812 29.5144 16.7861 29.3048C16.6974 29.1183 16.5643 28.9563 16.3984 28.8332C16.217 28.7018 16.0119 28.6067 15.7944 28.5529C15.5379 28.4894 15.2745 28.4586 15.0103 28.4611ZM14.9624 31.0051H13.9863L13.9863 28.9572H14.9624C15.319 28.9366 15.6737 29.0216 15.9824 29.2014C16.2312 29.3764 16.3694 29.6695 16.3461 29.9729C16.3637 30.2716 16.2318 30.5596 15.9941 30.7414C15.6872 30.9372 15.3257 31.0296 14.9624 31.0051Z" fill="black"/>
<path fill-rule="evenodd" clip-rule="evenodd" d="M18.0669 30.8136C18.0615 30.6534 18.0537 30.5089 18.043 30.3809H18.563C18.5737 30.4825 18.5815 30.5948 18.5869 30.7169C18.5923 30.8399 18.595 30.9415 18.5952 31.0216H18.6109C18.8364 30.566 19.3028 30.2799 19.8111 30.2852C19.8804 30.2852 19.9429 30.2882 19.9991 30.2931C20.0572 30.2988 20.1147 30.3096 20.171 30.3253L20.0992 30.8448C20.0467 30.8303 19.9931 30.8198 19.939 30.8136C19.8648 30.8027 19.7899 30.7971 19.7149 30.797C19.5724 30.7965 19.4311 30.8237 19.2989 30.877C19.1642 30.931 19.0449 31.0172 18.9513 31.128C18.8438 31.2578 18.7622 31.407 18.711 31.5675C18.6452 31.7752 18.6142 31.9923 18.6192 32.2101V34.1251H18.0753V31.2052C18.0752 31.1036 18.0723 30.9727 18.0669 30.8136Z" fill="black"/>
<path fill-rule="evenodd" clip-rule="evenodd" d="M24.6565 32.261V32.1409C24.6583 31.8963 24.6191 31.653 24.5407 31.4213C24.4673 31.2047 24.3516 31.0049 24.2003 30.8334C24.0446 30.6612 23.8536 30.5246 23.6403 30.433C23.3948 30.3303 23.1305 30.2801 22.8644 30.2856C22.3586 30.2795 21.8726 30.4819 21.5206 30.8451C21.3476 31.0249 21.2115 31.2369 21.1202 31.4691C21.0228 31.719 20.9741 31.9852 20.9767 32.2533C20.9737 32.5219 21.024 32.7884 21.1247 33.0375C21.2179 33.2696 21.355 33.4814 21.5285 33.6615C21.702 33.8394 21.9102 33.9797 22.1403 34.0736C22.3853 34.1736 22.6477 34.2237 22.9123 34.2211C23.2115 34.2231 23.5077 34.1604 23.7805 34.0375C24.0723 33.8967 24.3261 33.6881 24.5207 33.4291L24.1125 33.1097C23.9923 33.2932 23.8324 33.4474 23.6447 33.5609C23.2591 33.7867 22.7901 33.8196 22.3767 33.6497C22.2156 33.5803 22.069 33.4812 21.9445 33.3577C21.8211 33.2338 21.7232 33.0868 21.6565 32.9251C21.5867 32.7578 21.5488 32.5789 21.5446 32.3977H24.6486C24.6538 32.3523 24.6564 32.3067 24.6565 32.261ZM23.7644 31.0891C23.979 31.331 24.0998 31.6418 24.1047 31.9651L21.5525 31.9651C21.563 31.8056 21.6038 31.6495 21.6726 31.5051C21.7416 31.3589 21.8364 31.2263 21.9524 31.1135C22.0704 30.9983 22.2088 30.9059 22.3606 30.8411C22.5199 30.7738 22.6914 30.7399 22.8645 30.7415C23.2008 30.7206 23.5295 30.8475 23.7644 31.0891Z" fill="black"/>
<path fill-rule="evenodd" clip-rule="evenodd" d="M27.2943 30.4889C27.5166 30.3522 27.7731 30.2815 28.0341 30.2848C28.1403 30.2853 28.2463 30.2961 28.3505 30.3171C28.4635 30.3394 28.5717 30.3814 28.6703 30.4411C28.7789 30.5059 28.8762 30.5881 28.9584 30.6842C29.0556 30.8016 29.1327 30.9342 29.1864 31.0768C29.3015 30.835 29.4832 30.631 29.7103 30.4889C29.9485 30.348 30.2217 30.2772 30.4984 30.2848C30.9005 30.2552 31.294 30.4113 31.5663 30.7087C31.8155 31.0272 31.9418 31.4248 31.9223 31.8288V34.1247H31.3783V32.0524C31.3937 31.7208 31.3175 31.3914 31.1581 31.1003C30.9942 30.8517 30.7067 30.7135 30.4101 30.7409C30.2357 30.7353 30.063 30.7768 29.9101 30.861C29.777 30.9381 29.6646 31.0464 29.5825 31.1764C29.4972 31.313 29.4362 31.4634 29.4023 31.6208C29.3647 31.7888 29.3459 31.9604 29.3461 32.1325V34.1247H28.8022V31.9411C28.8036 31.7749 28.7902 31.6089 28.7622 31.445C28.7413 31.3104 28.6938 31.1813 28.6226 31.0651C28.5554 30.9602 28.4594 30.8768 28.3462 30.8249C28.2051 30.7638 28.0521 30.7351 27.8984 30.7409C27.7643 30.7423 27.6319 30.7722 27.5102 30.8288C27.3746 30.8909 27.2544 30.9823 27.1582 31.0964C27.0462 31.2311 26.9606 31.3858 26.9062 31.5524C26.8383 31.763 26.806 31.9835 26.8105 32.2047V34.1247H26.2666V31.2048C26.2666 31.1032 26.2637 30.9723 26.2583 30.8132C26.2529 30.653 26.2451 30.5085 26.2344 30.3806H26.7544C26.7651 30.4821 26.7729 30.5944 26.7783 30.7165C26.7837 30.8395 26.7864 30.9411 26.7866 31.0212H26.8022C26.9113 30.7999 27.0822 30.615 27.2943 30.4889Z" fill="black"/>
<path fill-rule="evenodd" clip-rule="evenodd" d="M34.3159 29.2168C34.3946 29.1473 34.4385 29.0464 34.4355 28.9414C34.4387 28.8361 34.3948 28.7348 34.3159 28.665C34.1695 28.5205 33.9341 28.5205 33.7876 28.665C33.7113 28.7365 33.668 28.8364 33.668 28.9409C33.668 29.0455 33.7113 29.1453 33.7876 29.2168C33.9341 29.3613 34.1695 29.3613 34.3159 29.2168ZM33.7797 34.125H34.3237V30.3809H33.7797V34.125Z" fill="black"/>
<path fill-rule="evenodd" clip-rule="evenodd" d="M38.9298 34.125C38.919 34.0234 38.9112 33.9121 38.9054 33.7891C38.9005 33.6661 38.8975 33.5654 38.8975 33.4853H38.8819C38.7672 33.7118 38.5855 33.8973 38.3614 34.0166C38.1306 34.1505 37.8685 34.2209 37.6016 34.2207C37.1994 34.2508 36.8055 34.0946 36.5333 33.7969C36.2841 33.4783 36.1579 33.0807 36.1778 32.6767V30.3809H36.7218V32.4531C36.72 32.633 36.736 32.8126 36.7696 32.9892C36.7966 33.1361 36.8524 33.2761 36.9337 33.4014C37.0119 33.5166 37.1194 33.609 37.2452 33.6689C37.3998 33.7379 37.5682 33.7707 37.7374 33.7646C37.8819 33.7646 38.0249 33.7347 38.1573 33.6767C38.2972 33.6159 38.4217 33.5245 38.5216 33.4092C38.636 33.2754 38.7229 33.1205 38.7774 32.9531C38.8456 32.7426 38.8779 32.522 38.8731 32.3008V30.3809H39.4181V33.3008C39.4181 33.4023 39.4201 33.5332 39.4259 33.6934C39.4307 33.8525 39.4386 33.9971 39.4493 34.125H38.9298Z" fill="black"/>
<path fill-rule="evenodd" clip-rule="evenodd" d="M42.3252 30.4889C42.5477 30.3522 42.8044 30.2815 43.0654 30.2848C43.1717 30.2853 43.2777 30.2961 43.3818 30.3171C43.4947 30.3394 43.6028 30.3814 43.7012 30.4411C43.8099 30.5058 43.9072 30.5879 43.9893 30.6842C44.0865 30.8016 44.1637 30.9343 44.2178 31.0768C44.3327 30.835 44.5143 30.631 44.7412 30.4889C44.9795 30.3481 45.2526 30.2774 45.5293 30.2848C45.9315 30.2552 46.3252 30.4113 46.5977 30.7087C46.8467 31.0273 46.9729 31.4248 46.9531 31.8288V34.1247H46.4092V32.0524C46.4245 31.7209 46.3484 31.3916 46.1894 31.1003C46.0254 30.8517 45.7379 30.7136 45.4414 30.7409C45.267 30.7352 45.0942 30.7767 44.9414 30.861C44.8083 30.9383 44.6957 31.0465 44.6133 31.1764C44.5282 31.3131 44.4674 31.4634 44.4336 31.6208C44.3959 31.7887 44.3769 31.9604 44.377 32.1325V34.1247H43.833V31.9411C43.8346 31.7749 43.8212 31.6088 43.793 31.445C43.7721 31.3104 43.7246 31.1813 43.6534 31.0651C43.5864 30.96 43.4904 30.8766 43.377 30.8249C43.236 30.7639 43.0832 30.7352 42.9297 30.7409C42.7954 30.7423 42.6629 30.7722 42.5411 30.8288C42.4055 30.8908 42.2854 30.9822 42.1895 31.0964C42.0771 31.2308 41.9915 31.3856 41.9375 31.5524C41.8694 31.763 41.837 31.9835 41.8418 32.2047V34.1247H41.2979V31.2048C41.2979 31.1032 41.2949 30.9723 41.2891 30.8132C41.2842 30.653 41.2764 30.5085 41.2656 30.3806H41.7852C41.7959 30.4821 41.8037 30.5944 41.8096 30.7165C41.8145 30.8395 41.8174 30.9411 41.8174 31.0212H41.833C41.9424 30.8001 42.1133 30.6153 42.3252 30.4889Z" fill="black"/>
</svg>
