<svg width="67" height="42" viewBox="0 0 67 42" fill="none" xmlns="http://www.w3.org/2000/svg">
<rect x="0.5" y="0.5" width="66" height="41" rx="3.5" fill="white" stroke="white"/>
<path d="M8.05078 20.7285C8.05325 21.5805 8.31415 22.4117 8.799 23.1123C9.28384 23.8129 9.96983 24.3499 10.7663 24.6523V16.8047C9.96983 17.1072 9.28384 17.6442 8.799 18.3448C8.31415 19.0453 8.05325 19.8765 8.05078 20.7285Z" fill="#006095"/>
<path d="M13.8086 16.793V24.6406C14.6096 24.3433 15.3004 23.808 15.7882 23.1066C16.2761 22.4051 16.5375 21.5712 16.5375 20.7168C16.5375 19.8624 16.2761 19.0285 15.7882 18.327C15.3004 17.6256 14.6096 17.0903 13.8086 16.793Z" fill="#006095"/>
<path d="M15.7119 13.479H12.2739C10.3683 13.4292 8.52097 14.1383 7.13827 15.4505C5.75556 16.7627 4.95075 18.5704 4.90089 20.476C4.89815 20.581 4.89771 20.686 4.89956 20.791C4.92909 22.7205 5.72144 24.5598 7.10335 25.9067C8.48525 27.2536 10.3443 27.9985 12.2739 27.9785H15.7119C17.6674 27.9972 19.5546 27.2601 20.9796 25.9209C22.4047 24.5817 23.2576 22.7439 23.3602 20.791C23.3178 18.8093 22.4899 16.9255 21.0586 15.5542C19.6273 14.1828 17.7099 13.4362 15.7281 13.4786L15.7119 13.479ZM12.2864 27.3557C10.9754 27.3434 9.69744 26.9432 8.61356 26.2057C7.52968 25.4682 6.68841 24.4263 6.1958 23.2113C5.70319 21.9964 5.5813 20.6628 5.84548 19.3787C6.10966 18.0946 6.7481 16.9174 7.68031 15.9956C8.61251 15.0738 9.79676 14.4486 11.0838 14.1988C12.3708 13.9491 13.7029 14.0859 14.9122 14.5921C16.1216 15.0983 17.154 15.9512 17.8793 17.0433C18.6046 18.1354 18.9904 19.4178 18.988 20.7288C18.9864 21.6049 18.8114 22.472 18.4731 23.2802C18.1349 24.0884 17.64 24.8216 17.017 25.4376C16.394 26.0536 15.6553 26.5403 14.8434 26.8695C14.0315 27.1987 13.1624 27.3639 12.2864 27.3557Z" fill="#006095"/>
<path d="M25.7022 16.5934C25.7022 15.9082 25.341 15.9581 25.0046 15.9456V15.7463H27.2344C27.5988 15.7084 27.9672 15.7426 28.3184 15.8471C28.6696 15.9515 28.9969 16.1242 29.2814 16.3551C29.5659 16.586 29.8022 16.8707 29.9766 17.1929C30.1511 17.5151 30.2605 17.8685 30.2984 18.233C30.3046 18.2925 30.3088 18.3522 30.3112 18.412C30.3112 19.1594 29.8628 21.0653 27.1472 21.0653H25.0046V20.866C25.4655 20.866 25.6898 20.866 25.7022 20.2805V16.5934ZM26.4621 20.1809C26.4621 20.7663 26.8856 20.8286 27.2593 20.8286C27.5675 20.8416 27.8748 20.7875 28.16 20.67C28.4453 20.5525 28.7016 20.3745 28.9113 20.1483C29.1209 19.922 29.2789 19.6529 29.3744 19.3596C29.4699 19.0663 29.5005 18.7557 29.4641 18.4494C29.491 18.1229 29.448 17.7943 29.3379 17.4857C29.2279 17.1771 29.0532 16.8956 28.8257 16.6598C28.5982 16.424 28.323 16.2395 28.0185 16.1185C27.7141 15.9975 27.3873 15.9428 27.06 15.9581C26.8609 15.9459 26.6612 15.9459 26.4621 15.9581V20.1809ZM30.5852 20.8784H30.7347C30.9464 20.8784 31.0959 20.8784 31.0959 20.6293V18.5615C31.0959 18.2252 30.9838 18.1753 30.6973 18.0259V17.9013C30.9772 17.8285 31.2519 17.7369 31.5195 17.6273H31.6565C31.6565 17.6273 31.7187 17.6273 31.7187 17.7394V20.6666C31.7187 20.9157 31.8807 20.9157 32.0924 20.9157H32.2294V21.1151H30.5852V20.8784ZM31.4073 16.419C31.3081 16.4128 31.2148 16.3698 31.1456 16.2983C31.0765 16.2269 31.0366 16.1322 31.0336 16.0328C31.0398 15.9369 31.0815 15.8467 31.1506 15.7799C31.2197 15.7131 31.3113 15.6745 31.4073 15.6716C31.5054 15.6715 31.5996 15.7099 31.6696 15.7786C31.7396 15.8474 31.7798 15.9409 31.7814 16.0389C31.7831 16.137 31.7461 16.2318 31.6785 16.3029C31.6109 16.3739 31.518 16.4156 31.42 16.4188C31.4158 16.4189 31.4116 16.419 31.4073 16.419ZM32.9644 18.5989C32.9644 18.3249 32.8772 18.2501 32.516 18.1006V17.9511C32.8597 17.8526 33.1968 17.7319 33.525 17.5899V18.1629C33.8935 17.8295 34.3623 17.6279 34.8578 17.5899C35.5056 17.5899 35.7422 18.0632 35.7422 18.6612V20.6293C35.7422 20.8784 35.9042 20.8784 36.1284 20.8784H36.2654V21.0777H34.671V20.8784H34.7955C35.0073 20.8784 35.1567 20.8784 35.1567 20.6293V18.6487C35.1567 18.2127 34.8952 18.001 34.4592 18.001C34.1338 18.0491 33.8256 18.1776 33.5623 18.3747V20.6293C33.5623 20.8784 33.7367 20.8784 33.9484 20.8784H34.0854V21.0777H32.4537V20.8784H32.5907C32.8025 20.8784 32.9644 20.8784 32.9644 20.6293L32.9644 18.5989ZM36.9007 18.9726C36.8728 19.1166 36.8728 19.2646 36.9007 19.4086C36.8798 19.7311 36.985 20.0491 37.1942 20.2955C37.4034 20.5419 37.7001 20.6973 38.0218 20.729C38.2217 20.7189 38.4174 20.6684 38.5972 20.5807C38.7771 20.4929 38.9372 20.3696 39.0682 20.2183L39.1678 20.3304C39.0179 20.5774 38.8104 20.7846 38.5632 20.9343C38.3159 21.0839 38.0362 21.1716 37.7478 21.1899C37.5467 21.183 37.3489 21.1366 37.1657 21.0533C36.9826 20.97 36.8176 20.8515 36.6803 20.7044C36.5429 20.5574 36.4359 20.3847 36.3653 20.1963C36.2947 20.0079 36.2618 19.8075 36.2687 19.6064C36.2701 19.5652 36.2732 19.5242 36.2779 19.4833C36.2476 19.2596 36.2617 19.0321 36.3193 18.8139C36.377 18.5956 36.477 18.3908 36.6138 18.2112C36.7506 18.0317 36.9214 17.8808 37.1165 17.7672C37.3116 17.6536 37.5272 17.5796 37.7509 17.5493C37.7788 17.5455 37.8068 17.5424 37.8349 17.54C37.9985 17.54 38.1604 17.5723 38.3116 17.6349C38.4627 17.6975 38.6 17.7892 38.7157 17.9049C38.8314 18.0206 38.9231 18.1579 38.9857 18.309C39.0483 18.4601 39.0805 18.6221 39.0805 18.7857V18.9227H39.0058L36.9007 18.9726ZM38.2585 18.7234C38.4453 18.7234 38.4703 18.6238 38.4703 18.5366C38.4768 18.4518 38.4666 18.3665 38.4402 18.2856C38.4138 18.2048 38.3718 18.1299 38.3165 18.0653C38.2611 18.0007 38.1936 17.9476 38.1178 17.9091C38.0419 17.8706 37.9592 17.8474 37.8744 17.8408C37.853 17.8391 37.8316 17.8385 37.8101 17.839C37.3367 17.839 37.0128 18.1753 36.9256 18.7234H38.2585ZM39.3173 20.8784H39.5166C39.7408 20.8784 39.8903 20.8784 39.8903 20.6293V18.4868C39.8903 18.2501 39.6038 18.2003 39.4917 18.138V18.0259C40.0522 17.7892 40.3637 17.5899 40.4259 17.5899C40.4882 17.5899 40.5007 17.5899 40.5007 17.6895V18.3746C40.6875 18.0756 41.0114 17.5898 41.4848 17.5898C41.5936 17.5832 41.7006 17.62 41.7822 17.6923C41.8639 17.7645 41.9135 17.8662 41.9201 17.9751L41.9207 17.9885C41.9274 18.0873 41.8945 18.1848 41.8293 18.2595C41.7641 18.3341 41.6719 18.3798 41.573 18.3864L41.5595 18.3871C41.3228 18.3871 41.3228 18.2002 41.0488 18.2002C40.8946 18.2212 40.7532 18.2969 40.6502 18.4135C40.5473 18.5302 40.4898 18.68 40.4882 18.8355V20.6293C40.4882 20.8784 40.6502 20.8784 40.8619 20.8784H41.2854V21.0777H39.3173L39.3173 20.8784ZM42.2695 20.0189C42.2907 20.2648 42.4013 20.4944 42.5803 20.6643C42.7594 20.8341 42.9945 20.9325 43.2411 20.9407C43.702 20.9407 43.864 20.6667 43.864 20.4051C43.864 19.5082 42.1948 19.7947 42.1948 18.5615C42.2034 18.4244 42.2389 18.2903 42.2993 18.1668C42.3597 18.0434 42.4439 17.9331 42.5469 17.8422C42.6499 17.7513 42.7699 17.6816 42.8999 17.6371C43.0299 17.5925 43.1674 17.574 43.3045 17.5826C43.3291 17.5842 43.3537 17.5866 43.3781 17.5898C43.6858 17.599 43.9877 17.6756 44.2625 17.8141V18.5864H44.138C44.1334 18.4834 44.1086 18.3824 44.065 18.289C44.0213 18.1956 43.9597 18.1118 43.8837 18.0422C43.8077 17.9726 43.7187 17.9187 43.6218 17.8836C43.525 17.8484 43.4221 17.8326 43.3191 17.8372L43.2909 17.839C43.2211 17.8307 43.1503 17.8362 43.0826 17.8552C43.0148 17.8743 42.9515 17.9065 42.8963 17.95C42.841 17.9935 42.7948 18.0475 42.7604 18.1088C42.726 18.1701 42.704 18.2377 42.6957 18.3075L42.693 18.3372C42.693 19.2341 44.4868 18.9601 44.4868 20.1559C44.4868 20.6542 44.0757 21.1898 43.1539 21.1898C42.8264 21.1765 42.5065 21.087 42.2197 20.9282L42.1325 20.0562L42.2695 20.0189ZM51.4251 17.129H51.2383C51.2123 16.9394 51.1492 16.7567 51.0526 16.5915C50.956 16.4263 50.8279 16.2817 50.6754 16.166C50.5229 16.0503 50.3492 15.9657 50.1641 15.9172C49.9789 15.8686 49.786 15.857 49.5964 15.883L49.594 15.8833C49.2867 15.8815 48.9825 15.9447 48.7013 16.0687C48.4201 16.1928 48.1683 16.3749 47.9625 16.6031C47.7566 16.8313 47.6013 17.1004 47.5068 17.3929C47.4123 17.6853 47.3807 17.9944 47.4141 18.2999C47.3732 18.9589 47.5955 19.6072 48.0323 20.1024C48.4691 20.5975 49.0845 20.8991 49.7435 20.9407C50.1171 20.9447 50.4795 20.8131 50.7635 20.5703C51.0475 20.3275 51.2339 19.99 51.2881 19.6203H51.475L51.2881 20.7414C50.7551 20.9842 50.1794 21.1197 49.594 21.14C49.2066 21.1707 48.817 21.1183 48.4514 20.9862C48.0859 20.8542 47.7528 20.6455 47.4744 20.3742C47.196 20.1029 46.9789 19.7753 46.8374 19.4133C46.696 19.0512 46.6335 18.6632 46.6543 18.275C46.6867 17.5326 47.0113 16.8331 47.5573 16.3291C48.1033 15.8251 48.8265 15.5574 49.5691 15.5844C50.1943 15.617 50.8093 15.756 51.3878 15.9955L51.4251 17.129ZM51.6992 20.866H51.8486C52.0604 20.866 52.2223 20.866 52.2223 20.6169V16.3816C52.2223 15.8834 52.0978 15.8709 51.8113 15.7837V15.6591C52.0851 15.5724 52.3517 15.4641 52.6085 15.3352C52.6569 15.2968 52.7117 15.2673 52.7704 15.248V20.6293C52.7704 20.8784 52.9448 20.8784 53.1566 20.8784H53.2811V21.0777H51.6991L51.6992 20.866ZM56.6818 20.6418C56.6818 20.7788 56.769 20.7913 56.8936 20.7913H57.2174V20.9532C56.8416 20.9991 56.4706 21.0784 56.1088 21.1899V20.5795C55.7471 20.9544 55.2585 21.181 54.7386 21.2148C54.6208 21.219 54.5035 21.1979 54.3946 21.1528C54.2857 21.1077 54.1877 21.0398 54.1074 20.9535C54.0271 20.8673 53.9662 20.7648 53.929 20.653C53.8917 20.5412 53.879 20.4226 53.8915 20.3054V18.3248C53.8915 18.138 53.8915 17.9387 53.4306 17.9013V17.7643H54.4272C54.5144 17.7643 54.5144 17.7643 54.5144 17.9885V19.9566C54.5144 20.1808 54.5144 20.841 55.187 20.841C55.5339 20.7845 55.8554 20.6238 56.1088 20.3801V18.2376C56.1088 18.0881 55.7476 18.0009 55.4611 17.9262V17.7892C55.8784 17.7816 56.2947 17.7442 56.7067 17.6771C56.8188 17.6771 56.7067 17.6771 56.7067 17.8141L56.6818 20.6418ZM58.214 18.1505C58.522 17.8421 58.9265 17.6486 59.36 17.6024C59.556 17.6116 59.7484 17.6594 59.926 17.743C60.1036 17.8265 60.263 17.9443 60.3951 18.0895C60.5273 18.2347 60.6295 18.4045 60.696 18.5892C60.7625 18.7738 60.7919 18.9698 60.7827 19.1659L60.78 19.2093C60.797 19.7152 60.6146 20.2076 60.2721 20.5803C59.9296 20.9531 59.4545 21.1765 58.9489 21.2023C58.5764 21.1993 58.2096 21.1098 57.8776 20.9407L57.6409 21.1151L57.4915 21.0279C57.5561 20.5782 57.5894 20.1245 57.5911 19.6701V16.3816C57.5911 15.8834 57.479 15.8709 57.1801 15.7837V15.6591C57.4539 15.5724 57.7205 15.4641 57.9773 15.3352L58.1517 15.248C58.1517 15.248 58.214 15.248 58.214 15.3602L58.214 18.1505ZM58.214 20.2307C58.2261 20.4337 58.313 20.625 58.458 20.7676C58.6029 20.9103 58.7956 20.9941 58.9987 21.003C59.8209 21.003 60.1697 20.2058 60.1697 19.5207C60.1858 19.1597 60.0673 18.8057 59.8371 18.5272C59.6069 18.2487 59.2815 18.0656 58.924 18.0134C58.6473 18.0422 58.3905 18.1706 58.2015 18.3747L58.214 20.2307ZM24.9922 25.5123H25.0545C25.204 25.5123 25.3534 25.5123 25.3534 25.2756V23.0957C25.3534 22.884 25.204 22.859 25.0545 22.859H24.9922V22.7345H26.2628V22.859C26.1133 22.859 25.9514 22.859 25.9514 23.0957V25.2756C25.9514 25.4874 26.1133 25.5123 26.2628 25.5123V25.6369H24.9922L24.9922 25.5123ZM29.1402 24.8147V23.2203C29.1402 22.8715 28.9035 22.8217 28.779 22.8217H28.6918V22.6971H29.8004V22.8216C29.6136 22.8216 29.4267 22.8216 29.4267 23.3573V25.2382C29.4139 25.3791 29.4139 25.5208 29.4267 25.6617H29.2648L27.0725 23.3075V25.0265C27.0725 25.3877 27.1348 25.5123 27.4586 25.5123H27.5334V25.6368H26.4247V25.5123C26.7112 25.5123 26.7984 25.313 26.7984 24.9766V23.2203C26.7984 23.1712 26.7888 23.1226 26.77 23.0773C26.7513 23.0319 26.7238 22.9907 26.6891 22.956C26.6544 22.9212 26.6132 22.8937 26.5679 22.8749C26.5226 22.8561 26.474 22.8464 26.4249 22.8464C26.4207 22.8464 26.4165 22.8464 26.4122 22.8466V22.722H27.2717L29.1402 24.8147ZM30.3859 22.9462C30.0745 22.9462 30.062 23.021 29.9997 23.3199H29.8751V22.9712C29.8813 22.855 29.8813 22.7386 29.8751 22.6224H29.9748C29.9748 22.7469 30.1118 22.7345 30.2239 22.7345H32.3789C32.491 22.7345 32.6032 22.7345 32.6032 22.6099H32.7028V22.9462C32.6966 23.0583 32.6966 23.1706 32.7028 23.2826H32.5782C32.5782 23.1331 32.5782 22.884 32.2668 22.884H31.5817V25.0888C31.5817 25.4127 31.7312 25.45 31.9305 25.45H32.0052V25.5746H30.6226V25.45H30.6973C30.934 25.45 31.0461 25.45 31.0461 25.1013V22.9463L30.3859 22.9462ZM32.8772 25.5123H32.9395C33.089 25.5123 33.2509 25.5123 33.2509 25.2756V23.0957C33.2509 22.884 33.089 22.859 32.9395 22.859H32.8772V22.7345H34.9948C34.9824 22.9461 34.9824 23.1582 34.9948 23.3698H34.8703C34.8703 23.0958 34.808 22.884 34.3595 22.884H33.7865V23.9677H34.2848C34.5339 23.9677 34.5838 23.8307 34.6087 23.6064H34.7955V24.5656H34.6709C34.6709 24.3165 34.6709 24.1545 34.3471 24.1545H33.8488V25.1137C33.8488 25.3877 34.0855 25.3877 34.3595 25.3877C34.8578 25.3877 35.082 25.3877 35.2065 24.877H35.3186C35.2897 25.1002 35.2439 25.3209 35.1816 25.5372H32.9395L32.8772 25.5123ZM35.9042 23.2203C35.9042 22.9089 35.7298 22.8964 35.6052 22.8964H35.5305V22.7719H36.8509C37.3741 22.7719 37.8474 22.9213 37.8474 23.5068C37.8416 23.6745 37.7813 23.8357 37.6756 23.966C37.57 24.0964 37.4248 24.1888 37.262 24.2293L37.9844 25.3006C38.0224 25.374 38.0795 25.4359 38.1496 25.4798C38.2197 25.5236 38.3004 25.5477 38.3831 25.5497V25.6743H37.5858C37.2666 25.245 36.9753 24.7956 36.7138 24.3289H36.4398V25.2134C36.4398 25.5372 36.5893 25.5497 36.7762 25.5497H36.8509V25.6743H35.5305V25.5496H35.6052C35.7547 25.5496 35.9042 25.4749 35.9042 25.3254L35.9042 23.2203ZM36.4398 24.1795H36.6391C37.0626 24.1795 37.2869 24.0175 37.2869 23.5317C37.2924 23.4501 37.2804 23.3683 37.2517 23.2918C37.2229 23.2152 37.1782 23.1457 37.1203 23.0879C37.0625 23.0301 36.993 22.9853 36.9165 22.9566C36.8399 22.9278 36.7581 22.9158 36.6765 22.9213C36.598 22.9107 36.5184 22.9107 36.4398 22.9213V24.1795ZM41.2232 24.8521V23.2203C41.2232 22.8715 40.9865 22.8217 40.8619 22.8217H40.7747V22.6971H41.8834V22.8216H41.8211C41.6467 22.8216 41.4474 22.8216 41.4474 23.3573V25.2382C41.4346 25.3791 41.4346 25.5208 41.4474 25.6617H41.2854L39.1554 23.3074V25.0264C39.1554 25.3877 39.2301 25.5122 39.5415 25.5122H39.6162V25.6368H38.5076V25.5122H38.5325C38.819 25.5122 38.9062 25.3129 38.9062 24.9766V23.2203C38.9062 23.1212 38.8668 23.0261 38.7967 22.956C38.7267 22.8859 38.6316 22.8466 38.5325 22.8466V22.722H39.392L41.2232 24.8521ZM42.556 25.0763C42.5082 25.1793 42.4747 25.2882 42.4564 25.4002C42.4564 25.5248 42.6307 25.5497 42.7678 25.5497V25.6743H41.8086V25.5496C41.89 25.5479 41.9688 25.5204 42.0337 25.4712C42.0986 25.422 42.1462 25.3535 42.1699 25.2756L42.8425 23.3698C42.9133 23.2053 42.9676 23.0342 43.0044 22.859C43.1333 22.8106 43.2582 22.7523 43.3781 22.6846H43.5151V22.7843L44.2875 24.9517C44.3108 25.1009 44.3615 25.2445 44.4369 25.3753C44.4603 25.4308 44.5006 25.4775 44.552 25.5088C44.6034 25.5401 44.6634 25.5544 44.7234 25.5497V25.6742H43.5152V25.5496C43.6024 25.5496 43.7767 25.5496 43.7767 25.4251C43.7535 25.3238 43.7244 25.2239 43.6896 25.1261L43.5276 24.6402H42.5685L42.556 25.0763ZM43.1664 23.2203L42.7802 24.3913H43.5152L43.1664 23.2203ZM44.9726 22.9587C44.6487 22.9587 44.6363 23.0335 44.574 23.3324H44.4494V22.9836C44.4618 22.8677 44.4618 22.7508 44.4494 22.6348H44.5491C44.5491 22.7594 44.6861 22.7469 44.7982 22.7469H46.9656C47.0778 22.7469 47.1774 22.7469 47.1899 22.6224H47.2895V23.295H47.1649C47.1649 23.1455 47.1649 22.8964 46.8535 22.8964H46.1684V25.1012C46.1684 25.4251 46.3054 25.4625 46.5047 25.4625H46.5919V25.587H45.1968V25.4625H45.284C45.5082 25.4625 45.6328 25.4625 45.6328 25.1137V22.9462L44.9726 22.9587ZM47.4639 25.5248C47.6134 25.5248 47.7753 25.5248 47.7753 25.2881V23.0957C47.7753 22.8839 47.6134 22.859 47.4639 22.859V22.7345H48.7469V22.859H48.6846C48.5351 22.859 48.3732 22.859 48.3732 23.0957V25.2756C48.3732 25.4874 48.5351 25.5123 48.6846 25.5123H48.7469V25.6369H47.4639V25.5248ZM50.4161 22.6846C50.6083 22.6666 50.8022 22.6866 50.9866 22.7435C51.1711 22.8003 51.3425 22.893 51.4912 23.0161C51.6398 23.1393 51.7627 23.2905 51.853 23.4611C51.9432 23.6318 51.9989 23.8185 52.0169 24.0107C52.0202 24.0461 52.0223 24.0816 52.023 24.1171C52.0312 24.3182 51.9997 24.5189 51.9303 24.7077C51.8609 24.8966 51.755 25.0699 51.6187 25.2179C51.4823 25.3658 51.3181 25.4854 51.1355 25.5699C50.9529 25.6544 50.7554 25.7021 50.5544 25.7103C50.5332 25.7112 50.512 25.7116 50.4909 25.7116C50.1019 25.7381 49.7184 25.609 49.4247 25.3527C49.1309 25.0964 48.951 24.734 48.9245 24.345C48.9216 24.3024 48.9206 24.2596 48.9214 24.2168C48.9147 23.8138 49.0684 23.4247 49.3487 23.135C49.6289 22.8453 50.0128 22.6788 50.4157 22.6722C50.4325 22.6719 50.4492 22.6719 50.466 22.6722L50.4161 22.6846ZM50.4784 25.5247C51.2881 25.5247 51.4251 24.8147 51.4251 24.2043C51.4251 23.5939 51.1012 22.8715 50.4037 22.8715C49.7061 22.8715 49.457 23.5192 49.457 24.1171C49.5068 24.8022 49.8431 25.5123 50.5282 25.5123L50.4784 25.5247ZM54.8382 24.8272V23.2203C54.8459 23.1683 54.8417 23.1153 54.826 23.0651C54.8103 23.015 54.7835 22.969 54.7476 22.9307C54.7117 22.8924 54.6676 22.8627 54.6185 22.8438C54.5695 22.8249 54.5169 22.8173 54.4645 22.8216H54.3773V22.6971H55.4735V22.8216C55.2991 22.8216 55.0998 22.8216 55.0998 23.3573V25.6617H54.9752L52.8202 23.2701V24.9891C52.8202 25.3503 52.8825 25.4749 53.2064 25.4749H53.2811V25.5994H52.1725V25.4749C52.459 25.4749 52.5462 25.2756 52.5462 24.9393V23.2203C52.543 23.12 52.5008 23.025 52.4288 22.9553C52.3567 22.8855 52.2603 22.8465 52.16 22.8466V22.722H53.0071L54.8382 24.8272ZM56.1586 25.0514C56.1198 25.1565 56.0906 25.2649 56.0714 25.3752C56.0714 25.4998 56.2458 25.5247 56.3828 25.5247V25.6493H55.4237V25.5247C55.5051 25.523 55.5839 25.4955 55.6487 25.4463C55.7136 25.3971 55.7613 25.3287 55.7849 25.2507L56.4576 23.3449C56.5188 23.1782 56.5688 23.0075 56.607 22.8341C56.7408 22.7879 56.8701 22.7296 56.9932 22.6597V22.7594L57.7655 24.9268C57.7888 25.076 57.8395 25.2196 57.915 25.3504C57.9343 25.4061 57.9719 25.4536 58.0216 25.4852C58.0714 25.5169 58.1303 25.5308 58.189 25.5248V25.6493H56.9932V25.5248C57.0929 25.5248 57.2548 25.5248 57.2548 25.4002C57.2377 25.2974 57.2085 25.197 57.1676 25.1012L57.0057 24.6154H56.3455L56.1586 25.0514ZM56.8188 23.2203L56.4202 24.3912H57.2174L56.8188 23.2203ZM59.497 25.2383C59.497 25.4002 59.6091 25.45 59.7461 25.4749C59.9325 25.4933 60.1203 25.4933 60.3067 25.4749C60.4628 25.4523 60.6049 25.3723 60.7053 25.2507C60.7624 25.1583 60.8045 25.0574 60.8298 24.9517H60.9544L60.8049 25.6617H58.5876V25.5371C58.7371 25.5371 58.8991 25.5371 58.8991 25.2506V23.0956C58.8991 22.8839 58.7371 22.859 58.5876 22.859V22.7344H59.8831V22.859H59.7835C59.6216 22.859 59.497 22.859 59.497 23.0832L59.497 25.2383Z" fill="black"/>
</svg>
