<svg width="67" height="42" viewBox="0 0 67 42" fill="none" xmlns="http://www.w3.org/2000/svg">
<rect x="0.5" y="0.5" width="66" height="41" rx="3.5" fill="white" stroke="white"/>
<path d="M66.0008 21.0996C64.1008 22.3996 44.7008 35.0996 10.8008 40.9996H63.7008C64.3281 40.9479 64.9129 40.662 65.339 40.1988C65.7652 39.7356 66.0014 39.129 66.0008 38.4996V21.0996Z" fill="#F48120"/>
<path d="M8.25487 12.3172H5.69922V21.2701H8.25487C9.4079 21.3293 10.5427 20.9645 11.4454 20.2446C12.179 19.6385 12.7008 18.8147 12.9351 17.8923C13.1695 16.97 13.1043 15.997 12.749 15.1142C12.3937 14.2314 11.7667 13.4845 10.9588 12.9817C10.1508 12.4789 9.20385 12.2461 8.25487 12.3172ZM10.3059 19.0563C9.63084 19.5954 8.77322 19.8521 7.913 19.7725H7.441V13.8473H7.91306C8.77402 13.7602 9.63442 14.0178 10.3059 14.5636C10.6122 14.8482 10.8557 15.1935 11.0211 15.5774C11.1864 15.9614 11.27 16.3756 11.2663 16.7937C11.2701 17.2165 11.1867 17.6356 11.0215 18.0249C10.8563 18.4142 10.6127 18.7652 10.3059 19.0563H10.3059Z" fill="#231F20"/>
<path d="M15.6128 12.3164H13.8711V21.2693H15.6128V12.3164Z" fill="#231F20"/>
<path d="M19.88 15.7512C18.8382 15.3605 18.5289 15.1001 18.5289 14.628C18.5289 14.0583 19.0823 13.635 19.8311 13.635C20.1055 13.6388 20.3752 13.7071 20.6184 13.8344C20.8616 13.9616 21.0714 14.1443 21.231 14.3675L22.1426 13.1792C21.4162 12.5342 20.477 12.1805 19.5056 12.1862C19.1589 12.1658 18.8115 12.2138 18.4834 12.3275C18.1552 12.4413 17.8527 12.6186 17.5931 12.8492C17.3334 13.0799 17.1218 13.3595 16.9702 13.672C16.8186 13.9844 16.73 14.3237 16.7095 14.6704C16.7078 14.6997 16.7065 14.7289 16.7058 14.7582C16.7058 15.9953 17.2755 16.6302 18.9033 17.2162C19.317 17.3538 19.7196 17.5225 20.1079 17.7208C20.2668 17.818 20.3981 17.9543 20.4893 18.1168C20.5805 18.2792 20.6285 18.4623 20.6288 18.6486C20.6289 18.9859 20.4949 19.3095 20.2565 19.548C20.018 19.7866 19.6945 19.9207 19.3572 19.9208C19.3307 19.9208 19.3042 19.9199 19.2777 19.9183C18.88 19.9223 18.4895 19.8125 18.1521 19.602C17.8147 19.3915 17.5444 19.0889 17.3732 18.73L16.25 19.8206C16.5645 20.357 17.0177 20.7988 17.5619 21.0995C18.1061 21.4003 18.7213 21.5489 19.3428 21.5298C20.1089 21.5824 20.8644 21.3285 21.4433 20.8239C22.0221 20.3194 22.3769 19.6056 22.4294 18.8396C22.4353 18.7543 22.4373 18.669 22.4356 18.5836C22.4682 17.1348 21.8659 16.4838 19.88 15.7512Z" fill="#231F20"/>
<path d="M23.0041 16.8092C22.9933 18.0377 23.471 19.2201 24.332 20.0963C25.193 20.9726 26.3668 21.4709 27.5952 21.4817C27.6384 21.4821 27.6815 21.4819 27.7247 21.481C28.4829 21.4836 29.2307 21.305 29.9059 20.9601V18.9091C29.6465 19.213 29.3247 19.4575 28.9623 19.6261C28.6 19.7946 28.2057 19.8832 27.8061 19.8858C27.0299 19.9092 26.2762 19.6233 25.7108 19.0909C25.1454 18.5586 24.8146 17.8235 24.7913 17.0473C24.7887 16.9625 24.7898 16.8778 24.7946 16.793C24.7671 16.005 25.0538 15.2383 25.5916 14.6616C26.1293 14.0849 26.8742 13.7455 27.6622 13.718L27.7246 13.7165C28.1395 13.7177 28.5491 13.8085 28.9256 13.9827C29.302 14.1569 29.6365 14.4103 29.9059 14.7257V12.6747C29.2479 12.3117 28.5087 12.1213 27.7572 12.1213C26.5071 12.1108 25.304 12.5975 24.4126 13.4741C23.5213 14.3507 23.0147 15.5455 23.0042 16.7957L23.0041 16.8092Z" fill="#231F20"/>
<path d="M43.7746 18.3394L41.3816 12.3164H39.4766L43.2696 21.4974H44.2136L48.0716 12.3164H46.1836L43.7746 18.3394Z" fill="#231F20"/>
<path d="M48.8711 21.2694H53.8191V19.7554H50.6131V17.3464H53.7051V15.8324H50.6131V13.8464H53.8191V12.3164H48.8711V21.2694Z" fill="#231F20"/>
<path d="M60.7351 14.971C60.7351 13.2943 59.5793 12.334 57.5609 12.334H54.9727V21.2869H56.7144V17.6894H56.9423L59.3514 21.2869H61.5001L58.684 17.5104C59.2835 17.4245 59.8282 17.1149 60.2087 16.6438C60.5892 16.1728 60.7773 15.5751 60.7351 14.971ZM57.2191 16.4523H56.7145V13.7339H57.2517C58.3423 13.7339 58.9283 14.1897 58.9283 15.0687C58.9283 15.9639 58.3422 16.4523 57.219 16.4523L57.2191 16.4523Z" fill="#231F20"/>
<path d="M35.2616 21.5955C37.8957 21.5955 40.0311 19.4602 40.0311 16.8261C40.0311 14.192 37.8957 12.0566 35.2616 12.0566C32.6275 12.0566 30.4922 14.192 30.4922 16.8261C30.4922 19.4602 32.6275 21.5955 35.2616 21.5955Z" fill="url(#paint0_linear)"/>
<path opacity="0.65" d="M35.2616 21.5955C37.8957 21.5955 40.0311 19.4602 40.0311 16.8261C40.0311 14.192 37.8957 12.0566 35.2616 12.0566C32.6275 12.0566 30.4922 14.192 30.4922 16.8261C30.4922 19.4602 32.6275 21.5955 35.2616 21.5955Z" fill="url(#paint1_linear)"/>
<path d="M61.8425 12.6582C61.8425 12.4955 61.7285 12.4141 61.5495 12.4141H61.2891V13.1954H61.4844V12.8861L61.7123 13.1954H61.9402L61.6797 12.8698C61.7283 12.8611 61.7718 12.8345 61.8019 12.7954C61.832 12.7563 61.8465 12.7074 61.8425 12.6582ZM61.517 12.7722H61.4844V12.5606H61.517C61.6146 12.5606 61.6634 12.5932 61.6635 12.6583C61.6635 12.7396 61.6146 12.7722 61.517 12.7722Z" fill="#231F20"/>
<path d="M61.5821 12.1211C61.4469 12.1211 61.3147 12.1612 61.2023 12.2363C61.0899 12.3114 61.0022 12.4182 60.9505 12.5431C60.8987 12.6681 60.8852 12.8055 60.9116 12.9381C60.9379 13.0708 61.0031 13.1926 61.0987 13.2882C61.1943 13.3838 61.3161 13.4489 61.4487 13.4753C61.5814 13.5017 61.7188 13.4882 61.8437 13.4364C61.9687 13.3847 62.0754 13.297 62.1506 13.1846C62.2257 13.0722 62.2658 12.94 62.2658 12.8048C62.2647 12.6238 62.1923 12.4505 62.0644 12.3225C61.9364 12.1946 61.7631 12.1222 61.5821 12.1211ZM61.5821 13.3745C61.4694 13.3811 61.3573 13.3542 61.2599 13.2971C61.1626 13.24 61.0843 13.1554 61.0351 13.0538C60.9858 12.9522 60.9678 12.8383 60.9832 12.7265C60.9987 12.6147 61.047 12.51 61.122 12.4256C61.197 12.3413 61.2953 12.281 61.4045 12.2525C61.5137 12.224 61.629 12.2286 61.7356 12.2656C61.8422 12.3025 61.9355 12.3703 62.0036 12.4603C62.0718 12.5503 62.1117 12.6585 62.1183 12.7712L62.1193 12.8048C62.1212 12.9509 62.0663 13.092 61.966 13.1983C61.8658 13.3047 61.7281 13.3678 61.5821 13.3745Z" fill="#231F20"/>
<defs>
<linearGradient id="paint0_linear" x1="37.6993" y1="20.6428" x2="34.4024" y2="15.4808" gradientUnits="userSpaceOnUse">
<stop stop-color="#F89F20"/>
<stop offset="0.2502" stop-color="#F79A20"/>
<stop offset="0.5331" stop-color="#F68D20"/>
<stop offset="0.6196" stop-color="#F58720"/>
<stop offset="0.7232" stop-color="#F48120"/>
<stop offset="1" stop-color="#F37521"/>
</linearGradient>
<linearGradient id="paint1_linear" x1="37.1788" y1="20.5733" x2="32.3602" y2="11.1552" gradientUnits="userSpaceOnUse">
<stop stop-color="#F58720"/>
<stop offset="0.3587" stop-color="#E16F27"/>
<stop offset="0.703" stop-color="#D4602C"/>
<stop offset="0.9816" stop-color="#D05B2E"/>
</linearGradient>
</defs>
</svg>
