<svg width="67" height="42" viewBox="0 0 67 42" fill="none" xmlns="http://www.w3.org/2000/svg">
<rect x="0.5" y="0.5" width="66" height="41" rx="3.5" fill="white" stroke="white"/>
<path d="M12.9843 18.3245C12.6437 18.4862 12.2857 18.6084 11.9174 18.6887C11.478 18.7811 11.0299 18.825 10.581 18.8196C10.0986 18.8254 9.6194 18.7413 9.16787 18.5716C8.75871 18.4178 8.38521 18.1822 8.07021 17.8792C7.7613 17.5778 7.51764 17.2162 7.35438 16.8167C7.1792 16.3838 7.09206 15.9204 7.09804 15.4534C7.09094 14.9795 7.18135 14.5091 7.36366 14.0716C7.53078 13.6752 7.77912 13.3182 8.09267 13.0237C8.40908 12.7311 8.78078 12.5047 9.18593 12.3577C9.62426 12.1983 10.0877 12.1189 10.5541 12.1233C11.0296 12.1177 11.5028 12.1923 11.9535 12.344C12.3303 12.4649 12.6781 12.6624 12.975 12.9241L12.1923 13.7708C12.0014 13.5707 11.7695 13.4141 11.5126 13.3118C11.2125 13.1838 10.8891 13.1193 10.5629 13.1223C10.2492 13.1182 9.93807 13.1794 9.6493 13.302C9.38467 13.4162 9.14708 13.5849 8.95203 13.7972C8.75698 14.0119 8.60571 14.2627 8.50672 14.5354C8.39933 14.8295 8.3459 15.1404 8.34901 15.4534C8.3452 15.7738 8.39861 16.0923 8.50672 16.3939C8.60517 16.669 8.75813 16.9214 8.95643 17.1361C9.15514 17.3492 9.39769 17.5168 9.66738 17.6272C9.9691 17.7483 10.292 17.8078 10.6171 17.802C11.0508 17.8119 11.4821 17.7355 11.8861 17.5774V15.9573H10.5448V15.0217H12.9843V18.3245Z" fill="black"/>
<path d="M19.2476 18.6563H18.2217V17.9629H18.2036C18.0935 18.1964 17.9205 18.3945 17.7041 18.5352C17.4561 18.7029 17.1621 18.7893 16.8628 18.7823C16.6131 18.7889 16.3652 18.7381 16.1382 18.6338C15.9459 18.5421 15.7767 18.4082 15.6431 18.2422C15.5124 18.0771 15.4161 17.8875 15.3599 17.6846C15.2996 17.4737 15.2692 17.2555 15.2695 17.0362V14.336H16.3496V16.7305C16.3501 16.8628 16.3593 16.9949 16.377 17.126C16.3923 17.2568 16.4318 17.3837 16.4937 17.5C16.5529 17.6101 16.6378 17.7042 16.7412 17.7744C16.8666 17.8519 17.0125 17.8894 17.1597 17.8818C17.3144 17.8851 17.4675 17.8495 17.605 17.7783C17.7284 17.7146 17.8362 17.6242 17.9204 17.5137C18.0034 17.4009 18.0657 17.2742 18.1045 17.1397C18.1462 17.0009 18.1674 16.8568 18.1675 16.7119V14.3359H19.2476L19.2476 18.6563Z" fill="black"/>
<path d="M20.9219 15.2011V14.3369H21.6782V13.0859H22.7402V14.3369H23.8198V15.2012H22.7402V17.2079C22.734 17.3733 22.7696 17.5376 22.8437 17.6855C22.9126 17.8115 23.0671 17.8743 23.3071 17.874C23.3856 17.8737 23.4639 17.8661 23.541 17.8515C23.6186 17.8387 23.6943 17.8161 23.7661 17.7841L23.8022 18.6298C23.6912 18.6695 23.5766 18.6983 23.46 18.7157C23.335 18.7359 23.2086 18.7463 23.082 18.747C22.8421 18.7559 22.603 18.7147 22.3799 18.6259C22.2112 18.5534 22.0641 18.4387 21.9526 18.2929C21.8461 18.1484 21.7722 17.9825 21.7363 17.8066C21.6963 17.6126 21.6768 17.4148 21.6782 17.2167V15.2011H20.9219Z" fill="black"/>
<path d="M27.9683 15.4892C27.8605 15.3535 27.7256 15.2417 27.5723 15.1611C27.4044 15.0677 27.2151 15.0196 27.0229 15.0215C26.8577 15.0196 26.6944 15.0564 26.5459 15.1289C26.4779 15.1604 26.421 15.2116 26.3825 15.2758C26.3441 15.3401 26.3258 15.4145 26.3301 15.4892C26.3268 15.5662 26.3483 15.6422 26.3912 15.7061C26.4342 15.77 26.4964 15.8186 26.5688 15.8447C26.7949 15.9348 27.0281 16.0057 27.2661 16.0566C27.4327 16.0936 27.5966 16.1416 27.7568 16.2002C27.9171 16.2582 28.0685 16.3384 28.2065 16.4385C28.3408 16.537 28.4528 16.6628 28.5352 16.8076C28.6233 16.9718 28.6668 17.1564 28.6611 17.3428C28.6686 17.5753 28.6175 17.806 28.5127 18.0136C28.4185 18.1918 28.2827 18.3446 28.1167 18.459C27.9422 18.5775 27.7466 18.6617 27.5405 18.707C27.3178 18.7582 27.0899 18.7837 26.8613 18.7831C26.5256 18.7832 26.1927 18.7206 25.8799 18.5986C25.5786 18.487 25.3074 18.3068 25.0879 18.0722L25.7993 17.4062C25.9253 17.5676 26.0849 17.6996 26.2671 17.7929C26.464 17.8965 26.6837 17.9492 26.9062 17.9462C26.9864 17.9461 27.0664 17.937 27.1445 17.9189C27.2234 17.9022 27.2993 17.8735 27.3696 17.834C27.4374 17.7959 27.4947 17.7415 27.5361 17.6757C27.5801 17.6028 27.602 17.5187 27.5991 17.4336C27.6028 17.3513 27.5811 17.2699 27.5367 17.2005C27.4924 17.1311 27.4277 17.0771 27.3515 17.0459C27.112 16.9445 26.8633 16.8664 26.6089 16.8125C26.4485 16.7766 26.2908 16.7299 26.1367 16.6728C25.9893 16.6193 25.8511 16.5432 25.727 16.4472C25.607 16.3543 25.5087 16.2364 25.4389 16.1015C25.3623 15.9414 25.3253 15.7652 25.331 15.5878C25.3256 15.3714 25.3768 15.1573 25.4795 14.9668C25.5754 14.7962 25.7094 14.6502 25.8711 14.54C26.0385 14.4266 26.2242 14.3427 26.4199 14.292C26.6257 14.2379 26.8375 14.2107 27.0503 14.2109C27.3619 14.2113 27.6711 14.2661 27.9639 14.3731C28.2414 14.4678 28.4863 14.6395 28.6699 14.8682L27.9683 15.4892Z" fill="black"/>
<path d="M33.5483 15.5343C33.4504 15.4028 33.3202 15.2989 33.1703 15.2325C33.0107 15.1537 32.8352 15.1123 32.6572 15.1114C32.4758 15.1073 32.2962 15.149 32.1352 15.2325C31.9889 15.3105 31.8614 15.4195 31.7616 15.5518C31.6619 15.6861 31.5871 15.8373 31.5409 15.9981C31.4935 16.1602 31.4693 16.3282 31.4692 16.4971C31.4693 16.6667 31.4951 16.8353 31.5458 16.9971C31.5947 17.1583 31.6724 17.3092 31.7753 17.4425C31.8782 17.5752 32.0086 17.6842 32.1576 17.7618C32.3235 17.8457 32.5075 17.8873 32.6933 17.8829C32.866 17.8823 33.037 17.8488 33.1972 17.7842C33.3551 17.7256 33.4948 17.6262 33.602 17.4962L34.2773 18.1807C34.0849 18.3799 33.8493 18.5323 33.5888 18.626C33.2991 18.7326 32.9926 18.7858 32.684 18.7833C32.3759 18.7851 32.0699 18.7333 31.7797 18.63C31.5008 18.5336 31.2453 18.3796 31.0297 18.1781C30.8142 17.9765 30.6435 17.7319 30.5287 17.46C30.4011 17.1553 30.3382 16.8274 30.3441 16.4971C30.3395 16.1726 30.4024 15.8507 30.5287 15.5518C30.6447 15.2805 30.8146 15.0357 31.0282 14.8321C31.2405 14.6328 31.4896 14.4769 31.7616 14.3731C32.0475 14.2641 32.3512 14.2091 32.6571 14.211C32.9734 14.2108 33.2867 14.2722 33.5795 14.3916C33.8525 14.4948 34.0954 14.6647 34.286 14.8858L33.5483 15.5343Z" fill="black"/>
<path d="M38.3906 14.211C38.6403 14.2043 38.8883 14.2551 39.1152 14.3594C39.3073 14.4515 39.4765 14.5853 39.6104 14.751C39.741 14.9167 39.8376 15.1065 39.8945 15.3096C39.9544 15.5202 39.9846 15.7381 39.9844 15.9571V18.6573H38.9043V16.2813C38.9041 16.1503 38.895 16.0194 38.877 15.8897C38.8609 15.7611 38.823 15.6362 38.7647 15.5205C38.7077 15.4102 38.6241 15.3159 38.5215 15.2461C38.3963 15.1686 38.2505 15.1311 38.1035 15.1387C37.9476 15.1342 37.793 15.168 37.6533 15.2373C37.5297 15.3013 37.4219 15.392 37.3379 15.5029C37.2535 15.6152 37.1897 15.7415 37.1494 15.8759C37.1075 16.013 37.0861 16.1555 37.0859 16.2988V18.6572H36.0059V11.8535H37.086V14.9404H37.1045C37.1514 14.8426 37.2138 14.7529 37.2891 14.6748C37.373 14.5848 37.4682 14.506 37.5723 14.4404C37.6872 14.3685 37.8114 14.3127 37.9415 14.2744C38.0872 14.2312 38.2386 14.2098 38.3906 14.211Z" fill="black"/>
<path d="M46.3646 16.5508V16.6954C46.3646 16.7434 46.3616 16.7913 46.3558 16.8389H43.0706C43.0803 16.9885 43.1215 17.1343 43.1917 17.2667C43.26 17.3949 43.3533 17.5081 43.4661 17.5997C43.5822 17.6938 43.7128 17.7683 43.8529 17.8204C43.9968 17.8742 44.1493 17.9017 44.303 17.9014C44.5399 17.9087 44.775 17.8577 44.9876 17.753C45.1716 17.6554 45.3291 17.5147 45.4466 17.3428L46.1663 17.919C45.9525 18.2049 45.6713 18.4334 45.3477 18.5842C45.0241 18.735 44.6683 18.8034 44.3118 18.7833C43.996 18.7865 43.6822 18.7333 43.3851 18.626C43.1138 18.5271 42.8646 18.3758 42.6517 18.1807C42.4407 17.9827 42.2748 17.7416 42.1654 17.4737C42.0448 17.172 41.9853 16.8494 41.9906 16.5245C41.9863 16.1997 42.0457 15.8773 42.1654 15.5753C42.2729 15.3033 42.4355 15.0565 42.6431 14.8504C42.8507 14.6444 43.0986 14.4836 43.3714 14.378C43.6597 14.265 43.967 14.2083 44.2767 14.211C44.5608 14.2084 44.843 14.2587 45.1087 14.3595C45.3591 14.4557 45.585 14.6065 45.7698 14.8009C45.9648 15.0104 46.1136 15.2586 46.2063 15.5294C46.3178 15.8582 46.3713 16.2038 46.3646 16.5508ZM45.2845 16.0655C45.285 15.9311 45.2653 15.7975 45.2259 15.669C45.1887 15.5438 45.1242 15.4285 45.0371 15.3312C44.9499 15.2339 44.8423 15.1572 44.722 15.1065C44.5778 15.0469 44.4229 15.0179 44.2669 15.0215C43.9658 15.0137 43.6726 15.1178 43.4437 15.3135C43.3338 15.4071 43.2441 15.522 43.18 15.6512C43.1159 15.7805 43.0787 15.9214 43.0707 16.0655L45.2845 16.0655Z" fill="black"/>
<path d="M48.2734 12.8705C48.273 12.7856 48.2899 12.7015 48.3231 12.6234C48.3564 12.5453 48.4053 12.4748 48.4668 12.4164C48.531 12.3524 48.6076 12.3022 48.6919 12.269C48.7762 12.2357 48.8665 12.2201 48.957 12.223C49.1408 12.2179 49.3194 12.2836 49.456 12.4066C49.5201 12.4657 49.5712 12.5374 49.6062 12.6173C49.6411 12.6971 49.6592 12.7833 49.6592 12.8705C49.6592 12.9576 49.6411 13.0438 49.6062 13.1237C49.5712 13.2035 49.5201 13.2752 49.456 13.3343C49.3198 13.458 49.141 13.5242 48.957 13.5189C48.8665 13.5219 48.7762 13.5062 48.6919 13.473C48.6076 13.4397 48.531 13.3895 48.4668 13.3255C48.4053 13.2668 48.3565 13.1962 48.3232 13.1179C48.29 13.0397 48.273 12.9555 48.2734 12.8705ZM48.4258 14.3373H49.5059V18.6576H48.4258V14.3373Z" fill="black"/>
<path d="M51.8184 14.3375H52.8447V15.0308H52.8623C52.9733 14.798 53.1463 14.6003 53.3623 14.4595C53.6101 14.291 53.9045 14.2042 54.2041 14.2115C54.4535 14.2048 54.7011 14.2556 54.9277 14.36C55.1198 14.452 55.289 14.5858 55.4229 14.7516C55.5535 14.9172 55.6501 15.107 55.707 15.3102C55.7669 15.5208 55.7971 15.7387 55.7969 15.9576V18.6578H54.7168V16.2642C54.7165 16.1316 54.7074 15.9991 54.6895 15.8677C54.6742 15.7371 54.6345 15.6105 54.5723 15.4947C54.5133 15.3843 54.4285 15.2899 54.3252 15.2193C54.1995 15.1422 54.0535 15.1048 53.9062 15.1119C53.7501 15.1076 53.5955 15.1432 53.457 15.2154C53.3356 15.2805 53.2297 15.3711 53.1465 15.481C53.0632 15.5933 53.0007 15.7196 52.9619 15.854C52.9202 15.9928 52.8988 16.1368 52.8984 16.2817V18.6577H51.8184V14.3375Z" fill="black"/>
<path d="M59.9268 16.9024H57.7676V15.9844H59.9268V16.9024Z" fill="black"/>
<path d="M21.5742 22.6523H22.6543V26.9541H22.6811L24.3193 25.1357H25.7051L23.833 27.0889L25.8223 29.4561H24.3911L22.6811 27.2422H22.6543V29.4561H21.5742V22.6523Z" fill="black"/>
<path d="M30.0697 28.9085H30.0429C29.9197 29.1145 29.7377 29.2791 29.5204 29.3811C29.2663 29.5075 28.9854 29.5708 28.7016 29.5657C28.518 29.5647 28.3353 29.5417 28.1571 29.4973C27.9712 29.4541 27.7944 29.378 27.6351 29.2727C27.474 29.1658 27.3388 29.0244 27.2391 28.8587C27.1285 28.6659 27.0738 28.446 27.0814 28.2239C27.0672 27.9399 27.1661 27.6618 27.3563 27.4505C27.5535 27.2493 27.7957 27.098 28.0629 27.009C28.3729 26.9027 28.6948 26.8348 29.0214 26.8069C29.372 26.7737 29.7154 26.7571 30.0516 26.7571V26.6497C30.0596 26.533 30.0368 26.4163 29.9855 26.3112C29.9342 26.2062 29.8561 26.1164 29.7592 26.051C29.5511 25.9185 29.3081 25.8511 29.0614 25.8577C28.8347 25.8574 28.6106 25.9064 28.4047 26.0012C28.2111 26.0859 28.0343 26.2046 27.8827 26.3518L27.3246 25.6956C27.5698 25.4677 27.8593 25.2928 28.1752 25.1819C28.4885 25.0696 28.8188 25.0118 29.1517 25.011C29.4758 25.0006 29.7987 25.0557 30.1009 25.1731C30.3282 25.2655 30.5303 25.4104 30.6908 25.596C30.8327 25.7666 30.9355 25.9663 30.9921 26.181C31.0484 26.3925 31.0772 26.6105 31.0775 26.8294V29.4573H30.0697V28.9085ZM30.0516 27.4866H29.8085C29.6347 27.4866 29.4515 27.4934 29.2597 27.509C29.0794 27.5217 28.9012 27.5547 28.7284 27.6077C28.5802 27.6513 28.4424 27.7248 28.3236 27.8235C28.2696 27.8711 28.227 27.9302 28.199 27.9965C28.1709 28.0627 28.1581 28.1344 28.1615 28.2063C28.1583 28.2967 28.1817 28.386 28.2289 28.4631C28.2738 28.5314 28.334 28.5882 28.4047 28.6291C28.4801 28.6726 28.5623 28.703 28.6478 28.719C28.7367 28.7373 28.8271 28.7465 28.9178 28.7463C29.0688 28.7642 29.2218 28.7481 29.3657 28.6992C29.5095 28.6503 29.6406 28.5698 29.7494 28.4636C29.8581 28.3574 29.9417 28.2282 29.994 28.0855C30.0463 27.9428 30.066 27.7902 30.0516 27.6389L30.0516 27.4866Z" fill="black"/>
<path d="M33.3359 25.136H34.3706V25.8567H34.3892C34.5017 25.6127 34.6753 25.4018 34.8931 25.2444C35.1131 25.0868 35.3783 25.0046 35.6489 25.01C35.6909 25.01 35.7358 25.012 35.7837 25.0149C35.8265 25.0171 35.8688 25.0246 35.9097 25.0374V26.0276C35.849 26.0114 35.7874 25.9994 35.7251 25.9915C35.6758 25.9857 35.6263 25.9828 35.5767 25.9827C35.3702 25.9732 35.1651 26.0197 34.9829 26.1174C34.8429 26.1978 34.7228 26.3086 34.6314 26.4417C34.5513 26.5591 34.4934 26.6901 34.4605 26.8284C34.4343 26.9313 34.4193 27.0367 34.4155 27.1428V29.4563H33.3359V25.136Z" fill="black"/>
<path d="M36.8828 26V25.1358H37.6396V23.8848H38.7012V25.1358H39.7812V26H38.7012V28.0069C38.6949 28.1722 38.7305 28.3365 38.8047 28.4844C38.874 28.6104 39.0286 28.6732 39.2686 28.6729C39.3469 28.6726 39.425 28.665 39.502 28.6504C39.5797 28.6376 39.6555 28.615 39.7275 28.583L39.7637 29.4287C39.6525 29.4684 39.5377 29.4972 39.4209 29.5147C39.2959 29.5348 39.1696 29.5452 39.043 29.5459C38.803 29.5548 38.5639 29.5136 38.3408 29.4248C38.1722 29.3525 38.0252 29.2378 37.9141 29.0918C37.8071 28.9475 37.7331 28.7815 37.6973 28.6055C37.6574 28.4115 37.6381 28.2137 37.6396 28.0156V26H36.8828Z" fill="black"/>
<path d="M45.6849 27.3497V27.4942C45.6849 27.5422 45.6819 27.5902 45.6761 27.6378H42.3909C42.4006 27.7873 42.4418 27.9331 42.512 28.0655C42.5803 28.1937 42.6736 28.307 42.7864 28.3985C42.9025 28.4926 43.0331 28.5672 43.1731 28.6192C43.3171 28.673 43.4696 28.7005 43.6233 28.7003C43.8602 28.7076 44.0953 28.6566 44.3079 28.5518C44.4919 28.4543 44.6494 28.3135 44.7669 28.1417L45.4866 28.7178C45.2728 29.0037 44.9916 29.2323 44.668 29.3831C44.3444 29.5339 43.9886 29.6022 43.6322 29.5821C43.3163 29.5854 43.0025 29.5321 42.7054 29.4249C42.4341 29.326 42.1849 29.1747 41.972 28.9796C41.761 28.7816 41.5951 28.5404 41.4857 28.2726C41.3651 27.9709 41.3056 27.6482 41.3109 27.3233C41.3067 26.9986 41.366 26.6761 41.4857 26.3741C41.5932 26.1021 41.7558 25.8553 41.9634 25.6493C42.171 25.4432 42.4189 25.2824 42.6917 25.1769C42.98 25.0638 43.2873 25.0072 43.597 25.0099C43.8811 25.0072 44.1633 25.0575 44.429 25.1583C44.6794 25.2545 44.9053 25.4053 45.0901 25.5997C45.2851 25.8092 45.4339 26.0574 45.5267 26.3282C45.6381 26.657 45.6916 27.0026 45.6849 27.3497ZM44.6048 26.8643C44.6053 26.73 44.5856 26.5963 44.5462 26.4679C44.509 26.3427 44.4445 26.2273 44.3574 26.1301C44.2702 26.0328 44.1626 25.9561 44.0423 25.9054C43.8981 25.8457 43.7432 25.8168 43.5872 25.8204C43.2861 25.8126 42.9929 25.9166 42.764 26.1124C42.6541 26.2059 42.5644 26.3208 42.5003 26.4501C42.4362 26.5793 42.399 26.7203 42.391 26.8644L44.6048 26.8643Z" fill="black"/>
</svg>
