<svg width="67" height="42" viewBox="0 0 67 42" fill="none" xmlns="http://www.w3.org/2000/svg">
<rect x="0.5" y="0.5" width="66" height="41" rx="3.5" fill="white" stroke="white"/>
<path fill-rule="evenodd" clip-rule="evenodd" d="M15.3 8.5H51.7C54.1 8.5 56 10.4 56 12.8V29.2C56 31.6 54.1 33.5 51.7 33.5H15.3C12.9 33.5 11 31.6 11 29.2V12.9C11 10.5 12.9 8.5 15.3 8.5Z" fill="#FFBACD"/>
<path fill-rule="evenodd" clip-rule="evenodd" d="M51.9008 23.3008C51.3008 23.3008 50.8008 23.8008 50.8008 24.4008C50.8008 25.0008 51.3008 25.5008 51.9008 25.5008C52.5008 25.5008 53.0008 25.0008 53.0008 24.4008C52.9008 23.8008 52.5008 23.3008 51.9008 23.3008Z" fill="#060705"/>
<path fill-rule="evenodd" clip-rule="evenodd" d="M34.7 20.3V19.6H33V25.3H34.7V22.6C34.7 21.7 35.7 21.2 36.4 21.2V19.5C35.7 19.6 35 19.8 34.7 20.3Z" fill="#060705"/>
<path fill-rule="evenodd" clip-rule="evenodd" d="M40.7008 19.4004C40.0008 19.4004 39.4008 19.6004 39.0008 20.2004V19.5004H37.3008V25.2004H39.0008V22.2004C39.0008 21.4004 39.6008 20.9004 40.2008 20.9004C40.9008 20.9004 41.4008 21.3004 41.4008 22.1004V25.1004H43.0008V21.4004C43.1008 20.3004 42.0008 19.4004 40.7008 19.4004Z" fill="#060705"/>
<path d="M24.9012 17H23.2012V25.3H24.9012V17Z" fill="#060705"/>
<path d="M17.3004 17H15.4004V25.3H17.3004V17Z" fill="#060705"/>
<path fill-rule="evenodd" clip-rule="evenodd" d="M21.9 17C21.9 18.8 21.2 20.5 20 21.7L22.6 25.3H20.3L17.5 21.4L18.2 20.8C19.4 19.9 20.1 18.5 20.1 17H21.9Z" fill="#060705"/>
<path fill-rule="evenodd" clip-rule="evenodd" d="M48.2996 19.6004V19.9004C47.7996 19.6004 47.1996 19.4004 46.5996 19.4004C44.8996 19.4004 43.5996 20.7004 43.5996 22.4004C43.5996 24.1004 44.8996 25.4004 46.5996 25.4004C47.2996 25.4004 47.7996 25.2004 48.2996 24.9004V25.2004H49.9996V19.5004L48.2996 19.6004ZM46.7996 23.9004C45.9996 23.9004 45.1996 23.2004 45.1996 22.4004C45.1996 21.6004 45.8996 20.9004 46.7996 20.9004C47.5996 20.9004 48.3996 21.6004 48.3996 22.4004C48.2996 23.3004 47.5996 23.9004 46.7996 23.9004Z" fill="#060705"/>
<path fill-rule="evenodd" clip-rule="evenodd" d="M30.2996 19.6004V19.9004C29.7996 19.6004 29.1996 19.4004 28.5996 19.4004C26.8996 19.4004 25.5996 20.7004 25.5996 22.4004C25.5996 24.1004 26.8996 25.4004 28.5996 25.4004C29.2996 25.4004 29.7996 25.2004 30.2996 24.9004V25.2004H31.9996V19.5004L30.2996 19.6004ZM28.7996 23.9004C27.9996 23.9004 27.1996 23.2004 27.1996 22.4004C27.1996 21.6004 27.8996 20.9004 28.7996 20.9004C29.5996 20.9004 30.3996 21.6004 30.3996 22.4004C30.2996 23.3004 29.6996 23.9004 28.7996 23.9004Z" fill="#060705"/>
</svg>
