<svg width="67" height="42" viewBox="0 0 67 42" fill="none" xmlns="http://www.w3.org/2000/svg">
<rect x="0.5" y="0.5" width="66" height="41" rx="3.5" fill="white" stroke="white"/>
<path fill-rule="evenodd" clip-rule="evenodd" d="M3.5 42H63.5C65.432 41.9977 66.9977 40.432 67 38.5V3.5C66.9977 1.56797 65.432 0.00233627 63.5 0H3.5C1.56797 0.00233627 0.00233627 1.56797 0 3.5V38.5C0.00233627 40.432 1.56797 41.9977 3.5 42ZM1 3.5C1.00162 2.11996 2.11996 1.00162 3.5 1H63.5C64.8801 1.00145 65.9986 2.11989 66 3.5V38.5C65.9987 39.8802 64.8802 40.9987 63.5 41H3.5C2.11989 40.9986 1.00145 39.8801 1 38.5V3.5Z" fill="white"/>
<path fill-rule="evenodd" clip-rule="evenodd" d="M46.621 28.7812V30.927V32.1174H46.1031V31.8285C45.9239 32.0597 45.6437 32.1896 45.3515 32.1772C44.6849 32.1448 44.1612 31.5949 44.1612 30.9276C44.1612 30.2602 44.6849 29.7104 45.3515 29.678C45.6438 29.6654 45.9239 29.7954 46.1031 30.0266V28.7812H46.621ZM27.2102 29.7367V30.927L27.2096 30.927V32.1175H26.6927V31.8286C26.5135 32.0597 26.2334 32.1897 25.9411 32.1772C25.2746 32.1449 24.7508 31.595 24.7508 30.9277C24.7508 30.2603 25.2746 29.7105 25.9411 29.6781C26.2334 29.6655 26.5136 29.7955 26.6927 30.0267V29.7367H27.2102ZM25.2837 30.927C25.3097 30.5391 25.6413 30.2433 26.0297 30.2615C26.4181 30.2798 26.7205 30.6054 26.7101 30.9941C26.6996 31.3827 26.3801 31.6916 25.9913 31.689C25.6025 31.6863 25.2873 31.3731 25.2821 30.9843C25.2819 30.9652 25.2824 30.9461 25.2837 30.927ZM47.6536 31.8438C47.6082 31.7991 47.547 31.7741 47.4833 31.7742L47.484 31.7717C47.4514 31.7715 47.419 31.7779 47.3889 31.7905C47.3601 31.8021 47.3339 31.8193 47.3119 31.8413C47.2432 31.9087 47.2229 32.0114 47.2606 32.0999C47.2723 32.1288 47.2895 32.1552 47.3112 32.1776C47.3334 32.1992 47.3596 32.2165 47.3882 32.2284C47.4183 32.2411 47.4506 32.2475 47.4833 32.2472C47.5156 32.2474 47.5475 32.241 47.5772 32.2284C47.6055 32.2162 47.6314 32.199 47.6536 32.1776C47.6753 32.156 47.6927 32.1305 47.705 32.1024C47.7427 32.0138 47.7223 31.9112 47.6536 31.8438ZM47.4833 32.1931C47.5078 32.1934 47.532 32.1884 47.5545 32.1786C47.5761 32.1693 47.5958 32.156 47.6125 32.1394C47.6292 32.1227 47.6425 32.103 47.6518 32.0814C47.6708 32.0354 47.6708 31.9838 47.6518 31.9378C47.6424 31.9162 47.629 31.8966 47.6125 31.8798C47.5958 31.8632 47.5761 31.8499 47.5545 31.8405C47.5319 31.8313 47.5077 31.8267 47.4833 31.8269C47.4585 31.8267 47.4338 31.8313 47.4108 31.8405C47.3887 31.8497 47.3685 31.863 47.3515 31.8798C47.2991 31.9336 47.2838 32.0135 47.3128 32.0828C47.3216 32.1046 47.3348 32.1243 47.3515 32.1408C47.3686 32.1576 47.3887 32.171 47.4108 32.1801C47.4337 32.1899 47.4584 32.1948 47.4833 32.1946V32.1931ZM47.4978 31.898C47.521 31.8965 47.5439 31.9032 47.5628 31.9168C47.5781 31.9293 47.5865 31.9484 47.5855 31.9681C47.5862 31.9851 47.5796 32.0015 47.5673 32.0132C47.5528 32.0258 47.5346 32.0334 47.5154 32.0348L47.5879 32.1175H47.532L47.4654 32.0354H47.4437V32.1175H47.397V31.8981H47.4985L47.4978 31.898ZM44.6939 30.927C44.7199 30.5391 45.0515 30.2433 45.4399 30.2615C45.8283 30.2798 46.1307 30.6054 46.1202 30.994C46.1098 31.3827 45.7903 31.6916 45.4015 31.689C45.0127 31.6863 44.6975 31.3731 44.6923 30.9843C44.6921 30.9652 44.6926 30.9461 44.6939 30.927ZM33.6324 30.1406C33.9578 30.1343 34.2271 30.3924 34.2346 30.7178H32.9999C33.019 30.3856 33.2998 30.1293 33.6324 30.1406ZM33.6324 30.1406L33.6323 30.1406H33.6324L33.6324 30.1406ZM32.4578 30.9429C32.4484 30.271 32.9717 29.7119 33.6427 29.6767L33.6424 29.6765C33.6764 29.6767 33.7102 29.6784 33.744 29.6816C34.0454 29.7103 34.3231 29.8575 34.5159 30.0909C34.7088 30.3243 34.8011 30.6247 34.7724 30.9261C34.7724 30.9948 34.7674 31.0589 34.7623 31.1225L34.7621 31.125H32.9953C33.0362 31.4796 33.3513 31.7377 33.707 31.7079C33.959 31.7041 34.2025 31.6165 34.3993 31.4589L34.6528 31.8424C34.3797 32.0697 34.0325 32.1884 33.6774 32.1759C33.0056 32.1593 32.4671 31.6148 32.4578 30.9429ZM40.6248 30.2598C41.0241 30.2598 41.3478 30.5835 41.3477 30.9828C41.3477 31.3821 41.024 31.7058 40.6247 31.7058C40.2254 31.7058 39.9018 31.3821 39.9017 30.9828C39.9017 30.5835 40.2254 30.2598 40.6247 30.2598H40.6248ZM41.8161 29.7367V30.9261L41.8162 30.927V32.1175H41.2989V31.8285C41.1196 32.0596 40.8395 32.1895 40.5473 32.1772C39.8808 32.1448 39.357 31.5949 39.357 30.9276C39.357 30.2603 39.8808 29.7104 40.5473 29.678C40.8395 29.6656 41.1197 29.7956 41.2989 30.0267V29.7367H41.8161ZM36.9676 30.9261C36.9545 31.2447 37.0684 31.5554 37.2844 31.7899C37.5004 32.0244 37.8007 32.1635 38.1192 32.1767C38.1585 32.1783 38.1978 32.1779 38.237 32.1757C38.5476 32.1914 38.8528 32.0902 39.0924 31.892L38.8439 31.4737C38.6647 31.6105 38.446 31.6856 38.2205 31.688C37.8178 31.6634 37.5037 31.3296 37.5037 30.9261C37.5037 30.5226 37.8178 30.1888 38.2205 30.1642C38.446 30.1668 38.6646 30.2419 38.8439 30.3785L39.0924 29.9603C38.8527 29.7622 38.5476 29.661 38.237 29.6765C37.9188 29.6584 37.6063 29.7674 37.3684 29.9796C37.1305 30.1918 36.9867 30.4898 36.9685 30.8081C36.9663 30.8474 36.966 30.8868 36.9676 30.9261V30.9261ZM43.0109 30.0252C43.1403 29.8028 43.381 29.669 43.6382 29.6765L43.6379 29.6769C43.7636 29.6774 43.8883 29.6993 44.0066 29.7419L43.8471 30.2296C43.7442 30.1885 43.6343 30.1682 43.5235 30.1697C43.1853 30.1697 43.0161 30.3885 43.0161 30.7823V32.1161H42.4981V29.7367H43.0109V30.0252ZM29.7683 29.9259C29.4754 29.7517 29.1386 29.6653 28.798 29.6769C28.1951 29.6769 27.807 29.9659 27.807 30.4387C27.807 30.8267 28.0959 31.066 28.628 31.1407L28.8724 31.1755C29.1562 31.2154 29.2901 31.29 29.2901 31.4244C29.2901 31.6084 29.1016 31.7134 28.7477 31.7134C28.4635 31.7215 28.1847 31.6338 27.9563 31.4644L27.7132 31.8679C28.0146 32.0786 28.3758 32.1868 28.7434 32.1767C29.4306 32.1767 29.8289 31.8531 29.8289 31.4001C29.8289 30.9818 29.5154 30.7631 28.9975 30.6883L28.7537 30.653C28.5297 30.624 28.3502 30.5789 28.3502 30.4194C28.3502 30.2454 28.5194 30.1407 28.8033 30.1407C29.0639 30.1447 29.3192 30.2149 29.5451 30.3447L29.7691 29.9265L29.7683 29.9259ZM35.8182 30.0261C35.9473 29.8036 36.1878 29.6698 36.4449 29.6774L36.4446 29.6769C36.5703 29.6774 36.695 29.6993 36.8133 29.7419L36.6538 30.2296C36.551 30.1885 36.441 30.1682 36.3302 30.1697C35.992 30.1697 35.8228 30.3885 35.8228 30.7823V32.1161H35.3054V29.7367H35.8182V30.0261ZM32.0294 29.7367H31.1832V29.0148H30.6601V29.7367H30.1775V30.2096H30.6601V31.2951C30.6601 31.8472 30.8744 32.176 31.4865 32.176C31.7153 32.1768 31.9397 32.113 32.1339 31.992L31.9844 31.5489C31.8455 31.6317 31.6879 31.678 31.5263 31.6835C31.2676 31.6835 31.1833 31.524 31.1833 31.2852V30.21H32.0294L32.0294 29.7367ZM24.2933 30.6234V32.1167L23.769 32.1156V30.7913C23.769 30.3879 23.6004 30.1639 23.2471 30.1639C23.0814 30.1564 22.9209 30.2225 22.8086 30.3446C22.6963 30.4666 22.6436 30.632 22.6648 30.7965V32.1158H22.1417V30.7916C22.1417 30.3882 21.9679 30.1643 21.6243 30.1643C21.4581 30.155 21.2964 30.2205 21.1836 30.343C21.0707 30.4654 21.0186 30.6319 21.0415 30.7968V32.1161H20.5195V29.7367H21.0374V30.0308C21.1907 29.7979 21.4558 29.6635 21.7343 29.6775C22.0542 29.6638 22.356 29.8263 22.5207 30.1009C22.7015 29.8178 23.022 29.6556 23.3571 29.6775C23.6114 29.6625 23.8599 29.7577 24.0391 29.9387C24.2183 30.1198 24.3109 30.3693 24.2933 30.6234Z" fill="#231F20"/>
<path fill-rule="evenodd" clip-rule="evenodd" d="M36.9402 18.648C36.9428 15.898 35.6803 13.2996 33.5169 11.6019L33.5173 11.6016H33.516L33.5165 11.6019C31.3554 13.3014 30.0938 15.8986 30.0938 18.6478C30.0937 21.3971 31.3553 23.9943 33.5163 25.6939H33.5172C35.6804 23.9961 36.9427 21.3979 36.9402 18.648Z" fill="#FF5F00"/>
<path fill-rule="evenodd" clip-rule="evenodd" d="M30.0937 18.648C30.0912 15.8981 31.3534 13.2998 33.5164 11.6018L33.516 11.6015C29.8414 8.71349 24.5643 9.13413 21.3935 12.5678C18.2228 16.0015 18.223 21.2953 21.394 24.7287C24.565 28.1621 29.8421 28.5824 33.5165 25.694L33.5162 25.6938C31.3533 23.9959 30.0913 21.3977 30.0937 18.648Z" fill="#EB001B"/>
<path fill-rule="evenodd" clip-rule="evenodd" d="M48.0157 18.648C48.0159 15.2168 46.0571 12.0867 42.9711 10.587C39.8851 9.0873 36.2137 9.48123 33.5161 11.6015L33.5156 11.6018C35.677 13.3011 36.9389 15.8984 36.939 18.6477C36.9391 21.3971 35.6772 23.9945 33.5159 25.6938L33.5156 25.6941C36.2132 27.8146 39.8847 28.2087 42.9709 26.7091C46.0571 25.2094 48.0161 22.0792 48.0159 18.648L48.0157 18.648Z" fill="#F79E1B"/>
</svg>
