<svg width="67" height="42" viewBox="0 0 67 42" fill="none" xmlns="http://www.w3.org/2000/svg">
<rect x="0.5" y="0.5" width="66" height="41" rx="3.5" fill="white" stroke="white"/>
<path fill-rule="evenodd" clip-rule="evenodd" d="M37.4719 15.4009H40.3689C41.1641 15.3291 41.9467 15.6356 42.4816 16.2283C42.8818 16.8468 43.015 17.6009 42.8509 18.3192C42.5633 20.3661 41.4614 21.3994 39.5536 21.3994H38.6369C38.4284 21.4093 38.2591 21.5711 38.2396 21.7789L37.9075 24.1348C37.8938 24.2804 37.7752 24.3938 37.6292 24.4009H36.1424C36.0673 24.3957 35.9981 24.3584 35.9524 24.2987C35.9067 24.2389 35.8888 24.1624 35.9034 24.0885L37.0746 15.7805C37.0941 15.5727 37.2634 15.4109 37.4719 15.4009ZM38.9825 19.5989C39.7502 19.5989 40.5448 19.5989 40.7031 18.436C40.7791 18.1282 40.7288 17.8028 40.5634 17.5323C40.3054 17.1953 39.8038 17.1969 39.2228 17.1988C39.1793 17.1989 39.1354 17.1991 39.0912 17.1991C38.9659 17.2051 38.8641 17.3022 38.8522 17.4271L38.5459 19.5989H38.9825Z" fill="#009CDE"/>
<path fill-rule="evenodd" clip-rule="evenodd" d="M15.4719 15.4009H18.3689C19.1643 15.3291 19.9471 15.6361 20.4816 16.2294C20.8818 16.848 21.015 17.6021 20.8509 18.3203C20.5633 20.3672 19.4614 21.4005 17.5536 21.4005H16.6369C16.4284 21.4105 16.2591 21.5723 16.2396 21.7801L15.923 24.0214C15.9035 24.2292 15.7342 24.391 15.5257 24.4009H14.1424C14.0673 24.3957 13.9981 24.3584 13.9524 24.2987C13.9067 24.2389 13.8888 24.1623 13.9034 24.0885L15.0746 15.7805C15.0941 15.5727 15.2634 15.4109 15.4719 15.4009ZM16.9825 19.5989C17.7502 19.5989 18.5448 19.5989 18.7031 18.436C18.7788 18.1281 18.7281 17.8026 18.5624 17.5323C18.3078 17.199 17.8133 17.199 17.2908 17.199H17.0901C16.9649 17.2051 16.8631 17.3022 16.8511 17.427L16.5449 19.5989H16.9825Z" fill="#003087"/>
<path fill-rule="evenodd" clip-rule="evenodd" d="M26.2235 18.5394H27.6512C27.7254 18.5413 27.7951 18.5754 27.8421 18.6328C27.8891 18.6902 27.9088 18.7653 27.8961 18.8384L27.1242 23.9018C27.096 24.1068 26.9223 24.2606 26.7153 24.2636H25.4292C25.3551 24.262 25.2852 24.2282 25.238 24.171C25.1908 24.1138 25.1708 24.0389 25.1833 23.9658L25.2472 23.5543C24.7343 24.0981 24.0187 24.4045 23.2712 24.4004C22.5873 24.4437 21.9223 24.1655 21.473 23.6481C20.9821 22.9999 20.7891 22.1741 20.9417 21.3756C21.1157 19.7292 22.4738 18.4612 24.1282 18.4004C25.422 18.4004 25.7411 18.8994 25.8894 19.1313C25.8984 19.1454 25.9068 19.1585 25.9147 19.1704L25.9775 18.7567C25.9947 18.6336 26.0991 18.5413 26.2235 18.5394ZM24.0505 22.8306C24.8683 22.8378 25.5613 22.2303 25.6613 21.4186C25.7338 21.0513 25.6463 20.6705 25.4207 20.3717C25.182 20.0986 24.8312 19.9502 24.4689 19.969C23.6528 19.9716 22.9666 20.5819 22.8687 21.3921C22.7908 21.7545 22.8722 22.133 23.0923 22.4313C23.3331 22.7049 23.6866 22.8522 24.0505 22.8306Z" fill="#003087"/>
<path fill-rule="evenodd" clip-rule="evenodd" d="M48.2233 18.5394H49.651C49.7252 18.5411 49.795 18.5752 49.842 18.6326C49.8891 18.6901 49.9087 18.7652 49.8958 18.8384L49.1239 23.9018C49.0958 24.1068 48.9221 24.2606 48.7151 24.2636H47.4291C47.3549 24.2621 47.2851 24.2283 47.2378 24.1711C47.1906 24.1138 47.1706 24.0389 47.1831 23.9658L47.247 23.5543C46.7341 24.0981 46.0185 24.4045 45.2711 24.4004C44.5872 24.4437 43.9222 24.1655 43.473 23.6481C42.9821 22.9999 42.789 22.1741 42.9417 21.3756C43.1157 19.7292 44.4737 18.4612 46.1281 18.4004C47.4218 18.4004 47.741 18.8994 47.8892 19.1313C47.8982 19.1454 47.9066 19.1584 47.9146 19.1704L47.9774 18.7567C47.9946 18.6336 48.099 18.5413 48.2233 18.5394ZM46.0504 22.8306C46.8681 22.8374 47.5609 22.2301 47.6612 21.4186C47.7337 21.0513 47.6462 20.6705 47.4206 20.3717C47.1819 20.0986 46.831 19.9502 46.4688 19.969C45.6527 19.9716 44.9665 20.5819 44.8687 21.3921C44.7907 21.7545 44.8722 22.133 45.0922 22.4313C45.333 22.7049 45.6865 22.8522 46.0504 22.8306Z" fill="#009CDE"/>
<path fill-rule="evenodd" clip-rule="evenodd" d="M35.6483 18.4004H34.1925C34.0508 18.4019 33.9197 18.4755 33.8448 18.5957L31.8371 21.7235L30.9861 18.718C30.9384 18.5337 30.7736 18.4038 30.5833 18.4004H29.1524C29.0684 18.4038 28.9909 18.4469 28.9438 18.5166C28.8967 18.5862 28.8856 18.6741 28.9137 18.7534L30.5163 23.7295L29.0087 25.98C28.9528 26.0596 28.9446 26.1633 28.9873 26.2507C29.03 26.3382 29.1168 26.3955 29.2139 26.4004H30.6675C30.8075 26.3989 30.9373 26.3273 31.0131 26.2096L35.8535 18.8196C35.909 18.7401 35.917 18.6367 35.8744 18.5496C35.8317 18.4624 35.7451 18.4053 35.6483 18.4004Z" fill="#003087"/>
<path fill-rule="evenodd" clip-rule="evenodd" d="M51.0881 15.6272L49.9035 24.088C49.8888 24.1617 49.9065 24.2381 49.9521 24.2979C49.9977 24.3577 50.0667 24.395 50.1416 24.4004H51.3335C51.5416 24.3901 51.7104 24.2283 51.7295 24.0209L52.8976 15.7129C52.9123 15.6391 52.8946 15.5627 52.849 15.5029C52.8035 15.4431 52.7344 15.4058 52.6594 15.4004H51.3253C51.2003 15.4052 51.0985 15.5026 51.0881 15.6272Z" fill="#009CDE"/>
<path fill-rule="evenodd" clip-rule="evenodd" d="M3.5 42H63.5C65.432 41.9977 66.9977 40.432 67 38.5V3.5C66.9977 1.56797 65.432 0.00233627 63.5 0H3.5C1.56797 0.00233627 0.00233627 1.56797 0 3.5V38.5C0.00233627 40.432 1.56797 41.9977 3.5 42ZM1 3.5C1.00162 2.11996 2.11996 1.00162 3.5 1H63.5C64.8801 1.00145 65.9986 2.11989 66 3.5V38.5C65.9987 39.8802 64.8802 40.9987 63.5 41H3.5C2.11989 40.9986 1.00145 39.8801 1 38.5V3.5Z" fill="white"/>
</svg>
