<svg width="67" height="42" viewBox="0 0 67 42" fill="none" xmlns="http://www.w3.org/2000/svg">
<rect x="0.5" y="0.5" width="66" height="41" rx="3.5" fill="white" stroke="white"/>
<path fill-rule="evenodd" clip-rule="evenodd" d="M9.80078 16.9996H12.0008C12.3008 16.9996 12.6008 16.9996 12.9008 17.0996C13.2008 17.1996 13.4008 17.2996 13.7008 17.3996C13.9008 17.4996 14.1008 17.6996 14.2008 17.9996C14.3008 18.2996 14.4008 18.5996 14.4008 18.8996C14.4008 19.2996 14.3008 19.6996 14.0008 19.9996C13.7008 20.2996 13.3008 20.4996 12.9008 20.5996L14.6008 23.3996H13.2008L11.7008 20.6996H10.9008V23.3996H9.80078V16.9996ZM11.9008 19.7996C12.1008 19.7996 12.2008 19.7996 12.4008 19.7996C12.6008 19.7996 12.7008 19.6996 12.8008 19.6996C12.9008 19.5996 13.0008 19.4996 13.1008 19.3996C13.2008 19.2996 13.2008 19.0996 13.2008 18.8996C13.2008 18.6996 13.2008 18.5996 13.1008 18.4996C13.0008 18.3996 12.9008 18.2996 12.8008 18.1996C12.7008 18.0996 12.5008 18.0996 12.4008 18.0996C12.3008 18.0996 12.1008 18.0996 12.0008 18.0996H11.0008V19.8996L11.9008 19.7996ZM19.3008 20.7996C19.3008 20.6996 19.3008 20.4996 19.2008 20.3996C19.1008 20.0996 18.9008 19.8996 18.7008 19.7996C18.6008 19.6996 18.4008 19.6996 18.2008 19.6996C17.9008 19.6996 17.6008 19.7996 17.4008 19.9996C17.2008 20.1996 17.0008 20.4996 17.0008 20.7996H19.3008ZM20.4008 21.2996V21.3996V21.4996H17.1008C17.1008 21.5996 17.2008 21.7996 17.2008 21.8996C17.3008 21.9996 17.4008 22.0996 17.5008 22.1996C17.6008 22.2996 17.7008 22.3996 17.9008 22.3996C18.0008 22.4996 18.2008 22.4996 18.4008 22.4996C18.6008 22.4996 18.9008 22.4996 19.1008 22.3996C19.3008 22.2996 19.4008 22.1996 19.6008 21.9996L20.3008 22.5996C19.9008 23.1996 19.2008 23.4996 18.4008 23.4996C18.1008 23.4996 17.8008 23.4996 17.5008 23.2996C17.2008 23.1996 17.0008 22.9996 16.8008 22.8996C16.6008 22.6996 16.4008 22.4996 16.3008 22.1996C16.2008 21.8996 16.1008 21.5996 16.1008 21.2996C16.1008 20.9996 16.2008 20.6996 16.3008 20.3996C16.5008 19.7996 17.0008 19.3996 17.5008 19.1996C17.7008 18.9996 18.0008 18.9996 18.3008 18.9996C18.6008 18.9996 18.9008 18.9996 19.1008 19.0996C19.4008 19.1996 19.6008 19.2996 19.8008 19.4996C20.0008 19.6996 20.1008 19.9996 20.2008 20.1996C20.4008 20.5996 20.4008 20.9996 20.4008 21.2996ZM25.4008 20.2996C25.3008 20.0996 25.2008 19.9996 25.0008 19.9996C24.8008 19.8996 24.7008 19.8996 24.5008 19.8996C24.3008 19.8996 24.1008 19.8996 24.0008 19.9996C23.9008 20.0996 23.7008 20.1996 23.6008 20.2996C23.5008 20.3996 23.4008 20.5996 23.4008 20.6996C23.4008 20.8996 23.3008 20.9996 23.3008 21.1996C23.3008 21.3996 23.3008 21.4996 23.4008 21.6996C23.4008 21.8996 23.5008 21.9996 23.6008 22.0996C23.7008 22.1996 23.8008 22.2996 24.0008 22.3996C24.2008 22.4996 24.3008 22.4996 24.5008 22.4996C24.7008 22.4996 24.8008 22.4996 25.0008 22.3996C25.2008 22.2996 25.3008 22.1996 25.4008 22.0996L26.1008 22.7996C25.9008 22.9996 25.7008 23.1996 25.4008 23.1996C25.1008 23.2996 24.8008 23.3996 24.5008 23.3996C24.2008 23.3996 23.9008 23.2996 23.6008 23.1996C23.0008 22.9996 22.6008 22.5996 22.3008 21.9996C22.2008 21.6996 22.1008 21.3996 22.1008 20.9996C22.1008 20.6996 22.2008 20.3996 22.3008 20.0996C22.4008 19.7996 22.6008 19.5996 22.8008 19.3996C23.0008 19.1996 23.3008 18.9996 23.5008 18.8996C24.1008 18.6996 24.7008 18.6996 25.3008 18.8996C25.6008 18.9996 25.8008 19.1996 26.0008 19.3996L25.4008 20.2996ZM30.3008 18.9996C30.5008 18.9996 30.8008 18.9996 31.0008 19.0996C31.2008 19.1996 31.4008 19.2996 31.5008 19.4996C31.6008 19.6996 31.7008 19.8996 31.8008 20.0996C31.9008 20.2996 31.9008 20.4996 31.9008 20.6996V23.3996H30.8008V20.9996C30.8008 20.8996 30.8008 20.6996 30.8008 20.5996C30.8008 20.4996 30.7008 20.2996 30.7008 20.1996C30.6008 20.0996 30.6008 19.9996 30.5008 19.8996C30.4008 19.7996 30.2008 19.7996 30.1008 19.7996C29.9008 19.7996 29.8008 19.7996 29.6008 19.8996C29.5008 19.9996 29.4008 20.0996 29.3008 20.1996C29.2008 20.2996 29.2008 20.3996 29.1008 20.5996C29.1008 20.6996 29.0008 20.8996 29.0008 20.9996V23.3996H27.9008V16.5996H29.0008V19.6996C29.0008 19.5996 29.1008 19.4996 29.2008 19.3996C29.3008 19.2996 29.4008 19.1996 29.5008 19.1996C29.6008 19.0996 29.7008 19.0996 29.9008 18.9996C29.9008 18.9996 30.1008 18.9996 30.3008 18.9996ZM34.1008 19.0996H35.1008V19.7996C35.2008 19.5996 35.4008 19.3996 35.6008 19.1996C35.8008 18.9996 36.1008 18.8996 36.4008 18.9996C36.6008 18.9996 36.9008 18.9996 37.1008 19.0996C37.3008 19.1996 37.5008 19.2996 37.6008 19.4996C37.7008 19.6996 37.8008 19.8996 37.9008 20.0996C38.0008 20.2996 38.0008 20.4996 38.0008 20.6996V23.3996H37.0008V20.9996C37.0008 20.8996 37.0008 20.6996 37.0008 20.5996C37.0008 20.4996 36.9008 20.2996 36.9008 20.1996C36.8008 20.0996 36.8008 19.9996 36.7008 19.8996C36.6008 19.7996 36.4008 19.7996 36.3008 19.7996C36.1008 19.7996 36.0008 19.7996 35.8008 19.8996C35.7008 19.9996 35.6008 20.0996 35.5008 20.1996C35.4008 20.2996 35.4008 20.3996 35.3008 20.5996C35.3008 20.6996 35.2008 20.8996 35.2008 20.9996V23.3996H34.1008V19.0996ZM44.3008 23.3996H43.3008V22.6996C43.2008 22.8996 43.0008 23.0996 42.8008 23.2996C42.6008 23.4996 42.3008 23.5996 42.0008 23.4996C41.8008 23.4996 41.5008 23.4996 41.3008 23.3996C41.1008 23.2996 40.9008 23.1996 40.8008 22.9996C40.7008 22.7996 40.6008 22.5996 40.5008 22.3996C40.4008 22.1996 40.4008 21.9996 40.4008 21.7996V19.0996H41.5008V21.4996C41.5008 21.5996 41.5008 21.7996 41.5008 21.8996C41.5008 21.9996 41.6008 22.1996 41.6008 22.2996C41.7008 22.3996 41.7008 22.4996 41.8008 22.5996C41.9008 22.6996 42.1008 22.6996 42.2008 22.6996C42.4008 22.6996 42.5008 22.6996 42.6008 22.5996C42.7008 22.4996 42.8008 22.3996 42.9008 22.2996C43.0008 22.1996 43.0008 22.0996 43.1008 21.8996C43.1008 21.7996 43.2008 21.5996 43.2008 21.4996V19.0996H44.3008V23.3996ZM46.6008 19.0996H47.6008V19.7996C47.7008 19.5996 47.9008 19.3996 48.1008 19.1996C48.4008 18.9996 48.7008 18.9996 49.0008 18.9996C49.2008 18.9996 49.5008 18.9996 49.7008 19.0996C49.9008 19.1996 50.1008 19.2996 50.2008 19.4996C50.3008 19.6996 50.4008 19.8996 50.5008 20.0996C50.6008 20.2996 50.6008 20.4996 50.6008 20.6996V23.3996H49.5008V20.9996C49.5008 20.8996 49.5008 20.6996 49.5008 20.5996C49.5008 20.4996 49.4008 20.2996 49.4008 20.1996C49.3008 20.0996 49.3008 19.9996 49.2008 19.8996C49.1008 19.7996 48.9008 19.7996 48.8008 19.7996C48.6008 19.7996 48.5008 19.7996 48.3008 19.8996C48.2008 19.9996 48.1008 20.0996 48.0008 20.1996C47.9008 20.2996 47.9008 20.3996 47.8008 20.5996C47.8008 20.6996 47.7008 20.8996 47.7008 20.9996V23.3996H46.6008V19.0996ZM57.2008 19.0996V22.9996C57.2008 23.3996 57.2008 23.6996 57.1008 24.0996C57.0008 24.3996 56.9008 24.6996 56.7008 24.8996C56.5008 25.0996 56.2008 25.2996 55.9008 25.3996C55.6008 25.4996 55.2008 25.5996 54.8008 25.5996C54.6008 25.5996 54.4008 25.5996 54.2008 25.5996C54.0008 25.5996 53.8008 25.4996 53.6008 25.4996C53.4008 25.3996 53.2008 25.3996 53.1008 25.2996C52.9008 25.1996 52.8008 25.0996 52.6008 24.9996L53.2008 24.1996C53.4008 24.3996 53.6008 24.4996 53.9008 24.6996C54.2008 24.7996 54.4008 24.8996 54.7008 24.8996C54.9008 24.8996 55.1008 24.8996 55.4008 24.7996C55.6008 24.6996 55.7008 24.5996 55.8008 24.4996C55.9008 24.3996 56.0008 24.1996 56.0008 23.9996C56.0008 23.7996 56.1008 23.5996 56.1008 23.3996V23.0996C55.9008 23.2996 55.7008 23.4996 55.5008 23.5996C55.2008 23.6996 55.0008 23.7996 54.7008 23.7996C54.4008 23.7996 54.1008 23.6996 53.8008 23.5996C53.5008 23.4996 53.3008 23.2996 53.1008 23.0996C52.9008 22.8996 52.8008 22.5996 52.7008 22.3996C52.6008 22.0996 52.5008 21.7996 52.5008 21.4996C52.5008 21.1996 52.5008 20.8996 52.6008 20.5996C52.7008 20.2996 52.8008 20.0996 53.0008 19.8996C53.2008 19.6996 53.4008 19.4996 53.7008 19.3996C54.0008 19.2996 54.3008 19.1996 54.6008 19.1996C54.9008 19.1996 55.2008 19.2996 55.5008 19.3996C55.8008 19.4996 56.0008 19.6996 56.1008 19.9996V19.3996H57.2008V19.0996ZM54.9008 19.7996C54.7008 19.7996 54.5008 19.7996 54.4008 19.8996C54.3008 19.9996 54.1008 20.0996 54.0008 20.1996C53.9008 20.2996 53.8008 20.4996 53.8008 20.5996C53.7008 20.7996 53.7008 20.9996 53.7008 21.0996C53.7008 21.2996 53.7008 21.3996 53.8008 21.5996C53.9008 21.7996 53.9008 21.8996 54.0008 21.9996C54.1008 22.0996 54.2008 22.1996 54.4008 22.2996C54.6008 22.3996 54.7008 22.3996 54.9008 22.3996C55.3008 22.3996 55.6008 22.2996 55.8008 21.9996C55.9008 21.8996 56.0008 21.6996 56.1008 21.5996C56.2008 21.3996 56.2008 21.2996 56.2008 21.0996C56.2008 20.8996 56.2008 20.6996 56.1008 20.5996C56.0008 20.3996 56.0008 20.2996 55.8008 20.1996C55.7008 20.0996 55.6008 19.9996 55.4008 19.8996C55.3008 19.8996 55.1008 19.7996 54.9008 19.7996Z" fill="black"/>
</svg>
