<svg width="67" height="42" viewBox="0 0 67 42" fill="none" xmlns="http://www.w3.org/2000/svg">
<rect width="67" height="42" rx="3" fill="white"/>
<path d="M29.1709 15.1809L24.2864 26.8191H21.0905L18.6784 17.5327C18.5578 16.99 18.3769 16.7487 17.9548 16.5075C17.2312 16.1457 16.0251 15.7236 15 15.5427L15.0603 15.1809H20.1859C20.8492 15.1809 21.4523 15.603 21.5729 16.3869L22.8392 23.1407L25.9749 15.2412H29.1709V15.1809ZM41.6533 23.0201C41.6533 19.9447 37.4322 19.7638 37.4322 18.4372C37.4322 18.0151 37.8543 17.593 38.6985 17.4724C39.1206 17.4121 40.3266 17.3518 41.6533 18.0151L42.196 15.5427C41.4724 15.3015 40.5678 15 39.3618 15C36.407 15 34.2965 16.5678 34.2965 18.8593C34.2965 20.5477 35.804 21.4523 36.9497 21.995C38.0955 22.5377 38.5176 22.8995 38.5176 23.4422C38.5176 24.2261 37.6131 24.5879 36.7085 24.5879C35.201 24.5879 34.2965 24.1658 33.6332 23.8643L33.0905 26.397C33.8141 26.6985 35.0804 27 36.407 27C39.5427 27 41.593 25.4322 41.6533 23.0201ZM49.4925 26.8191H52.2663L49.8543 15.1809H47.2613C46.6583 15.1809 46.1759 15.5427 45.995 16.0251L41.4724 26.8191H44.608L45.2111 25.0704H49.0703L49.4925 26.8191ZM46.1156 22.7186L47.6834 18.3769L48.5879 22.7186H46.1156ZM33.4523 15.1809L30.9799 26.8191H27.9648L30.4372 15.1809H33.4523Z" fill="#1A1F71"/>
</svg>
