<svg width="67" height="42" viewBox="0 0 67 42" fill="none" xmlns="http://www.w3.org/2000/svg">
<g clip-path="url(#clip0_32472_593)">
<rect x="0.5" y="0.5" width="66" height="41" rx="3.5" fill="white" stroke="#E6E6E6"/>
<g clip-path="url(#clip1_32472_593)">
<path d="M31.1566 18.8462C30.6984 18.9615 30.3844 19.0149 29.8191 19.0149C28.1381 19.0149 27.3438 17.9373 27.3438 16.2148C27.3438 14.4924 28.1381 13.4297 29.8191 13.4297C30.3844 13.4297 30.6972 13.483 31.1566 13.5983V14.7826C30.7896 14.6437 30.3388 14.5904 29.8807 14.5904C29.0556 14.5904 28.8721 15.3208 28.8721 16.2136C28.8721 17.1064 29.0556 17.8517 29.8807 17.8517C30.3388 17.8517 30.7896 17.7984 31.1566 17.6595V18.8437V18.8462Z" fill="#0091CD"/>
<path d="M34.1199 19.0168C32.5152 19.0168 31.6445 17.871 31.6445 16.2242C31.6445 14.5774 32.5152 13.4316 34.1199 13.4316C35.7246 13.4316 36.5953 14.5774 36.5953 16.2242C36.5953 17.871 35.7246 19.0168 34.1199 19.0168ZM34.1199 14.5936C33.4019 14.5936 33.1729 15.3624 33.1729 16.2242C33.1729 17.0861 33.4019 17.8549 34.1199 17.8549C34.8379 17.8549 35.0669 17.0861 35.0669 16.2242C35.0669 15.3624 34.8379 14.5936 34.1199 14.5936Z" fill="#0091CD"/>
<path d="M38.0897 19.1411H39.0823V19.8455H36.9629V19.3209C37.4617 18.9266 38.2363 18.2756 38.2363 17.7374C38.2363 17.4869 38.0897 17.3294 37.8225 17.3294C37.6082 17.3294 37.3373 17.379 37.123 17.4869V16.7739C37.3373 16.7019 37.5725 16.6523 37.9641 16.6523C38.623 16.6523 39.1267 16.9574 39.1267 17.6754C39.1267 18.3028 38.5873 18.7654 38.0885 19.1424L38.0897 19.1411Z" fill="#0091CD"/>
<path d="M23.332 20.5605H23.8727C24.0968 20.8247 24.5771 21.5662 24.699 21.7981V20.5605H25.2594V22.8112H24.699C24.5266 22.4504 24.103 21.7671 23.8924 21.4695V22.8112H23.332V20.5605Z" fill="#0091CD"/>
<path d="M25.707 20.5605H27.2698V21.0479H26.329V21.4187H27.1393V21.8986H26.329V22.3239H27.2698V22.8112H25.707V20.5605Z" fill="#0091CD"/>
<path d="M28.2242 21.9692C28.2242 22.2272 28.3141 22.3685 28.5001 22.3685C28.686 22.3685 28.7759 22.2272 28.7759 21.9692V20.5605H29.3966V21.9854C29.3966 22.5657 29.0567 22.8559 28.5001 22.8559C27.9434 22.8559 27.6035 22.5657 27.6035 21.9854V20.5605H28.2242V21.9692Z" fill="#0091CD"/>
<path d="M30.1736 21.0665H29.6133V20.5605H31.3547V21.0665H30.7943V22.8112H30.1736V21.0665Z" fill="#0091CD"/>
<path d="M31.5801 20.5794C31.8325 20.5373 32.1601 20.5273 32.3424 20.5273C32.9828 20.5273 33.335 20.7406 33.335 21.3011C33.335 21.6235 33.1626 21.8108 32.9385 21.9137C33.1306 22.1332 33.3325 22.4941 33.4729 22.8103H32.7845C32.6761 22.5523 32.4865 22.2237 32.372 22.0687C32.3658 22.0687 32.3178 22.0811 32.3042 22.0848C32.2525 22.0972 32.2045 22.1332 32.2045 22.3651V22.8103H31.5801V20.5794ZM32.2045 21.6471C32.2488 21.6273 32.3067 21.6186 32.3904 21.6087C32.5702 21.5888 32.7008 21.4896 32.7008 21.3024C32.7008 21.1151 32.5887 21.006 32.3325 21.006C32.2747 21.006 32.2488 21.0097 32.2045 21.0159V21.6483V21.6471Z" fill="#0091CD"/>
<path d="M34.9388 20.5605C35.1051 20.9152 35.5472 22.2309 35.6753 22.8112H35.0312C35.0053 22.6699 34.961 22.5111 34.9092 22.3375H34.307C34.2553 22.5111 34.211 22.6699 34.1851 22.8112H33.541C33.6691 22.2309 34.1112 20.9152 34.2775 20.5605H34.9376H34.9388ZM34.4203 21.8564H34.7984C34.7664 21.7014 34.6543 21.3207 34.61 21.1855C34.5656 21.3207 34.4536 21.7014 34.4216 21.8564H34.4203Z" fill="#0091CD"/>
<path d="M35.9258 20.5605H36.5465V22.3053H37.3026V22.8112H35.9258V20.5605Z" fill="#0091CD"/>
<path d="M37.5391 20.5605H39.1019V21.0479H38.161V21.4187H38.9713V21.8986H38.161V22.3239H39.1019V22.8112H37.5391V20.5605Z" fill="#0091CD"/>
<path d="M39.4414 20.5794C39.6939 20.5373 40.0215 20.5273 40.2037 20.5273C40.8441 20.5273 41.1963 20.7406 41.1963 21.3011C41.1963 21.6235 41.0239 21.8108 40.7998 21.9137C40.9919 22.1332 41.1939 22.4941 41.3343 22.8103H40.6458C40.5375 22.5523 40.3478 22.2237 40.2333 22.0687C40.2271 22.0687 40.1791 22.0811 40.1655 22.0848C40.1138 22.0972 40.0658 22.1332 40.0658 22.3651V22.8103H39.4414V20.5794ZM40.0658 21.6471C40.1101 21.6273 40.168 21.6186 40.2518 21.6087C40.4316 21.5888 40.5621 21.4896 40.5621 21.3024C40.5621 21.1151 40.45 21.006 40.1939 21.006C40.136 21.006 40.1101 21.0097 40.0658 21.0159V21.6483V21.6471Z" fill="#0091CD"/>
<path d="M25.5284 25.7878C25.3745 25.4269 24.9484 24.1051 24.8203 23.5371H25.4644C25.5223 23.924 25.7304 24.7747 25.8585 25.1616C25.9866 24.7747 26.191 23.924 26.2489 23.5371H26.8954C26.7674 24.1051 26.3412 25.4269 26.1873 25.7878H25.5272H25.5284Z" fill="#0091CD"/>
<path d="M27.1328 23.5371H28.6956V24.0244H27.7547V24.3952H28.5651V24.8751H27.7547V25.3005H28.6956V25.7878H27.1328V23.5371Z" fill="#0091CD"/>
<path d="M29.0352 23.556C29.2876 23.5138 29.6152 23.5039 29.7975 23.5039C30.4379 23.5039 30.7901 23.7172 30.7901 24.2777C30.7901 24.6001 30.6177 24.7874 30.3935 24.8903C30.5856 25.1098 30.7876 25.4706 30.928 25.7868H30.2396C30.1312 25.5289 29.9416 25.2003 29.827 25.0453C29.8209 25.0453 29.7728 25.0577 29.7593 25.0614C29.7076 25.0738 29.6595 25.1098 29.6595 25.3417V25.7868H29.0352V23.556ZM29.6595 24.6237C29.7039 24.6038 29.7618 24.5951 29.8455 24.5852C30.0253 24.5654 30.1558 24.4662 30.1558 24.2789C30.1558 24.0917 30.0438 23.9826 29.7876 23.9826C29.7297 23.9826 29.7039 23.9863 29.6595 23.9925V24.6249V24.6237Z" fill="#0091CD"/>
<path d="M31.1027 25.1395C31.3009 25.2362 31.5928 25.3453 31.849 25.3453C32.0288 25.3453 32.1273 25.2685 32.1273 25.142C32.1273 25.0254 32.0115 24.9746 31.8908 24.9386L31.7665 24.9027C31.4204 24.8059 31.0879 24.6447 31.0879 24.1673C31.0879 23.7159 31.434 23.4902 31.9647 23.4902C32.1889 23.4902 32.4229 23.5262 32.6408 23.6093V24.1189C32.4229 24.0284 32.2123 23.9776 31.9561 23.9776C31.812 23.9776 31.7283 24.0421 31.7283 24.1487C31.7283 24.2715 31.8847 24.326 32.0202 24.3645L32.1421 24.4004C32.5005 24.5034 32.7702 24.6844 32.7702 25.1221C32.7702 25.638 32.3379 25.8314 31.8453 25.8314C31.6088 25.8314 31.3046 25.767 31.1051 25.664V25.1383L31.1027 25.1395Z" fill="#0091CD"/>
<path d="M34.304 23.5371C34.4703 23.8918 34.9124 25.2075 35.0405 25.7878H34.3964C34.3705 25.6464 34.3262 25.4877 34.2745 25.3141H33.6723C33.6205 25.4877 33.5762 25.6464 33.5503 25.7878H32.9062C33.0343 25.2075 33.4764 23.8918 33.6427 23.5371H34.3028H34.304ZM33.7856 24.833H34.1636C34.1316 24.678 34.0195 24.2973 33.9752 24.1621C33.9309 24.2973 33.8188 24.678 33.7868 24.833H33.7856Z" fill="#0091CD"/>
<path d="M35.291 23.5371H35.8317C36.0558 23.8012 36.5361 24.5428 36.658 24.7747V23.5371H37.2184V25.7878H36.658C36.4856 25.4269 36.062 24.7437 35.8514 24.4461V25.7878H35.291V23.5371Z" fill="#0091CD"/>
<path d="M37.668 23.556C37.9241 23.5113 38.2406 23.5039 38.4266 23.5039C39.1988 23.5039 39.5694 23.9131 39.5694 24.6683C39.5694 25.4235 39.1975 25.8191 38.4266 25.8191C38.2406 25.8191 37.9044 25.8129 37.668 25.7806V23.556ZM38.2887 25.3268C38.3145 25.3305 38.3428 25.333 38.4069 25.333C38.7911 25.333 38.9291 25.0812 38.9291 24.6683C38.9291 24.2554 38.8047 23.9912 38.4069 23.9912C38.3428 23.9912 38.3145 23.995 38.2887 23.9974V25.3255V25.3268Z" fill="#0091CD"/>
<path d="M25.8496 27.5854H25.6255C25.6132 27.5569 25.6107 27.5048 25.6107 27.4961C25.5836 27.5433 25.4949 27.6065 25.4013 27.6065C25.1735 27.6065 25.0996 27.4502 25.0996 27.206C25.0996 26.9617 25.1735 26.8054 25.3866 26.8054C25.4875 26.8054 25.5491 26.8463 25.5787 26.8823V26.5078H25.8508V27.5842L25.8496 27.5854ZM25.4765 27.02C25.405 27.02 25.3742 27.0807 25.3742 27.206C25.3742 27.3312 25.405 27.392 25.4765 27.392C25.5479 27.392 25.5787 27.3312 25.5787 27.206C25.5787 27.0807 25.5479 27.02 25.4765 27.02Z" fill="#0091CD"/>
<path d="M26.0583 27.473C26.0374 27.4184 26.0312 27.3477 26.0312 27.2621V26.8281H26.3034V27.2212C26.3034 27.2832 26.3096 27.3241 26.3194 27.3489C26.333 27.3812 26.3551 27.3911 26.3847 27.3911C26.4524 27.3911 26.4857 27.3527 26.4857 27.2125V26.8294H26.7579V27.5883H26.5337C26.5214 27.5598 26.5189 27.5077 26.5189 27.499C26.4943 27.5486 26.4019 27.6094 26.2985 27.6094C26.1569 27.6094 26.0916 27.5622 26.0596 27.4754L26.0583 27.473Z" fill="#0091CD"/>
<path d="M26.9453 26.8279H27.1695C27.1818 26.8552 27.1842 26.9147 27.1842 26.9234C27.2015 26.8812 27.2495 26.8105 27.3677 26.8105C27.3973 26.8105 27.417 26.8155 27.4281 26.818V27.0586C27.4047 27.0524 27.3702 27.0499 27.3234 27.0499C27.252 27.0499 27.2175 27.0933 27.2175 27.164V27.5868H26.9453V26.8279Z" fill="#0091CD"/>
<path d="M28.0211 27.576C27.9743 27.5934 27.9189 27.6058 27.8253 27.6058C27.5826 27.6058 27.457 27.4495 27.457 27.2052C27.457 26.9609 27.5826 26.8047 27.8253 26.8047C27.9201 26.8047 27.9743 26.8171 28.0211 26.8344V27.044C27.962 27.0267 27.9336 27.0192 27.8634 27.0192C27.7772 27.0192 27.7317 27.0713 27.7317 27.2052C27.7317 27.3391 27.7772 27.3912 27.8634 27.3912C27.9349 27.3912 27.962 27.3838 28.0211 27.3664V27.576Z" fill="#0091CD"/>
<path d="M28.6249 27.1943C28.6249 27.1323 28.6187 27.0913 28.6089 27.0665C28.5953 27.0343 28.5731 27.0244 28.5436 27.0244C28.4759 27.0244 28.4401 27.0628 28.4401 27.203V27.5861H28.168V26.5098H28.4401V26.8781C28.4832 26.8409 28.5534 26.8061 28.631 26.8061C28.7726 26.8061 28.8379 26.8533 28.8699 26.9401C28.8896 26.9921 28.897 27.0653 28.897 27.1509V27.5849H28.6249V27.1918V27.1943Z" fill="#0091CD"/>
<path d="M29.4141 26.5469H29.701V27.0169C29.7182 26.9598 29.754 26.8854 29.8168 26.7961L29.9867 26.5469H30.3217L29.988 26.9958C30.0594 27.0677 30.2318 27.3169 30.3648 27.5848H30.0298C29.9707 27.4596 29.882 27.2983 29.7995 27.1967L29.7835 27.2177C29.749 27.2624 29.7022 27.3393 29.7022 27.4955V27.5848H29.4153V26.5469H29.4141Z" fill="#0091CD"/>
<path d="M30.7491 27.6058C30.5065 27.6058 30.3809 27.4495 30.3809 27.2052C30.3809 26.9609 30.5065 26.8047 30.7491 26.8047C30.9917 26.8047 31.1173 26.9609 31.1173 27.2052C31.1173 27.4495 30.9917 27.6058 30.7491 27.6058ZM30.7491 27.0192C30.6777 27.0192 30.6555 27.0887 30.6555 27.2052C30.6555 27.3218 30.6777 27.3912 30.7491 27.3912C30.8205 27.3912 30.8427 27.3218 30.8427 27.2052C30.8427 27.0887 30.8205 27.0192 30.7491 27.0192Z" fill="#0091CD"/>
<path d="M31.9253 26.9168C31.9524 26.8672 32.0411 26.8065 32.1347 26.8065C32.2615 26.8065 32.328 26.8536 32.36 26.9404C32.381 26.9949 32.3871 27.0656 32.3871 27.1512V27.5852H32.115V27.1921C32.115 27.1549 32.115 27.1016 32.1002 27.0644C32.0903 27.0396 32.0731 27.0222 32.0497 27.0222C31.993 27.0222 31.9586 27.0569 31.9586 27.2008V27.584H31.6864V27.1909C31.6864 27.1537 31.6864 27.1003 31.6716 27.0631C31.6618 27.0383 31.6445 27.021 31.6211 27.021C31.5645 27.021 31.53 27.0557 31.53 27.1996V27.5827H31.2578V26.8238H31.482C31.4943 26.8523 31.4967 26.9044 31.4967 26.9131C31.5238 26.8623 31.6162 26.8027 31.7049 26.8027C31.8317 26.8027 31.8908 26.8474 31.9241 26.9131L31.9253 26.9168Z" fill="#0091CD"/>
<path d="M32.5715 26.8277H32.7957C32.808 26.8562 32.8105 26.9083 32.8105 26.917C32.8376 26.8699 32.9139 26.8066 33.0198 26.8066C33.2477 26.8066 33.3215 26.9629 33.3215 27.2072C33.3215 27.4515 33.2477 27.6077 33.0346 27.6077C32.9336 27.6077 32.872 27.5656 32.8425 27.5308V27.8818H32.5703V26.829L32.5715 26.8277ZM32.9447 27.3932C33.0161 27.3932 33.0469 27.3324 33.0469 27.2072C33.0469 27.0819 33.0161 27.0212 32.9447 27.0212C32.8733 27.0212 32.8425 27.0819 32.8425 27.2072C32.8425 27.3324 32.8733 27.3932 32.9447 27.3932Z" fill="#0091CD"/>
<path d="M33.7591 27.3059C33.7295 27.3121 33.7172 27.3257 33.7172 27.3493C33.7172 27.3728 33.7369 27.3989 33.7862 27.3989C33.8724 27.3989 34.0276 27.3641 34.1286 27.3232V27.5377C34.0571 27.5774 33.9364 27.6097 33.7862 27.6097C33.535 27.6097 33.418 27.4534 33.418 27.2091C33.418 26.9648 33.5719 26.8086 33.8084 26.8086C34.0276 26.8086 34.1335 26.919 34.1335 27.0529C34.1335 27.1955 34.0522 27.2414 33.8724 27.2823L33.7591 27.3071V27.3059ZM33.6914 27.1546V27.1694C33.6914 27.1694 33.7049 27.1595 33.7382 27.1496L33.7924 27.136C33.8453 27.1223 33.865 27.1012 33.865 27.0665C33.865 27.0368 33.8404 27.0157 33.8071 27.0157C33.7308 27.0157 33.6901 27.0702 33.6901 27.1546H33.6914Z" fill="#0091CD"/>
<path d="M34.9832 26.9411C35.0042 26.9957 35.0103 27.0663 35.0103 27.1519V27.5859H34.7381V27.1928C34.7381 27.1308 34.732 27.0899 34.7221 27.0651C34.7086 27.0329 34.6864 27.0229 34.6569 27.0229C34.5891 27.0229 34.5534 27.0614 34.5534 27.2015V27.5847H34.2812V26.8258H34.5054C34.5177 26.8543 34.5202 26.9064 34.5202 26.9151C34.5448 26.8654 34.6396 26.8047 34.7431 26.8047C34.8847 26.8047 34.95 26.8518 34.982 26.9386L34.9832 26.9411Z" fill="#0091CD"/>
<path d="M35.7169 26.8506V27.0614C35.6282 27.0254 35.5383 27.0118 35.4915 27.0118C35.4558 27.0118 35.4324 27.0217 35.4324 27.0428C35.4324 27.0639 35.4497 27.0775 35.4977 27.0924L35.5568 27.1122C35.696 27.1581 35.7588 27.23 35.7588 27.3429C35.7588 27.509 35.6405 27.6058 35.4201 27.6058C35.3253 27.6058 35.2415 27.5859 35.1504 27.545V27.3205C35.2489 27.3726 35.3462 27.3974 35.4201 27.3974C35.462 27.3974 35.4792 27.3838 35.4792 27.3602C35.4792 27.3379 35.462 27.3255 35.4176 27.3106L35.3573 27.2895C35.2317 27.2461 35.1516 27.1817 35.1516 27.049C35.1516 26.9163 35.2464 26.8047 35.4632 26.8047C35.5642 26.8047 35.6492 26.822 35.7169 26.8493V26.8506Z" fill="#0091CD"/>
<path d="M36.5542 27.5854H36.33C36.3177 27.5569 36.3153 27.5048 36.3153 27.4961C36.2795 27.5556 36.1946 27.6028 36.0997 27.6028C35.9372 27.6028 35.8633 27.5048 35.8633 27.3833C35.8633 27.2518 35.9347 27.1725 36.117 27.1315L36.2241 27.108C36.2685 27.0981 36.282 27.0807 36.282 27.0547C36.282 27.0311 36.2524 27.0162 36.202 27.0162C36.096 27.0162 35.9803 27.046 35.9187 27.0733V26.8562C35.9926 26.829 36.0899 26.8066 36.2352 26.8066C36.4187 26.8066 36.5542 26.8736 36.5542 27.0968V27.5866V27.5854ZM36.282 27.2469C36.282 27.2469 36.2611 27.2568 36.25 27.2605L36.2007 27.2754C36.1502 27.2903 36.1318 27.3138 36.1318 27.356C36.1318 27.3919 36.1601 27.4167 36.1958 27.4167C36.2426 27.4167 36.2832 27.3808 36.2832 27.3051V27.2469H36.282Z" fill="#0091CD"/>
<path d="M36.7605 27.0306H36.6719V26.8285H36.7605V26.6698C36.7852 26.6561 36.8738 26.6164 37.0327 26.6016V26.8285H37.1953V27.0306H37.0327V27.3146C37.0327 27.384 37.0684 27.3927 37.1041 27.3927C37.146 27.3927 37.1719 27.3902 37.2199 27.3778V27.5849C37.2027 27.5911 37.1226 27.6072 37.0339 27.6072C36.8344 27.6072 36.7618 27.518 36.7618 27.3406V27.0294L36.7605 27.0306Z" fill="#0091CD"/>
<path d="M37.4641 26.4395C37.5527 26.4395 37.6254 26.5126 37.6254 26.6019C37.6254 26.6912 37.5527 26.7643 37.4641 26.7643C37.3754 26.7643 37.3027 26.6912 37.3027 26.6019C37.3027 26.5126 37.3754 26.4395 37.4641 26.4395ZM37.3286 26.8276H37.6008V27.5865H37.3286V26.8276Z" fill="#0091CD"/>
<path d="M38.1104 27.6058C37.8678 27.6058 37.7422 27.4495 37.7422 27.2052C37.7422 26.9609 37.8678 26.8047 38.1104 26.8047C38.353 26.8047 38.4786 26.9609 38.4786 27.2052C38.4786 27.4495 38.353 27.6058 38.1104 27.6058ZM38.1104 27.0192C38.039 27.0192 38.0168 27.0887 38.0168 27.2052C38.0168 27.3218 38.039 27.3912 38.1104 27.3912C38.1818 27.3912 38.204 27.3218 38.204 27.2052C38.204 27.0887 38.1818 27.0192 38.1104 27.0192Z" fill="#0091CD"/>
<path d="M39.3231 26.9411C39.344 26.9957 39.3502 27.0663 39.3502 27.1519V27.5859H39.078V27.1928C39.078 27.1308 39.0718 27.0899 39.062 27.0651C39.0484 27.0329 39.0263 27.0229 38.9967 27.0229C38.929 27.0229 38.8933 27.0614 38.8933 27.2015V27.5847H38.6211V26.8258H38.8452C38.8575 26.8543 38.86 26.9064 38.86 26.9151C38.8846 26.8654 38.9795 26.8047 39.0829 26.8047C39.2245 26.8047 39.2898 26.8518 39.3218 26.9386L39.3231 26.9411Z" fill="#0091CD"/>
<path d="M47.1119 18.8221C47.1119 18.8221 46.4974 20.2035 44.9149 21.9272C44.1772 22.7307 42.9186 23.884 42.1415 25.4303C41.5701 26.565 41.2585 27.9104 41.5996 29.4853C41.655 29.7383 41.7265 29.9987 41.8176 30.264C41.9851 30.7563 42.2166 31.2685 42.522 31.803C42.5664 31.8811 42.6095 31.9456 42.6538 32.0088C39.9838 34.691 36.3028 36.3515 32.2425 36.3515C24.1107 36.3515 17.4949 29.6899 17.4949 21.5019C17.4949 13.3138 24.1107 6.64979 32.2425 6.64979C38.0602 6.64979 43.3508 10.1083 45.7203 15.4603C45.793 15.624 45.9826 15.6984 46.1464 15.6253C46.309 15.5521 46.3829 15.3599 46.3102 15.1962C43.8361 9.60978 38.3139 6 32.2425 6C23.7548 6 16.8496 12.953 16.8496 21.4994C16.8496 30.0458 23.7548 36.9988 32.2425 36.9988C39.5516 36.9988 45.6858 31.8426 47.2499 24.9542C47.3127 26.6592 46.9457 30.0495 43.6366 33.0232C43.6366 33.0232 54.8866 32.3176 47.1132 18.8209L47.1119 18.8221Z" fill="#AABE00"/>
<path d="M37.1866 30.6952C37.0007 30.6952 36.8997 30.7411 36.8295 30.8589C36.7704 30.9581 36.7248 31.1119 36.7236 31.2161C36.7211 31.3301 36.7802 31.3984 36.9132 31.4331L37.1435 31.4963C37.263 31.5286 37.2839 31.5447 37.2827 31.5992C37.2827 31.6377 37.2667 31.6836 37.2408 31.7108C37.2149 31.7431 37.1731 31.7567 37.0844 31.7567H36.848C36.7494 31.7567 36.7039 31.7369 36.6854 31.6687H36.614L36.5364 31.9713C36.5302 32.006 36.5475 32.0432 36.5943 32.0432H37.2014C37.3443 32.0432 37.4354 32.0023 37.5081 31.9093C37.5819 31.8138 37.6324 31.6042 37.6349 31.4728C37.6374 31.3413 37.5856 31.288 37.4157 31.2371L37.1657 31.1627C37.1029 31.1429 37.0856 31.128 37.0869 31.0871C37.0869 31.0524 37.1004 31.0139 37.1214 30.9916C37.1521 30.9631 37.1866 30.9569 37.2975 30.9569H37.5438C37.6287 30.9569 37.6645 30.9284 37.6829 30.8552L37.726 30.6952H37.1854H37.1866ZM31.8172 30.6828C31.5413 30.6828 31.3861 30.7436 31.263 30.8999C31.1423 31.0573 31.0228 31.4393 31.0179 31.6836C31.0154 31.8324 31.0709 31.9489 31.1731 32.0023C31.2433 32.0382 31.3529 32.0556 31.5364 32.0556C31.7347 32.0556 31.8578 32.0382 31.9218 32.0023C31.9699 31.975 31.9797 31.9539 32.0154 31.8175L32.0635 31.6327H31.9859C31.912 31.7369 31.8578 31.7691 31.6287 31.7691C31.5154 31.7691 31.4502 31.7592 31.4206 31.7369C31.3812 31.7121 31.364 31.6712 31.3652 31.6178C31.3652 31.5955 31.3714 31.5645 31.3763 31.5372L31.4009 31.4318H31.9785C32.1041 31.4318 32.1423 31.4194 32.1682 31.3711C32.2026 31.3029 32.2383 31.133 32.2396 31.0301C32.2445 30.787 32.1177 30.6841 31.8159 30.6841L31.8172 30.6828ZM31.9231 31.2086H31.4625C31.5216 30.9941 31.5906 30.9284 31.7617 30.9284C31.8898 30.9284 31.9489 30.9743 31.9477 31.0722C31.9477 31.1082 31.9416 31.1404 31.9231 31.2086ZM36.4994 31.0288C36.5044 30.7858 36.3775 30.6828 36.0758 30.6828C35.7999 30.6828 35.6448 30.7436 35.5216 30.8999C35.4009 31.0573 35.2815 31.4393 35.2765 31.6836C35.2741 31.8324 35.3295 31.9489 35.4317 32.0023C35.5019 32.0382 35.6115 32.0556 35.795 32.0556C35.9933 32.0556 36.1164 32.0382 36.1805 32.0023C36.2285 31.975 36.2383 31.9539 36.2741 31.8175L36.3221 31.6327H36.2445C36.1706 31.7369 36.1164 31.7691 35.8874 31.7691C35.7741 31.7691 35.7088 31.7592 35.6792 31.7369C35.6398 31.7121 35.6226 31.6712 35.6238 31.6178C35.6238 31.5955 35.63 31.5645 35.6349 31.5372L35.6595 31.4318H36.2371C36.3627 31.4318 36.4009 31.4194 36.4268 31.3711C36.4613 31.3029 36.497 31.133 36.4982 31.0301L36.4994 31.0288ZM36.1829 31.2086H35.7223C35.7815 30.9941 35.8504 30.9284 36.0216 30.9284C36.1497 30.9284 36.2088 30.9743 36.2076 31.0722C36.2076 31.1082 36.2014 31.1404 36.1829 31.2086ZM30.7002 31.8733C30.7063 31.8435 31.0684 30.4274 31.0684 30.4274C31.0746 30.3927 31.0573 30.3555 31.0105 30.3555H30.6411L30.6287 30.4051C30.6928 30.4262 30.6718 30.4956 30.6657 30.5254C30.6497 30.596 30.5536 30.9755 30.5536 30.9755H30.0536L30.194 30.4274C30.2002 30.3927 30.1829 30.3555 30.1361 30.3555H29.7667L29.7544 30.4051C29.8184 30.4262 29.7975 30.4956 29.7913 30.5254C29.742 30.7473 29.4231 31.9713 29.4231 31.9713C29.4169 32.006 29.4342 32.0432 29.481 32.0432H29.8504L29.8615 31.9936C29.7975 31.9737 29.8184 31.903 29.8246 31.8733C29.8307 31.8435 29.9822 31.2458 29.9822 31.2458H30.4847L30.2975 31.9713C30.2913 32.006 30.3085 32.0432 30.3553 32.0432H30.7248L30.7359 31.9936C30.6718 31.9737 30.6928 31.903 30.6989 31.8733H30.7002ZM34.9477 31.9452C34.9465 31.9353 34.9477 31.9217 34.9551 31.8882C34.9551 31.8882 35.178 30.9941 35.1879 30.9532C35.2076 30.8701 35.2051 30.6841 34.9502 30.6841H34.7753C34.6829 30.6841 34.6337 30.7039 34.5733 30.7944L34.5081 30.8974C34.5154 30.792 34.4576 30.6828 34.2802 30.6828H34.1164C33.9797 30.6828 33.9465 30.7411 33.9132 30.782L33.8369 30.8837L33.8677 30.7647C33.8738 30.73 33.8553 30.6928 33.8085 30.6928H33.476L33.4637 30.7399C33.4945 30.7486 33.5105 30.7734 33.5105 30.8006C33.5105 30.813 33.5068 30.8242 33.5019 30.8478L33.2174 31.97C33.2113 32.0047 33.2285 32.0419 33.2753 32.0419H33.6041L33.6164 31.9923C33.5869 31.9812 33.5758 31.9589 33.5733 31.944C33.5721 31.9341 33.5733 31.9204 33.5807 31.8869C33.5807 31.8869 33.7654 31.1863 33.7691 31.1727C33.811 30.9929 33.8627 30.9718 33.9551 30.9606C33.9748 30.9581 33.992 30.9581 34.0228 30.9581C34.1164 30.9581 34.1423 31.0139 34.1287 31.0797C34.125 31.0958 33.9034 31.9713 33.9034 31.9713C33.8972 32.006 33.9145 32.0432 33.9613 32.0432H34.2901L34.3024 31.9936C34.2716 31.9824 34.2617 31.9601 34.2581 31.9452C34.2568 31.9353 34.2581 31.9217 34.2654 31.8882C34.2654 31.8882 34.4526 31.1764 34.4539 31.1739C34.5019 30.9953 34.5475 30.973 34.6423 30.9619C34.662 30.9594 34.6792 30.9594 34.71 30.9594C34.8049 30.9594 34.8307 31.0152 34.8172 31.0809C34.8172 31.0871 34.593 31.9725 34.593 31.9725C34.5869 32.0072 34.6041 32.0444 34.6509 32.0444H34.9797L34.992 31.9948C34.9625 31.9837 34.9514 31.9613 34.9477 31.9465V31.9452ZM32.8122 31.1702C32.8529 31.0065 32.896 30.9681 33.0388 30.9681H33.1694C33.2691 30.9681 33.3036 30.9457 33.3221 30.8726L33.3677 30.6952H33.1115C33.0278 30.6952 33.0204 30.6977 32.9797 30.756L32.8824 30.8862L32.9132 30.7672C32.9194 30.7324 32.9021 30.6952 32.8553 30.6952H32.5265L32.5142 30.7448C32.5438 30.756 32.5549 30.7783 32.5585 30.7932C32.5598 30.8031 32.5585 30.8168 32.5512 30.8502L32.2642 31.9725C32.2581 32.0072 32.2753 32.0444 32.3221 32.0444H32.6509L32.6632 31.9948C32.6337 31.9837 32.6226 31.9613 32.6189 31.9465C32.6177 31.9365 32.6189 31.9229 32.6263 31.8894L32.8122 31.1714V31.1702Z" fill="#3C3C41"/>
<path fill-rule="evenodd" clip-rule="evenodd" d="M29.1482 30.3555L29.0312 30.823H29.2739L29.3921 30.3555H29.1482Z" fill="#96969B"/>
<path fill-rule="evenodd" clip-rule="evenodd" d="M28.8789 31.4288H29.1215L29.2385 30.9688H28.9947L28.8789 31.4288Z" fill="#96969B"/>
<path fill-rule="evenodd" clip-rule="evenodd" d="M28.7246 32.0417H28.9648L29.083 31.5742H28.8416L28.7246 32.0417Z" fill="#96969B"/>
<path fill-rule="evenodd" clip-rule="evenodd" d="M28.8638 30.9688H27.3281V31.0717L27.7013 31.4288H28.7481L28.8638 30.9688Z" fill="#0091CD"/>
<path fill-rule="evenodd" clip-rule="evenodd" d="M29.0186 30.3555H26.707V30.482L27.0666 30.823H28.9004L29.0186 30.3555Z" fill="#0091CD"/>
<path fill-rule="evenodd" clip-rule="evenodd" d="M27.9648 31.6771L28.3478 32.0417H28.5954L28.7124 31.5742H27.9648V31.6771Z" fill="#0091CD"/>
</g>
</g>
<defs>
<clipPath id="clip0_32472_593">
<rect width="67" height="42" fill="white"/>
</clipPath>
<clipPath id="clip1_32472_593">
<rect width="33" height="31" fill="white" transform="translate(17 6)"/>
</clipPath>
</defs>
</svg>
