<svg width="67" height="42" viewBox="0 0 67 42" fill="none" xmlns="http://www.w3.org/2000/svg">
<path d="M63.5 42H3.5C1.57673 41.9767 0.0232726 40.4233 0 38.5V3.5C0.0232726 1.57673 1.57673 0.0232726 3.5 0H63.5C65.4233 0.0232726 66.9767 1.57673 67 3.5V38.5C66.9767 40.4233 65.4233 41.9767 63.5 42Z" fill="white"/>
<path fill-rule="evenodd" clip-rule="evenodd" d="M3.5 42H63.5C65.4233 41.9767 66.9767 40.4233 67 38.5V3.5C66.9767 1.57673 65.4233 0.0232726 63.5 0H3.5C1.57673 0.0232726 0.0232726 1.57673 0 3.5V38.5C0.0232726 40.4233 1.57673 41.9767 3.5 42ZM1.725 1.725C2.19527 1.25473 2.83497 0.993445 3.5 1H63.5C64.165 0.993445 64.8047 1.25473 65.275 1.725C65.7453 2.19527 66.0066 2.83497 66 3.5V38.5C66.0066 39.165 65.7453 39.8047 65.275 40.275C64.8047 40.7453 64.165 41.0066 63.5 41H3.5C2.83497 41.0066 2.19527 40.7453 1.725 40.275C1.25473 39.8047 0.993445 39.165 1 38.5V3.5C0.993445 2.83497 1.25473 2.19527 1.725 1.725Z" fill="white"/>
<path fill-rule="evenodd" clip-rule="evenodd" d="M55 24.6996H47.7V23.5996H55V24.6996ZM11 27.5996H18.3V26.4996H11V27.5996ZM47.7 27.6996H55V26.5996H47.7V27.6996ZM11 24.6996H18.3V23.5996H11V24.6996Z" fill="#FFCC00"/>
<path fill-rule="evenodd" clip-rule="evenodd" d="M20 27.5996H22.2L22.6 27.0996H20.9L21.8 25.7996H23.3L23.7 25.2996H22.2L23 24.0996H24.6L25 23.5996H22.8L20 27.5996Z" fill="#E30017"/>
<path fill-rule="evenodd" clip-rule="evenodd" d="M22.8008 27.5996H23.5008L26.1008 25.8996V27.5996H26.9008V25.5996L29.8008 23.5996H29.1008L26.8008 25.1996V23.5996H26.0008V25.5996L22.8008 27.5996Z" fill="#E30017"/>
<path fill-rule="evenodd" clip-rule="evenodd" d="M27.5 27.5996H28.1L29.3 25.9996H29.9C30.8171 26.0013 31.6767 25.5528 32.2 24.7996C32.9 23.8996 32.4 23.5996 31.5 23.5996H30.4L27.5 27.5996ZM30.7 24.0996H31.2C31.6 24.0996 32 24.2996 31.6 24.7996C31.2805 25.2007 30.8108 25.4537 30.3 25.4996H29.7L30.7 24.0996Z" fill="#E30017"/>
<path fill-rule="evenodd" clip-rule="evenodd" d="M34.1 24.0996H34.7C35.2 24.0996 35.4 24.2996 35.1 24.6996C34.7841 25.0916 34.3032 25.3135 33.8 25.2996H33.3L34.1 24.0996ZM31 27.5996H31.6L32.9 25.7996H33.3C33.6 25.7996 33.8 25.7996 33.7 26.1996L33.3 27.5996H34L34.4 25.9996C34.5 25.7996 34.4 25.6996 34.3 25.5996C34.8964 25.5018 35.433 25.1799 35.8 24.6996C36.5 23.6996 35.8 23.5996 35 23.5996H34L31 27.5996Z" fill="#E30017"/>
<path fill-rule="evenodd" clip-rule="evenodd" d="M34.8984 27.5996H37.0984L37.4984 27.0996H35.7984L36.6984 25.7996H38.1984L38.5984 25.2996H37.0984L37.8984 24.0996H39.4984L39.8984 23.5996H37.6984L34.8984 27.5996Z" fill="#E30017"/>
<path fill-rule="evenodd" clip-rule="evenodd" d="M42.8984 23.8002C42.6417 23.7115 42.3692 23.6774 42.0984 23.7002C41.2626 23.7093 40.4818 24.1183 39.9984 24.8002C39.0984 26.0002 41.0984 25.8002 40.3984 26.6002C40.0864 26.9971 39.6029 27.2203 39.0984 27.2002C38.8497 27.21 38.6044 27.1399 38.3984 27.0002L37.8984 27.5002C38.1109 27.6255 38.3519 27.6944 38.5984 27.7002C39.5488 27.7269 40.4495 27.2765 40.9984 26.5002C41.9984 25.2002 40.0984 25.4002 40.5984 24.7002C40.8699 24.3748 41.2748 24.1908 41.6984 24.2002C41.9491 24.1715 42.2008 24.2434 42.3984 24.4002L42.8984 23.8002Z" fill="#E30017"/>
<path fill-rule="evenodd" clip-rule="evenodd" d="M46 23.8002C45.7432 23.7115 45.4707 23.6774 45.2 23.7002C44.3642 23.7093 43.5834 24.1183 43.1 24.8002C42.2 26.0002 44.2 25.8002 43.5 26.6002C43.188 26.9971 42.7045 27.2203 42.2 27.2002C41.9513 27.21 41.706 27.1399 41.5 27.0002L41 27.5002C41.2124 27.6255 41.4534 27.6944 41.7 27.7002C42.6504 27.7269 43.5511 27.2765 44.1 26.5002C45.1 25.2002 43.2 25.4002 43.7 24.7002C43.9714 24.3748 44.3763 24.1908 44.8 24.2002C45.0506 24.1715 45.3024 24.2434 45.5 24.4002L46 23.8002Z" fill="#E30017"/>
<path fill-rule="evenodd" clip-rule="evenodd" d="M18.3111 14.2637L16.7539 16.3965H25.2407C25.6697 16.3965 25.6642 16.5608 25.4545 16.8472C25.2416 17.138 24.8852 17.6434 24.6683 17.9386C24.5582 18.0886 24.3592 18.3616 25.0187 18.3616H28.4893C28.4893 18.3616 29.0487 17.5941 29.5176 16.9526C30.1556 16.0798 29.5729 14.2637 27.2923 14.2637H18.3111" fill="#E30017"/>
<path fill-rule="evenodd" clip-rule="evenodd" d="M16.125 21.212L19.2527 16.9277H23.1341C23.5631 16.9277 23.5574 17.0921 23.3478 17.3784C23.1349 17.6692 22.7726 18.1693 22.5557 18.4647C22.4457 18.6144 22.2466 18.8879 22.906 18.8879H28.1058C27.115 20.3203 25.4934 21.1859 23.7519 21.212H16.125" fill="#E30017"/>
<path fill-rule="evenodd" clip-rule="evenodd" d="M34.0374 18.8887L32.3413 21.2134H27.8672L29.5638 18.8892L34.0374 18.8887Z" fill="#E30017"/>
<path fill-rule="evenodd" clip-rule="evenodd" d="M40.8932 18.3617H29.9492L32.9422 14.2637H37.4152L35.7002 16.6137H37.6962L39.4122 14.2637H43.8842L40.8932 18.3617Z" fill="#E30017"/>
<path fill-rule="evenodd" clip-rule="evenodd" d="M40.5094 18.8887L38.8124 21.2128H34.3398L36.0367 18.8887H40.5094Z" fill="#E30017"/>
<path fill-rule="evenodd" clip-rule="evenodd" d="M50.0793 14.2637L47.0872 18.3617H42.3477L45.3421 14.2637H50.0793" fill="#E30017"/>
<path fill-rule="evenodd" clip-rule="evenodd" d="M41.9623 18.8887C41.9624 18.8887 41.6355 19.3391 41.4765 19.5556C40.9146 20.3211 41.4115 21.2128 43.2448 21.2128H50.428L52.1247 18.8887H41.9623Z" fill="#E30017"/>
</svg>
