<svg width="67" height="42" viewBox="0 0 67 42" fill="none" xmlns="http://www.w3.org/2000/svg">
<g clip-path="url(#clip0_22249_663)">
<rect width="67" height="42" fill="white"/>
<rect x="0.5" y="0.5" width="66" height="41" rx="3.5" fill="white" stroke="#E6E6E6"/>
<path d="M58 7H10V17.417H58V7Z" fill="#FFCC00"/>
<path d="M10 14.2012H16.4913L16.1367 14.6759H10V14.2012Z" fill="#D40511"/>
<path d="M10 13.3203H17.1507L16.7956 13.7943H10V13.3203Z" fill="#D40511"/>
<path d="M10 15.082H15.8322L15.4791 15.5532H10V15.082Z" fill="#D40511"/>
<path d="M57.9991 14.6753H51.5332L51.8876 14.2012H57.9991V14.6753Z" fill="#D40511"/>
<path d="M58.0003 15.5532L50.877 15.554L51.2298 15.082H58.0003V15.5532Z" fill="#D40511"/>
<path d="M52.5483 13.3203H58.0008V13.7947L52.1934 13.795L52.5483 13.3203Z" fill="#D40511"/>
<path d="M16.2871 15.5532L19.3675 11.4375H23.1898C23.6123 11.4375 23.6069 11.5952 23.4003 11.8705C23.1906 12.1499 22.8339 12.6302 22.6202 12.9138C22.5118 13.058 22.3159 13.3204 22.9653 13.3204H28.0861C27.6602 13.8941 26.2787 15.5532 23.7984 15.5532H16.2871Z" fill="#D40511"/>
<path d="M33.9281 13.3203L32.2578 15.5534H27.8516C27.8516 15.5534 29.521 13.3207 29.5226 13.3207L33.9281 13.3203Z" fill="#D40511"/>
<path d="M40.3005 13.3203L38.6293 15.553H34.2246C34.2246 15.553 35.8942 13.3203 35.8958 13.3203H40.3005Z" fill="#D40511"/>
<path d="M41.7326 13.3203C41.7326 13.3203 41.4109 13.7533 41.2545 13.9611C40.7011 14.6965 41.1902 15.5531 42.9959 15.5531H50.0698L51.7407 13.3203H41.7326Z" fill="#D40511"/>
<path d="M18.4419 8.87909L16.9082 10.9281H25.2663C25.6888 10.9281 25.6832 11.0858 25.4768 11.3609C25.2672 11.64 24.9162 12.1259 24.7026 12.4094C24.5943 12.5531 24.3982 12.8157 25.0476 12.8157H28.4656C28.4656 12.8157 29.0164 12.0784 29.4782 11.462C30.1066 10.6236 29.5327 8.87891 27.2867 8.87891L18.4419 8.87909Z" fill="#D40511"/>
<path d="M40.6775 12.8157H29.9004L32.8475 8.87891H37.2521L35.5635 11.1362H37.5294L39.2197 8.87891H43.6237L40.6775 12.8157Z" fill="#D40511"/>
<path d="M49.7254 8.87891L46.779 12.8157H42.1113C42.1113 12.8157 45.0588 8.87891 45.0603 8.87891H49.7254Z" fill="#D40511"/>
<path d="M44.1412 21.3906H10.1523V33.8527H44.1412V21.3906Z" fill="white"/>
<path d="M44.0791 28.3606H13.2305V26.3863V24.4121H44.0791V28.3606Z" fill="#FFCC00"/>
<path d="M43.9834 21.5502V33.7024H10.3024V21.5502H43.9834ZM44.2858 21.252H10V34.0006H44.2858V21.252Z" fill="#007C39"/>
<path d="M14.8073 28.4507C14.3856 28.4742 13.9711 28.3348 13.6519 28.0619C13.5093 27.9251 13.3979 27.7599 13.3253 27.5773C13.2526 27.3947 13.2202 27.199 13.2303 27.0031C13.2303 26.9113 13.2364 26.8056 13.2485 26.686C13.2607 26.5663 13.2789 26.4447 13.3031 26.321C13.3781 25.7657 13.6248 25.2466 14.0097 24.8345C14.186 24.6644 14.3954 24.5314 14.6253 24.4435C14.8552 24.3556 15.1007 24.3146 15.3472 24.323C15.6025 24.3123 15.8568 24.3608 16.0896 24.4647C16.3224 24.5686 16.5272 24.725 16.6876 24.9212L16.1175 25.4298C16.0267 25.3175 15.9117 25.2265 15.7808 25.1636C15.6479 25.107 15.5041 25.0795 15.3593 25.0828C15.2158 25.076 15.0726 25.1007 14.94 25.155C14.8073 25.2093 14.6885 25.2919 14.592 25.3968C14.3694 25.6872 14.2301 26.0312 14.1887 26.3929C14.1684 26.4967 14.1532 26.5993 14.1432 26.701C14.1331 26.8027 14.1281 26.8894 14.128 26.9613C14.1146 27.1588 14.1811 27.3535 14.3131 27.5026C14.3826 27.568 14.4652 27.6185 14.5554 27.6509C14.6457 27.6834 14.7419 27.697 14.8377 27.691C15.0659 27.6993 15.2881 27.6187 15.4565 27.4667C15.6303 27.2929 15.7393 27.0662 15.7659 26.8236L15.7719 26.7877H14.9713L15.0986 26.0698H16.7727L16.6756 26.6261C16.4612 27.8426 15.8384 28.4508 14.8073 28.4507ZM18.8348 28.4507C18.4076 28.4744 17.9872 28.3376 17.6581 28.0679C17.5137 27.9359 17.4003 27.7743 17.3259 27.5945C17.2515 27.4147 17.2179 27.2209 17.2275 27.0269C17.2316 26.79 17.256 26.5539 17.3003 26.321C17.3689 25.7683 17.6094 25.25 17.9887 24.8374C18.1631 24.6664 18.3712 24.5324 18.6002 24.4439C18.8292 24.3554 19.0742 24.3142 19.32 24.3229C19.7472 24.2993 20.1676 24.4361 20.4967 24.7057C20.6411 24.8378 20.7545 24.9994 20.8289 25.1792C20.9033 25.359 20.9369 25.5527 20.9274 25.7467C20.9233 25.9836 20.8989 26.2197 20.8546 26.4526C20.786 27.0054 20.5455 27.5237 20.1662 27.9362C19.9918 28.1073 19.7836 28.2412 19.5546 28.3297C19.3256 28.4182 19.0807 28.4594 18.8348 28.4507ZM18.8591 27.691C18.9964 27.6964 19.1332 27.6707 19.2589 27.6157C19.3846 27.5607 19.4958 27.478 19.5839 27.3739C19.7971 27.0813 19.9298 26.7391 19.9691 26.3808C19.9892 26.2773 20.0044 26.1706 20.0145 26.0608C20.0247 25.951 20.0298 25.8603 20.0297 25.7886C20.0367 25.6926 20.0232 25.5962 19.9903 25.5056C19.9574 25.415 19.9057 25.3321 19.8386 25.2623C19.6885 25.1346 19.4935 25.0702 19.2957 25.0828C19.1584 25.0774 19.0216 25.1032 18.8959 25.1581C18.7702 25.2131 18.659 25.2958 18.5709 25.3999C18.3577 25.6925 18.225 26.0347 18.1858 26.393C18.1652 26.4988 18.15 26.6056 18.1403 26.7129C18.1301 26.8226 18.1251 26.9134 18.1251 26.9851C18.1182 27.0812 18.1315 27.1776 18.1644 27.2682C18.1973 27.3588 18.249 27.4417 18.3161 27.5116C18.4663 27.6392 18.6613 27.7037 18.8591 27.691Z" fill="#4B4B4B"/>
<path d="M22.9655 28.4515C22.5438 28.475 22.1293 28.3355 21.8101 28.0626C21.6675 27.9259 21.5562 27.7607 21.4835 27.5781C21.4108 27.3955 21.3784 27.1997 21.3885 27.0038C21.3885 26.9121 21.3946 26.8064 21.4067 26.6867C21.4189 26.5671 21.4371 26.4454 21.4613 26.3218C21.5363 25.7664 21.783 25.2473 22.1679 24.8353C22.3442 24.6652 22.5536 24.5322 22.7835 24.4443C23.0134 24.3563 23.259 24.3153 23.5054 24.3237C23.7607 24.313 24.015 24.3616 24.2478 24.4655C24.4806 24.5694 24.6854 24.7257 24.8458 24.922L24.2757 25.4305C24.1849 25.3182 24.0699 25.2273 23.939 25.1643C23.8061 25.1078 23.6623 25.0802 23.5175 25.0836C23.374 25.0768 23.2308 25.1014 23.0982 25.1557C22.9655 25.21 22.8467 25.2926 22.7502 25.3976C22.5276 25.6879 22.3883 26.032 22.3469 26.3937C22.3266 26.4974 22.3114 26.6001 22.3014 26.7018C22.2913 26.8035 22.2863 26.8902 22.2862 26.962C22.2727 27.1595 22.3392 27.3543 22.4712 27.5034C22.5408 27.5689 22.6233 27.6194 22.7136 27.6518C22.8038 27.6842 22.9 27.6979 22.9959 27.6919C23.2239 27.7001 23.4462 27.6196 23.6145 27.4675C23.7883 27.2937 23.8973 27.0671 23.9239 26.8244L23.9299 26.7885H23.1293L23.2567 26.0707H24.9307L24.8337 26.627C24.6193 27.8434 23.9966 28.4516 22.9655 28.4515ZM25.2643 28.3618L25.9679 24.4135H27.3691C27.7437 24.3921 28.115 24.4941 28.4245 24.7036C28.5459 24.7908 28.6441 24.9058 28.7106 25.0386C28.7772 25.1715 28.8101 25.3182 28.8066 25.4664C28.8066 25.5142 28.8035 25.571 28.7975 25.6368C28.7914 25.7026 28.7823 25.7694 28.7701 25.8373C28.7354 26.077 28.6382 26.3037 28.4881 26.4953C28.3344 26.6719 28.1305 26.799 27.9028 26.8603L28.5033 28.3618H27.5267L27.0233 26.9619H26.3986L26.1499 28.3618H25.2643ZM27.2598 25.1254H26.7261L26.5259 26.2501H27.0718C27.2753 26.2632 27.4786 26.2219 27.6601 26.1304C27.7278 26.0851 27.7846 26.0258 27.8265 25.9565C27.8684 25.8873 27.8944 25.8098 27.9028 25.7296C27.9099 25.7042 27.9139 25.6781 27.9149 25.6518V25.6159C27.9149 25.2889 27.6965 25.1254 27.2598 25.1254ZM29.1461 28.3618L29.8497 24.4135H32.4881L32.3547 25.1672H30.614L30.4623 25.9988H32.0272L31.8998 26.7286H30.3349L30.1772 27.608H31.9787L31.8452 28.3618H29.1461ZM32.6154 28.3618L33.319 24.4135H35.9575L35.824 25.1672H34.0834L33.9318 25.9988H35.4967L35.3693 26.7286H33.8044L33.6467 27.608H35.4481L35.3147 28.3618H32.6154ZM36.0544 28.3618L36.758 24.4135H37.8983L38.705 27.2072H38.8021L39.2994 24.4135H40.1425L39.439 28.3618H38.2986L37.492 25.5681H37.3949L36.8975 28.3618H36.0544Z" fill="#007C39"/>
</g>
<defs>
<clipPath id="clip0_22249_663">
<rect width="67" height="42" fill="white"/>
</clipPath>
</defs>
</svg>
