<svg width="67" height="42" viewBox="0 0 67 42" fill="none" xmlns="http://www.w3.org/2000/svg">
<rect x="0.5" y="0.5" width="66" height="41" rx="3.5" fill="white" stroke="#E6E6E6"/>
<path fill-rule="evenodd" clip-rule="evenodd" d="M21.1718 18.097C21.2136 18.151 21.2273 18.2215 21.2088 18.2872L21.2087 18.2873C21.2087 18.2873 19.8618 23.5247 19.7934 23.641C19.7907 23.653 19.7874 23.6664 19.7838 23.6809L19.7838 23.6809C19.7507 23.8153 19.6944 24.0435 19.9165 24.0991L19.8892 24.2837H18.508C18.4389 24.2879 18.3721 24.2577 18.3297 24.203C18.2873 24.1483 18.2747 24.0761 18.296 24.0102L19.0003 21.3162H17.1337C17.1337 21.3162 16.5798 23.5247 16.5525 23.6478C16.5498 23.6598 16.5465 23.6732 16.5429 23.6877C16.5098 23.8222 16.4534 24.0504 16.6756 24.1059L16.6482 24.2905H15.2671C15.198 24.2948 15.1312 24.2646 15.0888 24.2098C15.0464 24.1551 15.0338 24.0829 15.0551 24.017C15.0551 24.017 16.2516 19.4839 16.4363 18.6565C16.4389 18.6445 16.4423 18.6311 16.4458 18.6166L16.4458 18.6166C16.479 18.4822 16.5353 18.254 16.3132 18.1984L16.3405 18.0138H17.7217C17.9063 18.0138 17.961 18.1369 17.9337 18.2873L17.414 20.3111H19.2806C19.2806 20.3111 19.6498 18.93 19.7114 18.6565C19.7141 18.6445 19.7174 18.6311 19.721 18.6165C19.7541 18.4821 19.8105 18.2539 19.5883 18.1984L19.6156 18.0137H20.9968C21.065 18.0122 21.13 18.0431 21.1718 18.097ZM41.1602 21.7537C41.3224 21.353 41.4149 20.9275 41.4337 20.4957L41.4337 20.4957C41.461 19.6069 40.9756 19.2034 39.8405 19.2103C39.0652 19.11 38.2921 19.4115 37.7893 20.0102C37.2324 20.8833 36.9163 21.8882 36.8731 22.923C36.8291 23.3896 37.0546 23.8406 37.4543 24.0853C37.8854 24.2403 38.3443 24.3032 38.8012 24.27C39.2897 24.3063 39.7804 24.2435 40.2439 24.0853C40.4285 23.9896 40.4559 23.9007 40.579 23.4084L40.7636 22.7315H40.4901C40.2098 23.1007 40.0252 23.2238 39.1705 23.2238C38.9088 23.2524 38.6442 23.2099 38.4047 23.1007C38.2611 23.0062 38.18 22.8414 38.1927 22.67C38.188 22.5666 38.1972 22.4631 38.2201 22.3623L38.309 21.9657H40.4559C40.914 21.9657 41.0713 21.9384 41.1602 21.7537ZM25.2899 21.7535C25.4521 21.3528 25.5446 20.9273 25.5634 20.4954C25.5907 19.6065 25.0984 19.2031 23.9976 19.2442C23.2222 19.1439 22.4492 19.4454 21.9464 20.0442C21.3895 20.9173 21.0734 21.9222 21.0302 22.9569C20.9862 23.4236 21.2117 23.8746 21.6114 24.1193C22.0425 24.2743 22.5014 24.3372 22.9583 24.3039C23.4467 24.3403 23.9375 24.2775 24.401 24.1193C24.5856 24.0236 24.6129 23.9347 24.736 23.4424L24.9207 22.7655H24.6472C24.3668 23.1347 24.1822 23.2578 23.3275 23.2578C23.0659 23.2864 22.8013 23.2439 22.5618 23.1347C22.4182 23.0402 22.337 22.8754 22.3498 22.7039C22.345 22.6006 22.3542 22.4971 22.3772 22.3963L22.466 21.9997H24.613C25.0779 21.9997 25.201 21.9381 25.2899 21.7535ZM45.8496 19.8459L46 19.2648V19.2511H43.9761C43.4531 19.1759 42.9351 19.4174 42.6565 19.8665C42.4251 20.2702 42.2894 20.7217 42.2599 21.1861C42.2491 21.596 42.5562 21.9449 42.9642 21.9861L43.8804 22.2322C44.3385 22.3279 44.4 22.3895 44.4 22.6014C44.3959 22.7468 44.3429 22.8865 44.2496 22.998C44.0834 23.1231 43.8744 23.1772 43.6684 23.1484H42.7796C42.4104 23.1484 42.2258 23.0596 42.1642 22.8134H41.8907L41.6172 23.9484C41.583 24.0988 41.6445 24.2219 41.8292 24.2219H44.106C44.5422 24.2542 44.9665 24.0702 45.241 23.7296C45.5347 23.2396 45.6928 22.6804 45.6991 22.1091C45.6991 21.6237 45.5145 21.4391 44.8718 21.2545L43.9556 20.981C43.7095 20.9194 43.6479 20.8647 43.6479 20.7075C43.6367 20.5727 43.6812 20.4393 43.771 20.3383C43.8599 20.2425 44.0171 20.2152 44.4137 20.2152H45.3299C45.6376 20.2152 45.788 20.1194 45.8496 19.8459ZM24.4912 20.6464C24.4912 20.2772 24.2792 20.1268 23.7869 20.1268C23.1442 20.1268 22.8981 20.3729 22.6861 21.1661H24.3955C24.449 20.9975 24.4811 20.8229 24.4912 20.6464ZM40.3618 20.6464C40.3618 20.2772 40.1499 20.1268 39.6576 20.1268C39.0149 20.1268 38.7687 20.3729 38.5568 21.1661H40.273C40.3249 20.9974 40.3548 20.8227 40.3619 20.6464H40.3618ZM35.6706 19.2381H34.9936C34.6888 19.2026 34.3941 19.3609 34.2552 19.6346L34.009 20.0312C34.0364 19.6346 33.8244 19.2312 33.1544 19.2312H32.539C32.2334 19.1932 31.9338 19.3376 31.7732 19.6004L31.4997 19.9697L31.6228 19.5389C31.6441 19.473 31.6315 19.4009 31.5891 19.3461C31.5467 19.2914 31.4799 19.2612 31.4108 19.2654H30.1869L30.1254 19.4501C30.2296 19.4676 30.307 19.5563 30.31 19.662C30.3121 19.7247 30.3029 19.7873 30.2827 19.8466L29.2092 24.0105C29.1878 24.0764 29.2004 24.1486 29.2428 24.2033C29.2853 24.2581 29.352 24.2883 29.4211 24.284H30.645L30.6724 24.0994C30.5829 24.0844 30.5185 24.0054 30.5219 23.9148C30.5227 23.8433 30.5318 23.7721 30.5493 23.7028C30.5493 23.7028 31.2535 21.0977 31.2535 21.0704C31.404 20.3935 31.5886 20.3319 31.9578 20.2704H32.2039C32.539 20.2704 32.6621 20.4824 32.6005 20.7285C32.6005 20.7901 31.7732 24.0378 31.7732 24.0378C31.7518 24.1037 31.7645 24.1759 31.8069 24.2306C31.8493 24.2854 31.916 24.3156 31.9851 24.3113H33.209L33.2364 24.1267C33.147 24.1117 33.0825 24.0327 33.086 23.9421C33.0867 23.8706 33.0959 23.7994 33.1133 23.7301L33.8176 21.0977C34.0022 20.4208 34.1526 20.3592 34.5218 20.2977H34.768C35.1372 20.2977 35.2261 20.5097 35.1646 20.7558C35.1646 20.7832 34.3373 24.0651 34.3373 24.0651C34.3159 24.131 34.3285 24.2032 34.3709 24.2579C34.4134 24.3127 34.4801 24.3429 34.5492 24.3386H35.7731L35.8005 24.154C35.711 24.139 35.6466 24.06 35.6501 23.9694C35.6508 23.8979 35.66 23.8267 35.6774 23.7574C35.6774 23.7574 36.5047 20.4481 36.5321 20.2977C36.621 19.9148 36.621 19.2379 35.6706 19.2379L35.6706 19.2381ZM28.3212 19.4776C28.4785 19.2657 28.5058 19.2657 28.8135 19.2657L29.7913 19.2862L29.6066 19.9289C29.5451 20.2093 29.422 20.2981 29.0528 20.2981H28.5605C28.0135 20.2981 27.8563 20.4212 27.7058 21.0366L27.0016 23.7032C26.9841 23.7725 26.9749 23.8436 26.9742 23.9151C26.9708 24.0058 27.0352 24.0848 27.1247 24.0998L27.0973 24.2844H25.8734C25.8043 24.2886 25.7376 24.2584 25.6951 24.2037C25.6527 24.149 25.6401 24.0768 25.6614 24.0109L26.7349 19.8469C26.7524 19.7776 26.7616 19.7064 26.7623 19.6349C26.7657 19.5443 26.7013 19.4653 26.6118 19.4503L26.6392 19.2657H27.8631C27.9323 19.2614 27.999 19.2917 28.0414 19.3464C28.0838 19.4011 28.0964 19.4733 28.0751 19.5392L27.952 19.9699L28.3212 19.4776Z" fill="#3C3C41"/>
<path fill-rule="evenodd" clip-rule="evenodd" d="M14.758 19.7407L15.1865 18H14.2214L13.793 19.7407H14.758Z" fill="#BCBEC0"/>
<path fill-rule="evenodd" clip-rule="evenodd" d="M14.1701 22.0075L14.5994 20.2676H13.688L13.2051 22.0075H14.1701Z" fill="#BCBEC0"/>
<path fill-rule="evenodd" clip-rule="evenodd" d="M13.5822 24.2752L14.0643 22.4824H13.0993L12.6172 24.2752H13.5822Z" fill="#BCBEC0"/>
<path fill-rule="evenodd" clip-rule="evenodd" d="M5 18V18.58L6.28696 19.7407H6.50159H13.3641L13.7933 18H5Z" fill="#0283B5"/>
<path fill-rule="evenodd" clip-rule="evenodd" d="M7.36133 20.2676V20.7418L8.70116 22.0075H8.91578H12.7767L13.2588 20.2676H7.36133Z" fill="#0283B5"/>
<path fill-rule="evenodd" clip-rule="evenodd" d="M9.77148 22.4824V23.0095L11.1121 24.2752H11.3267H12.1844L12.6673 22.4824H9.77148Z" fill="#0283B5"/>
<g clip-path="url(#clip0_0_7278)">
<path d="M57.7817 18.8447C57.7817 18.8447 57.7817 18.8397 57.7817 18.8372C57.7817 18.8072 57.7742 18.7797 57.7592 18.7522C57.7443 18.7248 57.7218 18.7048 57.6969 18.6898C57.6944 18.6898 57.6944 18.6848 57.6919 18.6848L53.9856 16.5419C53.9283 16.5095 53.8559 16.5095 53.7986 16.5419L50.0923 18.6848C50.0923 18.6848 50.0873 18.6898 50.0848 18.6923C50.0599 18.7073 50.0374 18.7273 50.0224 18.7547C50.0075 18.7822 50.0025 18.8097 50 18.8397C50 18.8422 50 18.8447 50 18.8496V21.9815C50 22.049 50.0349 22.1114 50.0948 22.1439L53.8011 24.2868C53.8011 24.2868 53.806 24.2868 53.811 24.2868C53.836 24.2993 53.8659 24.3092 53.8958 24.3092C53.9258 24.3092 53.9557 24.2993 53.9806 24.2868C53.9831 24.2868 53.9856 24.2868 53.9906 24.2868L55.2726 23.545C55.3624 23.4926 55.3923 23.3777 55.3399 23.2903C55.2876 23.2003 55.1753 23.1704 55.0855 23.2228L54.0829 23.8022V21.1024L57.4151 19.1768V20.7353C57.4175 20.8377 57.5023 20.9226 57.6046 20.9226C57.7069 20.9226 57.7917 20.8377 57.7917 20.7353V18.8521L57.7817 18.8447ZM53.8884 20.7702L52.4093 19.9161L55.7415 17.9905L57.2205 18.8447L53.8884 20.7702ZM53.8884 16.9191L55.3674 17.7732L52.0352 19.6988L50.5562 18.8447L53.8884 16.9191ZM50.3691 19.1693L53.7013 21.0949V23.7923L50.3691 21.8667V19.1693Z" fill="#0091CD"/>
<path d="M60.9967 20.9603C60.9967 20.7722 60.8299 20.6426 60.6807 20.6426C60.6276 20.6426 60.5189 20.6426 60.4203 20.7417C60.0361 21.128 59.5811 21.3923 58.9845 21.5804L58.7292 21.6668C58.125 21.8829 57.7762 22.0582 57.3363 22.3709C56.5602 22.9783 56.1861 23.9848 56.4819 24.6634C56.497 24.699 56.5198 24.7447 56.5451 24.7905C56.0091 25.1158 55.3974 25.4487 54.6946 25.7766C54.5986 25.8198 54.5581 25.9342 54.6011 26.0307C54.634 26.0994 54.7022 26.1426 54.773 26.1426C54.8008 26.1426 54.8261 26.1375 54.8514 26.1248C55.5693 25.7918 56.1937 25.4513 56.7422 25.1209C56.7776 25.1742 56.813 25.2225 56.8434 25.2606C57.086 25.5529 57.4677 25.708 57.9531 25.708C58.6154 25.708 59.2904 25.4106 59.801 24.8972C60.6024 24.1373 61.0725 22.2107 60.9917 20.9654L60.9967 20.9603ZM59.5406 24.6176C59.0957 25.0649 58.5194 25.3191 57.9556 25.3191C57.6978 25.3191 57.3489 25.2657 57.1366 25.009C57.1164 24.9836 57.0911 24.9506 57.0658 24.915C58.7974 23.8196 59.5937 22.8893 59.6367 22.836C59.7049 22.7546 59.6948 22.6352 59.6139 22.5666C59.5331 22.4979 59.4142 22.5081 59.346 22.5894C59.3359 22.6021 58.5522 23.5146 56.8661 24.5846C56.8509 24.5541 56.8358 24.5287 56.8257 24.5058C56.6285 24.0534 56.8535 23.2248 57.5562 22.6733C57.9632 22.3861 58.2792 22.2285 58.848 22.0252L59.0957 21.9413C59.7151 21.7456 60.2029 21.4711 60.615 21.0746C60.6656 22.3582 60.165 24.0204 59.5331 24.6176H59.5406Z" fill="#AABE00"/>
</g>
<defs>
<clipPath id="clip0_0_7278">
<rect width="11" height="11" fill="white" transform="translate(50 16)"/>
</clipPath>
</defs>
</svg>
