<?xml version="1.0" standalone="no"?>
<!DOCTYPE svg PUBLIC "-//W3C//DTD SVG 20010904//EN"
 "http://www.w3.org/TR/2001/REC-SVG-20010904/DTD/svg10.dtd">
<svg version="1.0" xmlns="http://www.w3.org/2000/svg"
 width="3278.000000pt" height="541.000000pt" viewBox="0 0 3278.000000 541.000000"
 preserveAspectRatio="xMidYMid meet">

<g transform="translate(0.000000,541.000000) scale(0.100000,-0.100000)"
fill="#000000" stroke="none">
<path d="M0 2705 l0 -2705 16390 0 16390 0 0 2705 0 2705 -16390 0 -16390 0 0
-2705z m18240 175 c122 -283 224 -517 226 -519 5 -5 29 49 264 591 107 246
195 446 197 444 4 -4 253 -1293 253 -1308 0 -5 -31 -8 -70 -8 -64 0 -70 2 -75
23 -3 12 -39 202 -81 422 -41 220 -76 401 -78 402 -1 1 -91 -197 -200 -440
-109 -243 -201 -445 -205 -449 -3 -4 -67 129 -141 295 -73 166 -164 369 -201
451 l-67 149 -11 -54 c-6 -30 -38 -198 -71 -374 -33 -176 -65 -344 -71 -372
l-10 -53 -70 0 c-46 0 -69 4 -69 12 0 14 239 1265 246 1291 3 10 7 17 9 15 1
-2 102 -235 225 -518z m4999 456 c59 -22 132 -77 167 -127 l28 -41 -27 -22
c-15 -12 -40 -29 -55 -38 l-29 -17 -31 44 c-90 127 -293 122 -370 -10 -18 -32
-22 -51 -19 -98 3 -51 8 -62 43 -98 22 -23 72 -56 114 -76 292 -137 343 -172
391 -269 33 -68 34 -202 0 -286 -31 -81 -106 -159 -189 -200 -64 -32 -72 -33
-182 -33 -97 0 -122 4 -163 22 -92 43 -182 148 -212 248 l-14 44 67 20 c36 11
67 19 68 18 1 -1 9 -25 18 -53 21 -64 73 -126 129 -153 58 -28 155 -28 217 0
154 70 198 258 85 370 -38 38 -45 42 -235 132 -225 106 -287 182 -278 342 5
94 26 140 90 201 49 48 111 81 171 94 56 12 162 5 216 -14z m3699 8 c42 -8
115 -34 162 -56 68 -33 100 -57 170 -127 94 -94 145 -182 176 -300 25 -98 16
-273 -18 -369 -72 -202 -252 -364 -463 -417 -78 -20 -240 -19 -319 1 -225 57
-403 231 -472 460 -13 42 -18 91 -18 174 0 102 4 125 30 200 111 317 428 500
752 434z m-22428 -69 l0 -65 -150 0 -150 0 0 -565 0 -565 -70 0 -70 0 -2 563
-3 562 -152 3 -153 3 0 64 0 65 375 0 375 0 0 -65z m960 -190 l0 -255 325 0
325 0 0 255 0 255 70 0 70 0 0 -630 0 -630 -70 0 -70 0 0 305 c0 168 -3 305
-7 305 -5 0 -150 0 -323 1 l-315 1 -3 -306 -2 -306 -70 0 -70 0 0 630 0 630
70 0 70 0 0 -255z m2370 190 l0 -65 -255 0 -255 0 0 -190 0 -190 245 0 245 0
0 -65 0 -65 -245 0 -245 0 0 -245 0 -245 255 0 255 0 0 -65 0 -65 -325 0 -325
0 0 630 0 630 325 0 325 0 0 -65z m2428 55 c95 -12 182 -52 228 -103 120 -133
123 -348 6 -478 -78 -87 -170 -119 -337 -119 l-95 0 0 -275 0 -275 -70 0 -70
0 0 630 0 630 133 0 c72 0 165 -5 205 -10z m1822 -55 l0 -65 -255 0 -255 0 0
-190 0 -190 248 -2 247 -3 3 -62 3 -63 -251 0 -250 0 0 -245 0 -245 255 0 255
0 0 -65 0 -65 -325 0 -325 0 0 630 0 630 325 0 325 0 0 -65z m1295 39 c111
-29 185 -88 227 -179 18 -41 23 -68 23 -145 0 -81 -4 -103 -26 -150 -14 -31
-40 -72 -58 -92 -34 -39 -140 -98 -175 -98 -12 0 -27 -4 -34 -8 -12 -8 13 -45
360 -535 l20 -28 -88 3 -87 3 -186 270 c-103 148 -194 271 -204 273 -16 3 -17
-16 -17 -272 l0 -276 -70 0 -70 0 0 632 0 631 163 -6 c97 -4 186 -13 222 -23z
m1755 -39 l0 -65 -215 0 -215 0 0 -190 0 -190 210 0 210 0 0 -65 0 -65 -210 0
-210 0 0 -310 0 -310 -70 0 -70 0 0 630 0 630 285 0 285 0 0 -65z m1030 -352
c0 -429 6 -517 40 -582 45 -87 137 -142 251 -149 136 -8 243 48 295 155 l29
58 3 468 3 467 69 0 70 0 0 -450 c0 -294 -4 -467 -11 -502 -27 -124 -109 -225
-232 -284 -247 -117 -548 -4 -629 236 -21 63 -22 83 -26 533 l-3 467 70 0 71
0 0 -417z m4490 352 l0 -65 -255 0 -255 0 0 -190 0 -190 250 0 250 0 0 -65 0
-65 -250 0 -250 0 0 -245 0 -245 255 0 255 0 0 -65 0 -65 -325 0 -325 0 0 630
0 630 325 0 325 0 0 -65z m3840 -190 l0 -255 325 0 325 0 0 255 0 256 68 -3
67 -3 3 -627 2 -628 -70 0 -70 0 -2 308 -3 307 -300 3 c-165 2 -310 0 -322 -3
l-23 -5 0 -305 0 -305 -70 0 -70 0 0 630 0 630 70 0 70 0 0 -255z m4237 231
c145 -40 232 -153 241 -312 5 -94 -11 -155 -60 -229 -65 -98 -179 -145 -355
-145 l-103 0 0 -275 0 -275 -70 0 -70 0 0 631 0 632 183 -6 c109 -4 203 -12
234 -21z"/>
<path d="M26730 3223 c-62 -10 -155 -48 -210 -85 -113 -75 -189 -193 -217
-338 -62 -312 183 -610 501 -610 147 0 263 47 361 145 104 104 155 228 155
375 0 151 -44 257 -154 366 -42 41 -94 82 -126 97 -91 44 -220 65 -310 50z"/>
<path d="M10070 2986 l0 -226 80 0 c161 0 248 41 283 135 23 62 19 158 -10
207 -40 68 -102 93 -255 104 l-98 7 0 -227z"/>
<path d="M13140 2980 l0 -232 88 7 c109 9 182 35 221 80 77 88 62 261 -29 323
-43 29 -85 39 -192 48 l-88 7 0 -233z"/>
<path d="M28460 2985 l0 -228 108 5 c152 7 213 37 253 123 21 45 25 147 8 192
-17 46 -69 92 -122 108 -26 8 -93 17 -147 21 l-100 7 0 -228z"/>
</g>
</svg>
